<svg xmlns="http://www.w3.org/2000/svg" width="90.814" height="27" viewBox="0 0 90.814 27">
  <g id="Group_2066" data-name="Group 2066" transform="translate(-40.186 -27)">
    <text id="Cloud" transform="translate(78 49)" fill="#242424" font-size="20" font-family="SegoeUI, Segoe UI"><tspan x="0" y="0">Cloud</tspan></text>
    <g id="server" transform="translate(40.186 31)">
      <path id="Path_741" data-name="Path 741" d="M15.371,26.207h-3.8A1.269,1.269,0,0,1,10.3,24.94V18.6H7.134a.634.634,0,0,1-.449-1.082l6.336-6.336a.634.634,0,0,1,.9,0l6.336,6.336a.634.634,0,0,1-.447,1.082H16.638V24.94A1.269,1.269,0,0,1,15.371,26.207ZM8.663,17.336h2.272a.634.634,0,0,1,.634.634v6.97h3.8V17.97A.634.634,0,0,1,16,17.336h2.272L13.47,12.53Z" transform="translate(1.737 -4.931)" fill="#242424"/>
      <path id="Path_742" data-name="Path 742" d="M5.7,21.238a.708.708,0,0,1-.072,0A6.335,6.335,0,0,1,5.9,8.619,9.5,9.5,0,0,1,23.638,6.125a7.589,7.589,0,0,1,1.243,14.85.634.634,0,0,1-.338-1.222A6.32,6.32,0,0,0,23.195,7.36.633.633,0,0,1,22.655,7a8.227,8.227,0,0,0-15.59,2.33.634.634,0,0,1-.627.545,5.068,5.068,0,0,0-.664,10.1.634.634,0,0,1-.07,1.263Z" transform="translate(0 0)" fill="#242424"/>
    </g>
  </g>
</svg>
