<svg xmlns="http://www.w3.org/2000/svg" width="27.298" height="27.336" viewBox="0 0 27.298 27.336">
  <path id="Path_23" data-name="Path 23" d="M14.946,7.495s.813-.618.194-1.236-1.22.18-1.22.18L7.7,12.659s-1.457,1.88-2.564.743.743-2.565.743-2.565l8.156-8.155s1.9-2.1,3.693-.309-.316,3.7-.316,3.7L8.247,15.233s-2.932,3.387-5.646.672.706-5.614.706-5.614l6.957-6.959s.779-.651.2-1.236-1.235.2-1.235.2L1.241,10.276a4.721,4.721,0,0,0,.352,6.67,4.724,4.724,0,0,0,6.672.353L19.237,6.325a3.551,3.551,0,0,0-.422-5.04A3.549,3.549,0,0,0,13.776.861L4.335,10.3s-2.418,1.967-.224,4.16S8.236,14.2,8.236,14.2Z" transform="matrix(-0.695, 0.719, -0.719, -0.695, 27.298, 12.878)" fill="#263238"/>
</svg>
