<svg id="forbbiden" xmlns="http://www.w3.org/2000/svg" width="23.596" height="23.596" viewBox="0 0 23.596 23.596">
  <g id="Group_2063" data-name="Group 2063">
    <path id="Path_12642" data-name="Path 12642" d="M11.8,0A11.9,11.9,0,0,0,0,11.8,11.9,11.9,0,0,0,11.8,23.6,11.9,11.9,0,0,0,23.6,11.8,11.9,11.9,0,0,0,11.8,0ZM4.466,19.13A10.248,10.248,0,0,1,3.993,4.97L5.018,6A2.072,2.072,0,0,0,4.194,7.65v5.53a2.076,2.076,0,0,0,2.074,2.074h.691v.691a2.076,2.076,0,0,0,2.074,2.074h2.074v2.074a.692.692,0,0,0,1.18.489l2.563-2.563h2.193L18.625,19.6A10.248,10.248,0,0,1,4.466,19.13Zm1.111-5.95V7.65A.692.692,0,0,1,6.026,7L7.784,8.761a2.072,2.072,0,0,0-.825,1.654v3.456H6.268A.692.692,0,0,1,5.576,13.18ZM11.8,16.637H9.033a.692.692,0,0,1-.691-.691v-5.53a.692.692,0,0,1,.449-.647l6.868,6.868h-1.1a.691.691,0,0,0-.489.2l-1.585,1.585v-1.1A.691.691,0,0,0,11.8,16.637ZM10.7,9.724h6.626a.692.692,0,0,1,.691.691v5.53a.692.692,0,0,1-.449.647Zm4.553-1.383H9.319L7.937,6.959h6.626a.692.692,0,0,1,.691.691ZM19.6,18.625,18.577,17.6a2.072,2.072,0,0,0,.825-1.654v-5.53a2.076,2.076,0,0,0-2.074-2.074h-.691V7.65a2.076,2.076,0,0,0-2.074-2.074H6.554L4.97,3.993a10.248,10.248,0,0,1,14.16.473A10.248,10.248,0,0,1,19.6,18.625Z" fill="#016be3"/>
  </g>
</svg>
