<svg id="frame" xmlns="http://www.w3.org/2000/svg" width="28.28" height="27.311" viewBox="0 0 28.28 27.311">
  <g id="Group_2" data-name="Group 2">
    <g id="Group_1" data-name="Group 1" transform="translate(0)">
      <path id="Path_1" data-name="Path 1" d="M247.464,1.546A5.27,5.27,0,0,0,243.692,0H238.6V2.037h5.054a3.349,3.349,0,0,1,3.319,3.319V10.75h2.037V5.318A5.43,5.43,0,0,0,247.464,1.546Z" transform="translate(-220.73)"/>
      <path id="Path_2" data-name="Path 2" d="M6.417,246.094a3.31,3.31,0,0,1-.981-2.339V238.4H3.4v5.394a5.43,5.43,0,0,0,1.546,3.772,5.592,5.592,0,0,0,3.81,1.546H13.81v-2.037H8.756A3.31,3.31,0,0,1,6.417,246.094Z" transform="translate(-3.4 -221.838)"/>
      <path id="Path_3" data-name="Path 3" d="M246.936,243.794a3.349,3.349,0,0,1-3.319,3.319H238.6v2.037h5.054a5.43,5.43,0,0,0,3.772-1.546,5.27,5.27,0,0,0,1.546-3.772V238.4h-2.037Z" transform="translate(-220.73 -221.838)"/>
      <path id="Path_4" data-name="Path 4" d="M5.346,1.546A5.27,5.27,0,0,0,3.8,5.318v5.394H5.837V5.318A3.349,3.349,0,0,1,9.156,2H14.21V0H9.118A5.43,5.43,0,0,0,5.346,1.546Z" transform="translate(-3.762)"/>
    </g>
  </g>
</svg>
