<svg xmlns="http://www.w3.org/2000/svg" width="40.5" height="31.089" viewBox="0 0 40.5 31.089">
  <g id="hand" transform="translate(0 -59.484)">
    <path id="Path_4102" data-name="Path 4102" d="M136.357,65.708h-.127a1.882,1.882,0,0,0-1.895,1.858V62.514a1.927,1.927,0,0,0-1.907-1.693h0a1.926,1.926,0,0,0-1.921,1.921V61.4a1.926,1.926,0,0,0-1.92-1.921h0a1.983,1.983,0,0,0-1.977,1.977v2.6a1.95,1.95,0,0,0-1.732-1.956,1.926,1.926,0,0,0-2.109,1.911l-.006,8.244a2.4,2.4,0,0,0-.92-.98,1.837,1.837,0,0,0-2.474,2.555l.419.521a21.6,21.6,0,0,1,3.405,6.1,7.467,7.467,0,0,0,2.977,3.664.393.393,0,0,1,.178.331v5.724a.4.4,0,0,0,.4.4h7.529a.4.4,0,0,0,.4-.4V84.235a7.269,7.269,0,0,0,3.585-6.183V67.567A1.882,1.882,0,0,0,136.357,65.708Z" transform="translate(-109.671 0)" fill="#f0beb4"/>
    <g id="Group_1982" data-name="Group 1982" transform="translate(14.492 59.484)">
      <path id="Path_4103" data-name="Path 4103" d="M298.326,140.028v10.486a7.268,7.268,0,0,1-3.585,6.183v5.943a.4.4,0,0,1-.4.4h-1.43v-6.164a.316.316,0,0,1,.148-.266,7.254,7.254,0,0,0,3.437-6.091V140.028a1.859,1.859,0,0,0-1.045-1.659,1.9,1.9,0,0,1,.849-.2h.127A1.882,1.882,0,0,1,298.326,140.028Z" transform="translate(-284.237 -131.946)" fill="#e2afaa"/>
      <path id="Path_4104" data-name="Path 4104" d="M282.637,87.753a.4.4,0,0,1-.231-.36V78.308a2.012,2.012,0,0,0-1.2-1.865,1.867,1.867,0,0,1,.513-.071,1.928,1.928,0,0,1,1.907,1.694V88.208Z" transform="translate(-273.459 -75.035)" fill="#e2afaa"/>
      <path id="Path_4105" data-name="Path 4105" d="M184.637,102.814a.4.4,0,0,1-.231-.36V94.663a2.355,2.355,0,0,0-.255-1.194c-.178-.271-.557-.78-.94-.671a1.867,1.867,0,0,1,.513-.071,1.928,1.928,0,0,1,1.907,1.694v8.849Z" transform="translate(-183.211 -90.097)" fill="#e2afaa"/>
      <path id="Path_4106" data-name="Path 4106" d="M234.234,72.2a.4.4,0,0,1-.231-.36V61.421a2,2,0,0,0-1.2-1.865,1.867,1.867,0,0,1,.513-.071,1.928,1.928,0,0,1,1.907,1.694V72.656Z" transform="translate(-228.885 -59.484)" fill="#e2afaa"/>
    </g>
    <g id="Group_1983" data-name="Group 1983" transform="translate(0 61.693)">
      <path id="Path_4107" data-name="Path 4107" d="M385.851,156.993a.593.593,0,0,1-.317-1.1,9.221,9.221,0,0,0-.026-15.627.593.593,0,0,1,.629-1.006,10.408,10.408,0,0,1,.029,17.637A.591.591,0,0,1,385.851,156.993Z" transform="translate(-354.758 -135.079)" fill="#8c98a8"/>
      <path id="Path_4108" data-name="Path 4108" d="M422.148,113.413a.593.593,0,0,1-.349-1.073,14.624,14.624,0,0,0,5.69-11.918,15.835,15.835,0,0,0-1.58-6.945,13.463,13.463,0,0,0-4.145-5,.593.593,0,1,1,.694-.962A16.506,16.506,0,0,1,422.5,113.3.591.591,0,0,1,422.148,113.413Z" transform="translate(-388.176 -87.405)" fill="#8c98a8"/>
      <path id="Path_4109" data-name="Path 4109" d="M58.6,156.993a.59.59,0,0,1-.316-.091,10.408,10.408,0,0,1,.03-17.637.593.593,0,1,1,.629,1.006,9.221,9.221,0,0,0-.026,15.627.593.593,0,0,1-.317,1.1Z" transform="translate(-49.191 -135.079)" fill="#8c98a8"/>
      <path id="Path_4110" data-name="Path 4110" d="M6.528,113.414a.591.591,0,0,1-.348-.113,16.506,16.506,0,0,1,.038-25.783.593.593,0,1,1,.694.962,13.462,13.462,0,0,0-4.145,5,15.835,15.835,0,0,0-1.58,6.945,14.624,14.624,0,0,0,5.69,11.918.593.593,0,0,1-.349,1.073Z" transform="translate(0 -87.405)" fill="#8c98a8"/>
    </g>
  </g>
</svg>
