<svg id="hide" xmlns="http://www.w3.org/2000/svg" width="16.752" height="12.563" viewBox="0 0 16.752 12.563">
  <g id="Group_1998" data-name="Group 1998" transform="translate(6.3 4.205)">
    <g id="Group_1997" data-name="Group 1997">
      <path id="Path_12489" data-name="Path 12489" d="M196.6,192.644a.349.349,0,0,0-.493.493,2.094,2.094,0,1,1-2.961,2.961.349.349,0,0,0-.493.493,2.792,2.792,0,1,0,3.948-3.948Z" transform="translate(-192.55 -192.542)" fill="#fff"/>
    </g>
  </g>
  <g id="Group_2000" data-name="Group 2000" transform="translate(5.584 3.489)">
    <g id="Group_1999" data-name="Group 1999">
      <path id="Path_12490" data-name="Path 12490" d="M173.946,170.707a2.764,2.764,0,0,0-3.278,2.744,2.733,2.733,0,0,0,.049.486.349.349,0,0,0,.343.288.307.307,0,0,0,.061-.006.349.349,0,0,0,.283-.4,2.024,2.024,0,0,1-.038-.365,2.069,2.069,0,0,1,2.459-2.057.349.349,0,1,0,.121-.687Z" transform="translate(-170.668 -170.659)" fill="#fff"/>
    </g>
  </g>
  <g id="Group_2002" data-name="Group 2002" transform="translate(4.366 2.371)">
    <g id="Group_2001" data-name="Group 2001">
      <path id="Path_12491" data-name="Path 12491" d="M145.738,140.147a16.954,16.954,0,0,0-4.571-3.646.349.349,0,0,0-.32.621A16.4,16.4,0,0,1,145,140.372c-.832.9-4.106,4.188-7.558,4.188a8.047,8.047,0,0,1-3.509-.841.349.349,0,0,0-.3.628,8.727,8.727,0,0,0,3.812.911c4.3,0,8.132-4.47,8.294-4.66A.349.349,0,0,0,145.738,140.147Z" transform="translate(-133.435 -136.461)" fill="#fff"/>
    </g>
  </g>
  <g id="Group_2004" data-name="Group 2004" transform="translate(0 1.395)">
    <g id="Group_2003" data-name="Group 2003">
      <path id="Path_12492" data-name="Path 12492" d="M10.666,107.061a7.207,7.207,0,0,0-2.29-.4c-4.3,0-8.132,4.47-8.294,4.66a.349.349,0,0,0-.02.425,12.958,12.958,0,0,0,3.2,3.036.347.347,0,0,0,.483-.1.348.348,0,0,0-.1-.483A12.763,12.763,0,0,1,.8,111.564c.8-.872,4.1-4.207,7.576-4.207a6.533,6.533,0,0,1,2.067.365.344.344,0,0,0,.442-.219A.348.348,0,0,0,10.666,107.061Z" transform="translate(0 -106.659)" fill="#fff"/>
    </g>
  </g>
  <g id="Group_2006" data-name="Group 2006" transform="translate(2.094 0)">
    <g id="Group_2005" data-name="Group 2005">
      <path id="Path_12493" data-name="Path 12493" d="M76.457,64.11a.349.349,0,0,0-.493,0L64.1,75.976a.349.349,0,0,0,.493.493L76.457,64.6A.349.349,0,0,0,76.457,64.11Z" transform="translate(-63.996 -64.008)" fill="#fff"/>
    </g>
  </g>
</svg>
