<svg xmlns="http://www.w3.org/2000/svg" width="10.512" height="12.451" viewBox="0 0 10.512 12.451">
  <g id="mute" transform="translate(0)">
    <g id="Group_2016" data-name="Group 2016" transform="translate(2.825)">
      <g id="Group_2015" data-name="Group 2015">
        <path id="Path_12498" data-name="Path 12498" d="M158.458,0a2.434,2.434,0,0,0-2.431,2.431V6.563a2.431,2.431,0,1,0,4.862-.014V2.431A2.434,2.434,0,0,0,158.458,0Zm1.588,6.549a1.588,1.588,0,1,1-3.176.014V2.431a1.588,1.588,0,1,1,3.176,0Z" transform="translate(-156.027)" fill="#616161"/>
      </g>
    </g>
    <g id="Group_2018" data-name="Group 2018" transform="translate(4.834 10.217)">
      <g id="Group_2017" data-name="Group 2017">
        <rect id="Rectangle_487" data-name="Rectangle 487" width="0.843" height="1.911" fill="#616161"/>
      </g>
    </g>
    <g id="Group_2020" data-name="Group 2020" transform="translate(3.092 11.608)">
      <g id="Group_2019" data-name="Group 2019">
        <path id="Path_12499" data-name="Path 12499" d="M170.914,477.327h-3.485a.422.422,0,0,0,0,.843h3.485a.422.422,0,0,0,0-.843Z" transform="translate(-167.007 -477.327)" fill="#616161"/>
      </g>
    </g>
    <g id="Group_2022" data-name="Group 2022" transform="translate(1.279 4.483)">
      <g id="Group_2021" data-name="Group 2021">
        <path id="Path_12500" data-name="Path 12500" d="M99.994,184.343a.422.422,0,0,0-.422.422v1.658a3.134,3.134,0,1,1-6.268,0v-1.658a.422.422,0,1,0-.843,0v1.658a3.977,3.977,0,1,0,7.954,0v-1.658A.422.422,0,0,0,99.994,184.343Z" transform="translate(-92.461 -184.343)" fill="#616161"/>
      </g>
    </g>
    <g id="Group_2024" data-name="Group 2024" transform="translate(0 0.97)">
      <g id="Group_2023" data-name="Group 2023">
        <path id="Path_12501" data-name="Path 12501" d="M50.262,40a.421.421,0,0,0-.6,0L40,49.665a.422.422,0,1,0,.6.6l9.669-9.669A.421.421,0,0,0,50.262,40Z" transform="translate(-39.873 -39.873)" fill="#616161"/>
      </g>
    </g>
  </g>
</svg>
