<svg xmlns="http://www.w3.org/2000/svg" width="12.907" height="12.228" viewBox="0 0 12.907 12.228">
  <g id="edit" transform="translate(0 -1.732)">
    <path id="Path_12502" data-name="Path 12502" d="M12.568,26.351a.339.339,0,0,0-.339.339V29.7a1.019,1.019,0,0,1-1.017,1.017H1.7A1.019,1.019,0,0,1,.678,29.7V20.864A1.018,1.018,0,0,1,1.7,19.846H4.707a.339.339,0,0,0,0-.678H1.7a1.7,1.7,0,0,0-1.7,1.7V29.7a1.7,1.7,0,0,0,1.7,1.7h9.515a1.7,1.7,0,0,0,1.7-1.7V26.69A.339.339,0,0,0,12.568,26.351Zm0,0" transform="translate(0 -17.436)" fill="#616161"/>
    <path id="Path_12503" data-name="Path 12503" d="M156.367,37.28l4.952-4.952,1.6,1.6-4.952,4.952Zm0,0" transform="translate(-152.817 -28.398)" fill="#616161"/>
    <path id="Path_12504" data-name="Path 12504" d="M132.543,198.984l1.765-.489-1.276-1.276Zm0,0" transform="translate(-129.8 -187.697)" fill="#616161"/>
    <path id="Path_12505" data-name="Path 12505" d="M318.086.516a.849.849,0,0,0-1.2,0l-.36.36,1.6,1.6.36-.36a.849.849,0,0,0,0-1.2Zm0,0" transform="translate(-307.545 2.574)" fill="#616161"/>
  </g>
</svg>
