<svg xmlns="http://www.w3.org/2000/svg" width="49.572" height="80.809" viewBox="0 0 49.572 80.809">
  <g id="Group_1077" data-name="Group 1077" transform="translate(9.703) rotate(22)">
    <path id="Path_1305" data-name="Path 1305" d="M1913.036,194.7l9.431,7.1a1.9,1.9,0,0,1,.46,2.65l-1.048,1.391a1.9,1.9,0,0,1-2.674.289l-9.431-7.1a1.9,1.9,0,0,1-.46-2.65l1.048-1.391A1.9,1.9,0,0,1,1913.036,194.7Z" transform="translate(-1907.763 -193.1)" fill="#8d9999"/>
    <path id="Path_1306" data-name="Path 1306" d="M1995.874,255.615a5.7,5.7,0,0,0-1.164,1.183l-1.344,1.825a5.857,5.857,0,0,0-.74,1.332l1.828,1.376a1.9,1.9,0,0,0,2.674-.289l1.048-1.391a1.9,1.9,0,0,0-.46-2.65Z" transform="translate(-1983.029 -248.274)" fill="#4e4f4f" opacity="0.54"/>
    <path id="Path_1307" data-name="Path 1307" d="M1995.979,379.557l2.6-2.446,11.959,9.975-2.487,3.182-.97.177-1.132-.99c-1.412,2.63-1.856,6.213,1.033,8.769,3.958,3.5,8.533-.011,8.777-.19l-.467-.408a3.408,3.408,0,0,0-.132-1.267l1.074-1.384,11.654,9.418-1.911,2.454C2010.427,411.913,1991.084,397.462,1995.979,379.557Z" transform="translate(-1985.35 -357.574)" fill="#8d9999"/>
    <path id="Path_1308" data-name="Path 1308" d="M2166.034,607.659l2.1-17.282c.471-2.413,3.392-2.893,5.067-1.2l5.564,13.391Z" transform="translate(-2139.03 -547.45)" fill="#b6d3d2"/>
    <path id="Path_1309" data-name="Path 1309" d="M2164.838,625.974l.659,1.585c.217.521-.194,1.188-.919,1.489l-34.406,14.3a1.271,1.271,0,0,1-1.7-.4l-.659-1.585c-.216-.521.195-1.188.919-1.489l34.405-14.3A1.271,1.271,0,0,1,2164.838,625.974Z" transform="translate(-2104.591 -580.967)" fill="#4d4d4d"/>
    <path id="Path_1310" data-name="Path 1310" d="M2199.513,601.57a1.81,1.81,0,1,1-2.365-.977A1.809,1.809,0,0,1,2199.513,601.57Z" transform="translate(-2166.017 -558.499)" fill="#8d9999"/>
    <path id="Path_1311" data-name="Path 1311" d="M2189.071,374.672l.749.582a1.329,1.329,0,0,1,.234,1.866l-12.044,15.5a1.329,1.329,0,0,1-1.865.234l-.75-.582a1.33,1.33,0,0,1-.234-1.866l12.044-15.5A1.33,1.33,0,0,1,2189.071,374.672Z" transform="translate(-2146.99 -355.129)" fill="#b6d3d2"/>
    <path id="Path_1312" data-name="Path 1312" d="M2244.295,431.262l.425.33a.537.537,0,0,1,.095.754l-5.926,7.626a.537.537,0,0,1-.753.095l-.425-.33a.537.537,0,0,1-.1-.754l5.926-7.627A.537.537,0,0,1,2244.295,431.262Z" transform="translate(-2203.325 -406.188)" fill="#8d9999"/>
    <path id="Path_1313" data-name="Path 1313" d="M2264.009,452.023l.238.185a.49.49,0,0,1,.086.686l-3.992,5.136a.489.489,0,0,1-.686.086l-.238-.185a.489.489,0,0,1-.085-.686l3.991-5.136A.489.489,0,0,1,2264.009,452.023Z" transform="translate(-2222.87 -424.875)" fill="#768483"/>
    <path id="Path_1314" data-name="Path 1314" d="M2368.553,546.932l.676.309a.441.441,0,0,1,.218.583l-2.076,4.546a.441.441,0,0,1-.583.217l-.676-.309a.441.441,0,0,1-.218-.583l2.076-4.546A.44.44,0,0,1,2368.553,546.932Z" transform="translate(-2318.794 -510.313)" fill="#8d9999"/>
    <path id="Path_1315" data-name="Path 1315" d="M2330.387,529.786l.316.763a.489.489,0,0,1-.263.639l-9.759,4.055a.489.489,0,0,1-.639-.264l-.316-.762a.489.489,0,0,1,.263-.64l9.759-4.055A.49.49,0,0,1,2330.387,529.786Z" transform="translate(-2277.26 -494.654)" fill="#b6d3d2"/>
    <path id="Path_1316" data-name="Path 1316" d="M2166.511,383.007l1.475,1.091a2.984,2.984,0,0,1,.718.628l-3.641,4.749a3.023,3.023,0,0,1-.813-.505l-1.475-1.091a2.96,2.96,0,0,1-.718-.628l3.641-4.749A3.026,3.026,0,0,1,2166.511,383.007Z" transform="translate(-2135.452 -362.421)" fill="#8d9999"/>
    <path id="Path_1317" data-name="Path 1317" d="M1999.093,247.479l15.064,11.6a1.013,1.013,0,0,1,.289,1.374l-4.674,6.346a.962.962,0,0,1-1.372.1l-15.064-11.6a1.013,1.013,0,0,1-.289-1.375l4.674-6.346A.963.963,0,0,1,1999.093,247.479Z" transform="translate(-1983.262 -240.739)" fill="#3dbdd3"/>
    <path id="Path_1318" data-name="Path 1318" d="M1901.269,182.6l.4.293c.384.284.333.987-.113,1.57l-2.383,3.108c-.446.583-1.12.825-1.5.541l-.4-.293c-.384-.284-.334-.987.113-1.57l2.383-3.108C1900.211,182.554,1900.885,182.312,1901.269,182.6Z" transform="translate(-1897.011 -182.477)" fill="#3dbdd3"/>
    <path id="Path_1319" data-name="Path 1319" d="M2007.949,338.84a3.179,3.179,0,1,1-4.156-1.716A3.179,3.179,0,0,1,2007.949,338.84Z" transform="translate(-1991.311 -321.382)" fill="#fff"/>
    <path id="Path_1320" data-name="Path 1320" d="M2016.265,348.641a2.159,2.159,0,1,1-2.823-1.165A2.159,2.159,0,0,1,2016.265,348.641Z" transform="translate(-2000.558 -330.765)" fill="#3dbdd3"/>
    <path id="Path_1321" data-name="Path 1321" d="M2296.385,595.147l.285.686a.439.439,0,0,1-.237.575l-7.669,3.187a.441.441,0,0,1-.576-.238l-.285-.686a.441.441,0,0,1,.238-.576l7.669-3.187A.44.44,0,0,1,2296.385,595.147Z" transform="translate(-2248.636 -553.481)" fill="#8d9999"/>
    <path id="Path_1322" data-name="Path 1322" d="M2361.921,589.526a1.266,1.266,0,1,1-1.655-.683A1.265,1.265,0,0,1,2361.921,589.526Z" transform="translate(-2313.064 -547.966)" fill="#7c8988"/>
    <path id="Path_1323" data-name="Path 1323" d="M2365.607,593.282a.86.86,0,1,1-1.124-.464A.86.86,0,0,1,2365.607,593.282Z" transform="translate(-2317.084 -551.57)" fill="#62c8d3"/>
    <path id="Path_1324" data-name="Path 1324" d="M2204.783,608.284a1.109,1.109,0,1,1-1.449-.6A1.108,1.108,0,0,1,2204.783,608.284Z" transform="translate(-2171.972 -564.929)" fill="#b6d3d2"/>
  </g>
</svg>
