<svg xmlns="http://www.w3.org/2000/svg" width="50.275" height="100.533" viewBox="0 0 50.275 100.533">
  <g id="Group_1616" data-name="Group 1616" transform="translate(-8678.385 -961.5)">
    <g id="Group_1609" data-name="Group 1609" transform="translate(8689.304 992.998)">
      <path id="Path_1092" data-name="Path 1092" d="M696.637,1441.133a.25.25,0,0,1-.1,0c-2.141-.373-3.873-2.711-4.029-5.439a.251.251,0,0,1,.5-.029c.141,2.46,1.728,4.645,3.614,4.973a.251.251,0,0,1,.016.492Z" transform="translate(-690.634 -1429.658)" fill="#663535"/>
      <path id="Path_1093" data-name="Path 1093" d="M641.922,1382.141c-.065.03-.172-.019-.34-.089a1.138,1.138,0,0,0-.475-.135c-.121.025-.083.148.056.27.23.2.765.638,1.045.837a1.055,1.055,0,0,0,1.458-.046c.471-.609.614-.875.888-1.261.068-.095-.2-.16-.341-.077-.3.177-.315.3-.476.382s-.254-.039-.315-.2c-.064-.852-.007-1.343-.251-1.458-.215-.065-.252.523-.262,1.189-.269-.693-.542-1.231-.713-1.147-.2.1-.091.694.171,1.262-.462-.353-.84-.762-1.021-.617C641.185,1381.181,642.105,1382.057,641.922,1382.141Z" transform="translate(-641.035 -1376.589)" fill="#3ccde5"/>
      <path id="Path_1094" data-name="Path 1094" d="M1126.092,1342.654a.251.251,0,0,1-.21-.445c1.528-1.152,1.944-3.82.947-6.074a.251.251,0,0,1,.46-.2c1.105,2.5.631,5.37-1.1,6.679A.253.253,0,0,1,1126.092,1342.654Z" transform="translate(-1108.16 -1333.632)" fill="#663535"/>
      <path id="Path_1095" data-name="Path 1095" d="M1117.283,1278.055c.072,0,.144-.095.262-.234.1-.12.25-.306.361-.337s.141.094.073.266c-.113.284-.389.917-.548,1.222a1.055,1.055,0,0,1-1.318.625c-.7-.327-.945-.5-1.366-.717-.1-.054.107-.234.268-.224.346.022.419.127.6.123s.208-.151.188-.323c-.332-.787-.607-1.2-.442-1.411.161-.155.463.351.776.939-.077-.74-.079-1.343.111-1.346.224,0,.4.577.424,1.2.25-.525.4-1.061.627-1.015C1117.5,1276.865,1117.081,1278.064,1117.283,1278.055Z" transform="translate(-1097.5 -1276.637)" fill="#3ccde5"/>
      <path id="Path_1096" data-name="Path 1096" d="M1055.311,1905.463a.25.25,0,0,1-.2-.037c-1.881-1.29-2.525-2.9-1.864-4.66a.251.251,0,0,1,.47.177c-.579,1.539-.014,2.908,1.678,4.069a.251.251,0,0,1-.083.451Z" transform="translate(-1038.018 -1877.921)" fill="#663535"/>
      <g id="Group_1037" data-name="Group 1037" transform="translate(16.334 26.571)">
        <path id="Path_1097" data-name="Path 1097" d="M1096.33,2008.844c.1-.167.577-1.086.669-1.278.317.153.874.428,1.2.625a9.98,9.98,0,0,1-1.213,2.373C1096.754,2010.45,1096.129,2010.055,1096.33,2008.844Z" transform="translate(-1096.075 -2007.566)" fill="#3ccde5"/>
        <path id="Path_1098" data-name="Path 1098" d="M1091.383,2022c-.3-.1-.556.336-.422.542.094.144.169.22.234.24.2.06.323-.161.385-.285A.366.366,0,0,0,1091.383,2022Zm.432,2.225a9.98,9.98,0,0,0,1.213-2.373c-.033-.02-.166-.088-.2-.109a22.654,22.654,0,0,1-1.2,2.385C1091.66,2024.143,1091.789,2024.208,1091.814,2024.22Z" transform="translate(-1090.904 -2021.223)" fill="#1fa3c1"/>
        <path id="Path_1099" data-name="Path 1099" d="M1090.4,2029.544c.1.146.174.223.24.244.2.063.326-.158.386-.282a.375.375,0,0,0-.206-.5C1090.519,2028.9,1090.266,2029.335,1090.4,2029.544Z" transform="translate(-1090.366 -2028.21)" fill="#3ccde5"/>
        <path id="Path_1100" data-name="Path 1100" d="M1093.787,2045.591a.478.478,0,0,1,.315-.236.056.056,0,0,0-.024-.109.606.606,0,0,0-.391.3.054.054,0,0,0,.025.076A.056.056,0,0,0,1093.787,2045.591Zm-.032.284a.056.056,0,0,0,.074-.029.4.4,0,0,1,.291-.222.056.056,0,0,0,.038-.03.055.055,0,0,0,0-.037.056.056,0,0,0-.067-.043.5.5,0,0,0-.369.287A.056.056,0,0,0,1093.755,2045.875Z" transform="translate(-1093.559 -2043.875)" fill="#e2e6ed"/>
      </g>
      <path id="Path_1101" data-name="Path 1101" d="M939.463,1938.118a.251.251,0,0,1-.245-.076c-1.531-1.69-1.785-3.407-.735-4.965a.251.251,0,1,1,.417.281c-.919,1.363-.687,2.826.691,4.346a.251.251,0,0,1-.018.355A.248.248,0,0,1,939.463,1938.118Z" transform="translate(-927.057 -1909.107)" fill="#663535"/>
      <g id="Group_1038" data-name="Group 1038" transform="translate(11.209 28.229)">
        <path id="Path_1102" data-name="Path 1102" d="M950.5,2054.179c.141-.131.877-.861,1.023-1.017.256.242.7.672.955.958a10,10,0,0,1-1.872,1.9C950.423,2055.838,949.946,2055.273,950.5,2054.179Z" transform="translate(-950.21 -2053.162)" fill="#3ccde5"/>
        <path id="Path_1103" data-name="Path 1103" d="M952.321,2068.346c-.258-.182-.631.152-.566.39a.541.541,0,0,0,.151.3c.171.117.357-.056.453-.155A.367.367,0,0,0,952.321,2068.346Zm-.26,2.251a9.989,9.989,0,0,0,1.872-1.9c-.025-.029-.132-.135-.16-.166a22.7,22.7,0,0,1-1.863,1.912C951.937,2070.477,952.041,2070.578,952.062,2070.6Z" transform="translate(-951.662 -2067.744)" fill="#1fa3c1"/>
        <path id="Path_1104" data-name="Path 1104" d="M951.1,2069.055a.566.566,0,0,0,.156.305c.173.121.358-.053.453-.152a.375.375,0,0,0-.045-.542C951.4,2068.479,951.031,2068.814,951.1,2069.055Z" transform="translate(-951.03 -2068.05)" fill="#3ccde5"/>
        <path id="Path_1105" data-name="Path 1105" d="M949.516,2085.941a.477.477,0,0,1,.371-.13.057.057,0,0,0,.045-.017.055.055,0,0,0,.015-.034.056.056,0,0,0-.051-.061.605.605,0,0,0-.462.164.054.054,0,0,0,0,.08A.057.057,0,0,0,949.516,2085.941Zm-.116.26a.056.056,0,0,0,.079-.005.4.4,0,0,1,.344-.124.056.056,0,0,0,.046-.017.055.055,0,0,0,.015-.034.056.056,0,0,0-.051-.061.5.5,0,0,0-.439.162A.056.056,0,0,0,949.4,2086.2Z" transform="translate(-949.38 -2084.515)" fill="#e2e6ed"/>
      </g>
      <path id="Path_1106" data-name="Path 1106" d="M767.462,1434.549q-.48-.134-.9-2.02a16.081,16.081,0,0,1-.421-2.32,7.754,7.754,0,0,1,1.528-5.008,18.646,18.646,0,0,1,3.865-3.558q.945-.664.757-1.091a.921.921,0,0,0-.764-.52,1.9,1.9,0,0,0-1.157.194.829.829,0,0,0-.431,1.025.814.814,0,0,1-.085.52,1.71,1.71,0,0,1-1.188.668,9.762,9.762,0,0,1-1.87.24,7.588,7.588,0,0,1-1.216-.048,2.344,2.344,0,0,1-1.1-.457q-.62-.443-.272-2.053a8.472,8.472,0,0,1,.766-2.33,7.493,7.493,0,0,1,3.818-3.264,7.861,7.861,0,0,1,4.958-.342,6.994,6.994,0,0,1,3.976,2.9,5.371,5.371,0,0,1,.914,4.767,5.286,5.286,0,0,1-2.457,3.232,7.4,7.4,0,0,0-2.618,2.349q1.57-.418,3.135-.862a16.751,16.751,0,0,1,2.089-.5q.491-.092,1,.568a6.385,6.385,0,0,1,.864,1.562,8.06,8.06,0,0,1,.487,1.8,1.861,1.861,0,0,1-.133,1.276,6.973,6.973,0,0,1-2.129.777q-1.984.558-4.384,1.137t-4.507,1.009A11.156,11.156,0,0,1,767.462,1434.549Z" transform="translate(-759.605 -1408.944)" fill="#3ccde5"/>
      <path id="Path_1107" data-name="Path 1107" d="M933.086,1463.995c-.308.073-.742-.121-1-.714a.1.1,0,0,1,.179-.079c.216.491.545.658.775.6.263-.062.418-.393.4-.861a.1.1,0,0,1,.094-.1.1.1,0,0,1,.1.094C933.658,1463.614,933.369,1463.928,933.086,1463.995Z" transform="translate(-921.495 -1456.074)" fill="#2c6777"/>
      <path id="Path_1108" data-name="Path 1108" d="M967.133,1280.787a.13.13,0,0,1-.122-.034,1.4,1.4,0,0,0-1-.351,1.625,1.625,0,0,0-1.14.431.13.13,0,0,1-.186-.182,1.889,1.889,0,0,1,1.324-.509,1.659,1.659,0,0,1,1.182.427.13.13,0,0,1,0,.184A.129.129,0,0,1,967.133,1280.787Z" transform="translate(-952.887 -1280.015)" fill="#2c6777"/>
      <path id="Path_1109" data-name="Path 1109" d="M799.309,1326.6a.13.13,0,0,1-.15-.178,1.891,1.891,0,0,1,1.054-.95,1.66,1.66,0,0,1,1.256-.026.13.13,0,0,1-.106.238,1.4,1.4,0,0,0-1.056.03,1.627,1.627,0,0,0-.91.811A.13.13,0,0,1,799.309,1326.6Z" transform="translate(-793.401 -1323.568)" fill="#2c6777"/>
      <g id="Group_1039" data-name="Group 1039" transform="translate(5.987 3.65)">
        <path id="Path_1110" data-name="Path 1110" d="M811.713,1380.456a2.13,2.13,0,1,1-2.57-1.571A2.13,2.13,0,0,1,811.713,1380.456Z" transform="translate(-807.448 -1378.761)" fill="#fff"/>
        <path id="Path_1111" data-name="Path 1111" d="M808.441,1381.375a2.195,2.195,0,1,1,1.619-2.649A2.2,2.2,0,0,1,808.441,1381.375Zm-1-4.141a2.065,2.065,0,1,0,2.492,1.523A2.067,2.067,0,0,0,807.442,1377.234Z" transform="translate(-805.731 -1377.047)" fill="#2c6777"/>
        <path id="Path_1112" data-name="Path 1112" d="M856.3,1427.945a.128.128,0,0,1-.054,0,.13.13,0,0,1-.1-.151.963.963,0,0,1,.672-.734.953.953,0,0,1,.968.228.13.13,0,0,1-.182.186.677.677,0,0,0-.708-.165.7.7,0,0,0-.495.532A.13.13,0,0,1,856.3,1427.945Z" transform="translate(-854.31 -1425.197)" fill="#1f444c"/>
      </g>
      <g id="Group_1040" data-name="Group 1040" transform="translate(11.276 2.277)">
        <path id="Path_1113" data-name="Path 1113" d="M957.208,1342.685a2.13,2.13,0,1,1-2.57-1.571A2.13,2.13,0,0,1,957.208,1342.685Z" transform="translate(-952.943 -1340.99)" fill="#fff"/>
        <path id="Path_1114" data-name="Path 1114" d="M953.937,1343.6a2.2,2.2,0,1,1,1.618-2.649A2.2,2.2,0,0,1,953.937,1343.6Zm-1-4.141a2.065,2.065,0,1,0,2.492,1.523A2.067,2.067,0,0,0,952.938,1339.461Z" transform="translate(-951.227 -1339.273)" fill="#2c6777"/>
        <path id="Path_1115" data-name="Path 1115" d="M982.991,1396.732a.13.13,0,0,1-.134-.047.7.7,0,0,0-.683-.248.683.683,0,0,0-.554.47.13.13,0,0,1-.247-.082.95.95,0,0,1,.758-.645.963.963,0,0,1,.933.347.13.13,0,0,1-.024.182A.126.126,0,0,1,982.991,1396.732Z" transform="translate(-980.271 -1394.097)" fill="#1f444c"/>
      </g>
      <g id="Group_1041" data-name="Group 1041" transform="translate(5.581 9.219)">
        <path id="Path_1116" data-name="Path 1116" d="M1079.9,1800.89a.313.313,0,1,0-.231.378A.313.313,0,0,0,1079.9,1800.89Z" transform="translate(-1068.93 -1790.819)" fill="#1fa3c1"/>
        <path id="Path_1117" data-name="Path 1117" d="M841.762,1595.692c-.464.334-.927.668-1.4.983a22.117,22.117,0,0,1-7.326,3.116q-.13.3-.234.609c.059-.012.119-.021.177-.034a22.369,22.369,0,0,0,7.684-3.236c.481-.319.95-.657,1.419-.995a21.576,21.576,0,0,1,2.932-1.878,5.244,5.244,0,0,0,.051-.632A20.146,20.146,0,0,0,841.762,1595.692Z" transform="translate(-831.41 -1591.321)" fill="#1fa3c1"/>
        <path id="Path_1118" data-name="Path 1118" d="M811.728,1540.762a.232.232,0,1,0,.28.171A.232.232,0,0,0,811.728,1540.762Z" transform="translate(-810.933 -1540.372)" fill="#1fa3c1"/>
        <path id="Path_1119" data-name="Path 1119" d="M1076.6,1836.967a.586.586,0,1,0-.027-.828A.586.586,0,0,0,1076.6,1836.967Z" transform="translate(-1066.172 -1824.84)" fill="#1fa3c1"/>
        <path id="Path_1120" data-name="Path 1120" d="M1076.715,1530.912a.348.348,0,1,0-.42-.257A.348.348,0,0,0,1076.715,1530.912Z" transform="translate(-1066.045 -1530.226)" fill="#1fa3c1"/>
        <path id="Path_1121" data-name="Path 1121" d="M894.239,1578.658a.4.4,0,1,0-.293.48A.4.4,0,0,0,894.239,1578.658Z" transform="translate(-889.86 -1576.604)" fill="#1fa3c1"/>
        <path id="Path_1122" data-name="Path 1122" d="M870.339,1535.546a18.525,18.525,0,0,1-5.319,2.773q-.353.382-.672.775a19.135,19.135,0,0,0,6.322-3.114l.28-.213c1.272-.969,2.863-2.176,4.258-3.053-.058-.174-.121-.348-.2-.52-1.442.9-3.083,2.142-4.391,3.139Z" transform="translate(-861.81 -1532.122)" fill="#1fa3c1"/>
        <path id="Path_1123" data-name="Path 1123" d="M899.805,1887.218a.529.529,0,1,0,.39-.638A.529.529,0,0,0,899.805,1887.218Z" transform="translate(-895.966 -1873.611)" fill="#1fa3c1"/>
        <path id="Path_1124" data-name="Path 1124" d="M859.551,1800.542a1.843,1.843,0,0,0,.133-1.276,8.06,8.06,0,0,0-.487-1.8c-.045-.113-.093-.221-.141-.328-.837.543-1.933,1.3-2.468,1.683-.464.334-.927.668-1.4.983a22.116,22.116,0,0,1-7.5,3.158c-.691.149-1.4.265-2.1.376.136.278.277.443.421.484a11.156,11.156,0,0,0,2.519-.358q2.107-.43,4.507-1.009t4.384-1.137A6.919,6.919,0,0,0,859.551,1800.542Z" transform="translate(-843.736 -1787.437)" fill="#1fa3c1"/>
        <path id="Path_1125" data-name="Path 1125" d="M968.692,1805.328a.39.39,0,1,0,.287-.47A.39.39,0,0,0,968.692,1805.328Z" transform="translate(-962.352 -1794.864)" fill="#1fa3c1"/>
        <path id="Path_1126" data-name="Path 1126" d="M794.586,1566.346a.529.529,0,1,0,.39-.638A.529.529,0,0,0,794.586,1566.346Z" transform="translate(-794.572 -1564.403)" fill="#1fa3c1"/>
        <path id="Path_1127" data-name="Path 1127" d="M824.448,1670.794a22.353,22.353,0,0,0,6.99-2.8,10.936,10.936,0,0,1,1.144-.775,5.216,5.216,0,0,0,1.957-2.011c-.445.3-.88.6-1.306.911-.464.334-.927.668-1.4.983a22.117,22.117,0,0,1-7.5,3.157c-.542.117-1.095.212-1.644.3q-.048.277-.079.566C823.22,1671.03,823.838,1670.925,824.448,1670.794Z" transform="translate(-821.59 -1660.302)" fill="#1fa3c1"/>
        <path id="Path_1128" data-name="Path 1128" d="M1028.435,1856.993a.2.2,0,1,0,.148-.242A.2.2,0,0,0,1028.435,1856.993Z" transform="translate(-1019.928 -1844.875)" fill="#1fa3c1"/>
      </g>
    </g>
    <g id="Group_1610" data-name="Group 1610" transform="translate(8678.387 1034.306)">
      <path id="Path_1129" data-name="Path 1129" d="M672.148,2498.23a.251.251,0,0,1-.275-.417c1.476-1.218,1.776-3.9.682-6.109a.264.264,0,0,1,.114-.337.251.251,0,0,1,.337.114c1.213,2.448.864,5.338-.813,6.72A.263.263,0,0,1,672.148,2498.23Z" transform="translate(-659.747 -2488.49)" fill="#663535"/>
      <path id="Path_1130" data-name="Path 1130" d="M747.709,3007.92a.251.251,0,0,1-.353-.3l.038-.111c.424-1.232.9-2.628-1.353-3.923a.251.251,0,1,1,.25-.436c2.617,1.5,1.992,3.32,1.578,4.522l-.038.11A.251.251,0,0,1,747.709,3007.92Z" transform="translate(-731.186 -2981.658)" fill="#663535"/>
      <path id="Path_1131" data-name="Path 1131" d="M825.182,2945.961a.251.251,0,0,1-.364-.191c-.264-2.035-1.227-3.16-2.861-3.344a.251.251,0,1,1,.056-.5c1.867.21,3.009,1.517,3.3,3.779A.252.252,0,0,1,825.182,2945.961Z" transform="translate(-804.248 -2922.695)" fill="#663535"/>
      <path id="Path_1132" data-name="Path 1132" d="M383.964,2565.844q.075.573-1.834,2.038a8.757,8.757,0,0,1-2.969,1.694q-.515.113-2.45-2.475T372.7,2561.8q-.48.762-1.006,1.492a3.109,3.109,0,0,1-.725.824q-.463.342-2.366-.57a7.921,7.921,0,0,1-2.61-1.76q-.319-.386.216-2.258a48.245,48.245,0,0,1,1.805-4.865,4.638,4.638,0,0,1,1.087-1.377,13.36,13.36,0,0,1,1.889-1.5,8.071,8.071,0,0,1,1.992-.982q.966-.306,1.4.183,1.218,1.395,2.88,3.706t3.156,4.631q1.495,2.32,2.527,4.182A7.02,7.02,0,0,1,383.964,2565.844Z" transform="translate(-364.961 -2545.672)" fill="#f25353"/>
      <path id="Path_1133" data-name="Path 1133" d="M481.3,2413.321a.13.13,0,0,1-.127.006,1.4,1.4,0,0,0-1.056-.019,1.625,1.625,0,0,0-.946.768.13.13,0,0,1-.233-.114,1.889,1.889,0,0,1,1.1-.9,1.657,1.657,0,0,1,1.256.033.13.13,0,0,1,.01.227Z" transform="translate(-473.898 -2412.955)" fill="#701608"/>
      <path id="Path_1134" data-name="Path 1134" d="M340.928,2507.107a.13.13,0,0,1-.2-.122,1.89,1.89,0,0,1,.7-1.233,1.66,1.66,0,0,1,1.184-.42.13.13,0,0,1-.025.259,1.4,1.4,0,0,0-.993.361,1.626,1.626,0,0,0-.608,1.056A.13.13,0,0,1,340.928,2507.107Z" transform="translate(-340.729 -2501.969)" fill="#701608"/>
      <g id="Group_1043" data-name="Group 1043" transform="translate(1.047 4.895)">
        <path id="Path_1135" data-name="Path 1135" d="M375.246,2550.381a2.13,2.13,0,1,1-2.934-.682A2.13,2.13,0,0,1,375.246,2550.381Z" transform="translate(-371.244 -2549.313)" fill="#fff"/>
        <path id="Path_1136" data-name="Path 1136" d="M413.209,2592.7a.706.706,0,1,1-.973-.226A.707.707,0,0,1,413.209,2592.7Z" transform="translate(-410.363 -2590.736)" fill="#701608"/>
        <path id="Path_1137" data-name="Path 1137" d="M372.9,2551.672a2.195,2.195,0,1,1,.7-3.024A2.2,2.2,0,0,1,372.9,2551.672Zm-2.252-3.616a2.065,2.065,0,1,0,2.845.661A2.067,2.067,0,0,0,370.646,2548.056Z" transform="translate(-369.543 -2547.615)" fill="#701608"/>
      </g>
      <g id="Group_1044" data-name="Group 1044" transform="translate(5.635 1.927)">
        <path id="Path_1138" data-name="Path 1138" d="M501.45,2468.725a2.13,2.13,0,1,1-2.934-.682A2.13,2.13,0,0,1,501.45,2468.725Z" transform="translate(-497.448 -2467.657)" fill="#fff"/>
        <path id="Path_1139" data-name="Path 1139" d="M499.1,2470.014a2.2,2.2,0,1,1,.7-3.024A2.2,2.2,0,0,1,499.1,2470.014Zm-2.253-3.616a2.065,2.065,0,1,0,2.845.661A2.067,2.067,0,0,0,496.851,2466.4Z" transform="translate(-495.748 -2465.956)" fill="#701608"/>
      </g>
      <path id="Path_1140" data-name="Path 1140" d="M534.059,2513.39a.706.706,0,1,0,.226-.973A.706.706,0,0,0,534.059,2513.39Z" transform="translate(-526.928 -2508.698)" fill="#701608"/>
      <path id="Path_1141" data-name="Path 1141" d="M412.1,2604.442a.251.251,0,1,1-.346-.08A.251.251,0,0,1,412.1,2604.442Z" transform="translate(-409.062 -2597.367)" fill="#fff"/>
      <path id="Path_1142" data-name="Path 1142" d="M535.1,2527.161a.251.251,0,1,1-.346-.081A.251.251,0,0,1,535.1,2527.161Z" transform="translate(-527.59 -2522.895)" fill="#fff"/>
      <path id="Path_1143" data-name="Path 1143" d="M555.164,2710.209a6.721,6.721,0,0,1-3.8.641.251.251,0,0,1,.051-.5,5.61,5.61,0,0,0,6.38-4.459.251.251,0,0,1,.488.119A6.18,6.18,0,0,1,555.164,2710.209Z" transform="translate(-543.491 -2695.057)" fill="#663535"/>
      <path id="Path_1144" data-name="Path 1144" d="M712.612,2636.723c.059.041.172.011.35-.03a1.133,1.133,0,0,1,.49-.053c.115.045.057.16-.1.257-.26.16-.861.5-1.17.65a1.055,1.055,0,0,1-1.43-.29c-.362-.679-.458-.966-.664-1.392-.051-.1.226-.124.349-.019.264.224.259.353.4.457s.257,0,.344-.146c.206-.829.232-1.322.492-1.395.222-.028.161.558.059,1.217.382-.638.741-1.123.9-1.012.182.132-.027.7-.38,1.215.515-.27.956-.61,1.11-.437C713.5,2635.9,712.445,2636.609,712.612,2636.723Z" transform="translate(-696.655 -2626.698)" fill="#f25353"/>
      <g id="Group_1045" data-name="Group 1045" transform="translate(5.459 7.186)">
        <path id="Path_1145" data-name="Path 1145" d="M491.163,2613.308a2.164,2.164,0,0,0,3.318-2.346c-.539-.939-.969.356-1.859.924S490.327,2612.527,491.163,2613.308Z" transform="translate(-490.907 -2610.63)" fill="#560a02"/>
        <path id="Path_1146" data-name="Path 1146" d="M530.406,2657.671a2.124,2.124,0,0,1,1.332-.457,2.416,2.416,0,0,1-.816.993,2.232,2.232,0,0,1-1.32.425A2.134,2.134,0,0,1,530.406,2657.671Z" transform="translate(-528.195 -2655.516)" fill="#fc8983"/>
        <path id="Path_1147" data-name="Path 1147" d="M502.6,2618.454c.235-.257.788-.354,1.231-.637.5-.319.766-.811,1.122-.945.053.337-.282.853-.839,1.247C503.512,2618.541,502.869,2618.676,502.6,2618.454Z" transform="translate(-502.171 -2616.645)" fill="#fff"/>
      </g>
      <g id="Group_1046" data-name="Group 1046" transform="translate(2.488 11.523)">
        <path id="Path_1148" data-name="Path 1148" d="M412.722,2730.332a.218.218,0,1,0-.307-.038A.218.218,0,0,0,412.722,2730.332Z" transform="translate(-412.253 -2729.941)" fill="#c12727"/>
        <path id="Path_1149" data-name="Path 1149" d="M409.258,2797.389a.241.241,0,1,0,.338.042A.241.241,0,0,0,409.258,2797.389Z" transform="translate(-409.165 -2794.887)" fill="#c12727"/>
        <path id="Path_1150" data-name="Path 1150" d="M481.648,2783a.444.444,0,1,0,.624.076A.444.444,0,0,0,481.648,2783Z" transform="translate(-478.848 -2780.977)" fill="#c12727"/>
        <path id="Path_1151" data-name="Path 1151" d="M486.339,2834.912a.7.7,0,1,0-.983-.121A.7.7,0,0,0,486.339,2834.912Z" transform="translate(-482.442 -2829.889)" fill="#c12727"/>
        <path id="Path_1152" data-name="Path 1152" d="M689.9,2756.958a.241.241,0,1,0,.042-.338A.241.241,0,0,0,689.9,2756.958Z" transform="translate(-679.641 -2755.6)" fill="#c12727"/>
        <path id="Path_1153" data-name="Path 1153" d="M663.217,2795.7c.11-.385.2-.78.3-1.174q-.16-.253-.327-.513c-.021.085-.043.171-.063.256-.1.4-.193.81-.305,1.2a12.272,12.272,0,0,1-2.673,4.9c-.311.341-.648.666-.979.981l.291.388c.343-.327.693-.664,1.018-1.02A12.407,12.407,0,0,0,663.217,2795.7Z" transform="translate(-650.08 -2791.682)" fill="#c12727"/>
        <path id="Path_1154" data-name="Path 1154" d="M693.719,2856a8.738,8.738,0,0,0,2.969-1.694q1.909-1.464,1.834-2.038a7.019,7.019,0,0,0-1.013-2.346q-.525-.948-1.171-2.015c-.073.3-.147.6-.231.9a12.053,12.053,0,0,1-2.663,4.884c-.35.385-.735.751-1.107,1.106l-.038.036Q693.357,2856.075,693.719,2856Z" transform="translate(-682.007 -2843.616)" fill="#c12727"/>
        <path id="Path_1155" data-name="Path 1155" d="M627.769,2760.626a16.956,16.956,0,0,0,3.28-4.888c.279-.622.536-1.249.792-1.875.055-.135.116-.273.172-.409-.122-.186-.243-.372-.367-.558q-.185.44-.363.876c-.254.619-.507,1.239-.782,1.853a16.443,16.443,0,0,1-3.052,4.576Z" transform="translate(-619.514 -2752.062)" fill="#c12727"/>
        <path id="Path_1156" data-name="Path 1156" d="M615.587,2738.883a.41.41,0,1,0-.576-.071A.41.41,0,0,0,615.587,2738.883Z" transform="translate(-607.443 -2737.851)" fill="#c12727"/>
      </g>
      <path id="Path_1157" data-name="Path 1157" d="M655.4,2433.808c.071-.006.14-.1.251-.245.1-.125.236-.316.346-.352s.145.088.085.262c-.1.289-.349.933-.494,1.244a1.055,1.055,0,0,1-1.29.681c-.711-.3-.966-.458-1.4-.657-.106-.049.1-.239.258-.236.346.006.424.108.6.1s.2-.16.174-.331c-.366-.772-.658-1.17-.5-1.391.154-.162.477.33.816.9-.109-.736-.138-1.338.052-1.35.224-.013.422.559.476,1.181.227-.535.353-1.078.582-1.041C655.562,2432.61,655.2,2433.826,655.4,2433.808Z" transform="translate(-641.523 -2431.729)" fill="#f25353"/>
      <g id="Group_1047" data-name="Group 1047" transform="translate(15.54 25.449)">
        <path id="Path_1158" data-name="Path 1158" d="M770.059,3113.556c-.181-.065-1.143-.453-1.338-.539-.142.322-.388.893-.508,1.253a9.986,9.986,0,0,0,2.462,1.02C770.778,3115.053,771,3114.348,770.059,3113.556Z" transform="translate(-768.213 -3113.017)" fill="#f25353"/>
        <path id="Path_1159" data-name="Path 1159" d="M769.733,3118.1c.127.054.365.142.477-.033a.54.54,0,0,0,.023-.334c-.032-.244-.505-.407-.673-.139A.366.366,0,0,0,769.733,3118.1Zm1.022,1.27a22.651,22.651,0,0,1-2.459-1.038c-.014.04-.071.179-.084.215a9.986,9.986,0,0,0,2.462,1.02C770.686,3119.542,770.743,3119.41,770.756,3119.372Z" transform="translate(-768.213 -3117.296)" fill="#c12727"/>
        <path id="Path_1160" data-name="Path 1160" d="M805.412,3117.716a.566.566,0,0,1-.025.342c-.113.179-.351.091-.477.036a.375.375,0,0,1-.169-.516A.39.39,0,0,1,805.412,3117.716Z" transform="translate(-803.365 -3117.274)" fill="#f25353"/>
        <path id="Path_1161" data-name="Path 1161" d="M814.8,3132.791a.056.056,0,0,0,.074-.029.054.054,0,0,0-.03-.074.606.606,0,0,0-.489.029.056.056,0,0,0-.023.076.055.055,0,0,0,.027.025.056.056,0,0,0,.049,0A.478.478,0,0,1,814.8,3132.791Zm.182.12a.5.5,0,0,0-.467.021.056.056,0,0,0-.023.076.055.055,0,0,0,.027.025.056.056,0,0,0,.049,0,.4.4,0,0,1,.366-.019.056.056,0,1,0,.049-.1Z" transform="translate(-812.645 -3131.936)" fill="#e2e6ed"/>
      </g>
      <g id="Group_1048" data-name="Group 1048" transform="translate(20.294 22.413)">
        <path id="Path_1162" data-name="Path 1162" d="M900.418,3037.668c-.191.023-1.225.109-1.437.12.018.352.055.972.109,1.348a9.984,9.984,0,0,0,2.658-.2C901.733,3038.682,901.613,3037.953,900.418,3037.668Z" transform="translate(-898.981 -3037.371)" fill="#f25353"/>
        <path id="Path_1163" data-name="Path 1163" d="M902.566,3030.521c.137-.009.39-.038.412-.244a.543.543,0,0,0-.13-.309c-.138-.2-.634-.137-.663.178A.366.366,0,0,0,902.566,3030.521Zm1.484.675a22.714,22.714,0,0,1-2.663.178c.005.042.016.192.022.229a9.984,9.984,0,0,0,2.658-.2C904.065,3031.379,904.056,3031.235,904.05,3031.2Z" transform="translate(-901.3 -3029.838)" fill="#c12727"/>
        <path id="Path_1164" data-name="Path 1164" d="M924.68,3029.605a.566.566,0,0,1,.132.316c-.02.21-.273.239-.41.246a.375.375,0,0,1-.383-.385A.39.39,0,0,1,924.68,3029.605Z" transform="translate(-923.107 -3029.485)" fill="#f25353"/>
        <path id="Path_1165" data-name="Path 1165" d="M938.221,3038.7a.056.056,0,0,0,.053-.059.054.054,0,0,0-.06-.053.606.606,0,0,0-.424.246.056.056,0,1,0,.091.065A.478.478,0,0,1,938.221,3038.7Zm.217.025a.5.5,0,0,0-.408.229.056.056,0,0,0,.013.078.055.055,0,0,0,.036.01.056.056,0,0,0,.043-.023.4.4,0,0,1,.318-.181.056.056,0,1,0,0-.112Z" transform="translate(-936.37 -3038.252)" fill="#e2e6ed"/>
      </g>
    </g>
    <g id="Group_1611" data-name="Group 1611" transform="translate(8681.776 976.18)">
      <path id="Path_1286" data-name="Path 1286" d="M552.643,814.171a120.848,120.848,0,0,1-13.223,10.266l-.756-5.374C538.836,818.587,552.446,813.823,552.643,814.171Z" transform="translate(-534.858 -814.148)" fill="#7aa40a"/>
      <path id="Path_1287" data-name="Path 1287" d="M571.942,844.783a60.8,60.8,0,0,1-12.472,9.156l1.371-3.658C561.294,850.1,571.744,844.435,571.942,844.783Z" transform="translate(-554.908 -843.65)" fill="#5b960a"/>
      <path id="Path_1288" data-name="Path 1288" d="M451.753,814.652a109.137,109.137,0,0,1-13.979,4.892l-3.806-1.457C435.522,817.707,450.2,814.937,451.753,814.652Z" transform="translate(-433.968 -814.629)" fill="#94cf24"/>
      <path id="Path_1289" data-name="Path 1289" d="M609.14,814.019s-2.307,2.957-7.556,9.141l-4.412-2.51C597.872,820.116,607.984,814.623,609.14,814.019Z" transform="translate(-591.239 -814.019)" fill="#94cf24"/>
    </g>
    <g id="Group_1612" data-name="Group 1612" transform="translate(8678.385 1004.53)">
      <g id="Group_1068" data-name="Group 1068" transform="translate(0 4.822)">
        <path id="Path_1290" data-name="Path 1290" d="M342.835,1738.891a3.04,3.04,0,0,1,.89-5.954l1.784-6-.112-.033.12-.4,1.843.548-.12.4-.112-.033-1.784,6a3.04,3.04,0,0,1-2.508,5.473Zm2.808-12.122.112.033-1.884,6.334-.077,0a2.842,2.842,0,1,0,1.385.412l-.067-.039,1.884-6.334.112.033.007-.023-1.465-.436Z" transform="translate(-340.663 -1726.502)" fill="#eaeaea"/>
        <path id="Path_1291" data-name="Path 1291" d="M350.9,1733.262l.112.033-1.884,6.334-.077,0a2.842,2.842,0,1,0,1.385.412l-.067-.039,1.884-6.334.112.033.007-.023-1.465-.436Z" transform="translate(-345.917 -1732.995)" fill="#17bcc9" opacity="0.27"/>
        <path id="Path_1292" data-name="Path 1292" d="M351.913,1952.277a2.562,2.562,0,0,0-.208.5,2.645,2.645,0,0,0,5.071,1.508,2.535,2.535,0,0,0,.1-.533Z" transform="translate(-351.198 -1944.07)" fill="#ed3b3b"/>
      </g>
      <g id="Group_1069" data-name="Group 1069" transform="translate(3.789 5.707)">
        <rect id="Rectangle_325" data-name="Rectangle 325" width="0.113" height="0.744" transform="translate(1 2.524) rotate(-72.653)" fill="#093b42"/>
        <rect id="Rectangle_326" data-name="Rectangle 326" width="0.113" height="0.744" transform="translate(0.751 3.324) rotate(-72.654)" fill="#093b42"/>
        <rect id="Rectangle_327" data-name="Rectangle 327" width="0.113" height="0.744" transform="matrix(0.298, -0.954, 0.954, 0.298, 0.499, 4.127)" fill="#093b42"/>
        <rect id="Rectangle_328" data-name="Rectangle 328" width="0.113" height="0.744" transform="translate(0.25 4.927) rotate(-72.65)" fill="#093b42"/>
        <rect id="Rectangle_329" data-name="Rectangle 329" width="0.113" height="0.744" transform="matrix(0.298, -0.954, 0.954, 0.298, 0, 5.726)" fill="#093b42"/>
        <rect id="Rectangle_330" data-name="Rectangle 330" width="0.113" height="0.744" transform="translate(1.707 0.108) rotate(-72.648)" fill="#093b42"/>
        <rect id="Rectangle_331" data-name="Rectangle 331" width="0.113" height="0.744" transform="translate(1.456 0.912) rotate(-72.653)" fill="#093b42"/>
        <rect id="Rectangle_332" data-name="Rectangle 332" width="0.113" height="0.744" transform="translate(1.206 1.712) rotate(-72.654)" fill="#093b42"/>
        <rect id="Rectangle_333" data-name="Rectangle 333" width="0.113" height="0.744" transform="translate(0.956 2.511) rotate(-72.654)" fill="#093b42"/>
      </g>
      <path id="Path_1293" data-name="Path 1293" d="M418.619,1987.287a.6.6,0,1,1-.406-.75A.6.6,0,0,1,418.619,1987.287Z" transform="translate(-414.646 -1972.237)" fill="#fff" opacity="0.42"/>
      <path id="Path_1294" data-name="Path 1294" d="M416.388,1940.525a.332.332,0,1,1-.223-.412A.331.331,0,0,1,416.388,1940.525Z" transform="translate(-413.01 -1927.512)" fill="#ed3b3b"/>
      <path id="Path_1295" data-name="Path 1295" d="M469.009,1650.9a.591.591,0,1,1-.4-.735A.591.591,0,0,1,469.009,1650.9Z" transform="translate(-463.227 -1648.098)" fill="#ed3b3b"/>
      <path id="Path_1296" data-name="Path 1296" d="M539.085,1595.058a.935.935,0,1,1-.63-1.163A.935.935,0,0,1,539.085,1595.058Z" transform="translate(-530.107 -1593.856)" fill="#ed3b3b"/>
    </g>
    <g id="Group_1613" data-name="Group 1613" transform="translate(8695.571 1024.41)">
      <g id="Group_1075" data-name="Group 1075" transform="translate(0.27 5.862)">
        <g id="Group_1071" data-name="Group 1071">
          <path id="Path_1297" data-name="Path 1297" d="M822.553,2305.027a.459.459,0,0,1,.257.007.555.555,0,0,1,.311.251l2.366,3.758.618,5.979a.819.819,0,0,0,.44.7.8.8,0,0,0,.853.024l4.908-3.138a.792.792,0,0,0,.336-.784.821.821,0,0,0-.446-.691l-5.171-3.069-2.469-3.692a.58.58,0,0,1-.1-.388.426.426,0,0,1,.1-.236Z" transform="translate(-822.492 -2303.678)" fill="#17bcc9" opacity="0.27"/>
          <path id="Path_1298" data-name="Path 1298" d="M830.723,2310.94l-4.908,3.137a.857.857,0,0,1-.917-.023.877.877,0,0,1-.469-.74l-.617-5.966-2.359-3.747a.494.494,0,0,0-.277-.225.4.4,0,0,0-.223-.006.061.061,0,0,1-.049-.11l2.006-1.288a.06.06,0,0,1,.045-.008.061.061,0,0,1,.038.026.067.067,0,0,1,0,.077.364.364,0,0,0-.088.2.513.513,0,0,0,.087.347l2.461,3.682,5.159,3.062a.88.88,0,0,1,.476.736A.851.851,0,0,1,830.723,2310.94Zm-9.571-7.695a.525.525,0,0,1,.06.015.612.612,0,0,1,.346.278l2.365,3.758.009.025.619,5.979a.76.76,0,0,0,.411.649.737.737,0,0,0,.789.025l4.908-3.137a.732.732,0,0,0,.308-.726.764.764,0,0,0-.417-.646l-5.171-3.069-.02-.018-2.469-3.693a.633.633,0,0,1-.107-.428.451.451,0,0,1,.011-.066Zm2.719,4.082Z" transform="translate(-820.876 -2301.963)" fill="#3dbdd3"/>
        </g>
        <path id="Path_1299" data-name="Path 1299" d="M917.182,2452.838l-2.444,1.563.426,4.182a.713.713,0,0,0,1.011.607l4.773-3.052a.712.712,0,0,0-.132-1.174Z" transform="translate(-911.326 -2447.353)" fill="#ffc431"/>
        <g id="Group_1072" data-name="Group 1072" transform="translate(6.141 6.884)" opacity="0.61">
          <path id="Path_1300" data-name="Path 1300" d="M989.934,2491.371a.269.269,0,1,0,.377.078A.271.271,0,0,0,989.934,2491.371Z" transform="translate(-989.806 -2491.326)" fill="#fff"/>
        </g>
        <g id="Group_1073" data-name="Group 1073" transform="translate(5.204 8.302)" opacity="0.61">
          <path id="Path_1301" data-name="Path 1301" d="M964.781,2531.227a.475.475,0,1,1,.154-.662A.482.482,0,0,1,964.781,2531.227Z" transform="translate(-964.042 -2530.35)" fill="#fff"/>
        </g>
        <g id="Group_1074" data-name="Group 1074" transform="translate(6.609 8.294)" opacity="0.61">
          <path id="Path_1302" data-name="Path 1302" d="M1002.965,2530.193a.61.61,0,1,0,.834.191A.613.613,0,0,0,1002.965,2530.193Z" transform="translate(-1002.691 -2530.103)" fill="#fff"/>
        </g>
      </g>
      <rect id="Rectangle_334" data-name="Rectangle 334" width="0.665" height="0.125" transform="matrix(0.843, -0.539, 0.539, 0.843, 2.423, 8.295)" fill="#093b42"/>
      <rect id="Rectangle_335" data-name="Rectangle 335" width="0.665" height="0.125" transform="translate(2.919 9.071) rotate(-32.586)" fill="#093b42"/>
      <rect id="Rectangle_336" data-name="Rectangle 336" width="0.665" height="0.125" transform="matrix(0.842, -0.539, 0.539, 0.842, 3.418, 9.852)" fill="#093b42"/>
      <rect id="Rectangle_337" data-name="Rectangle 337" width="0.665" height="0.125" transform="matrix(0.842, -0.539, 0.539, 0.842, 3.915, 10.628)" fill="#093b42"/>
      <rect id="Rectangle_338" data-name="Rectangle 338" width="0.665" height="0.125" transform="matrix(0.842, -0.539, 0.539, 0.842, 4.411, 11.405)" fill="#093b42"/>
      <rect id="Rectangle_339" data-name="Rectangle 339" width="0.665" height="0.125" transform="translate(4.91 12.185) rotate(-32.585)" fill="#093b42"/>
      <rect id="Rectangle_340" data-name="Rectangle 340" width="0.665" height="0.125" transform="matrix(0.843, -0.539, 0.539, 0.843, 5.407, 12.962)" fill="#093b42"/>
      <rect id="Rectangle_341" data-name="Rectangle 341" width="0.665" height="0.125" transform="matrix(0.843, -0.539, 0.539, 0.843, 5.903, 13.738)" fill="#093b42"/>
      <rect id="Rectangle_342" data-name="Rectangle 342" width="0.665" height="0.125" transform="matrix(0.843, -0.539, 0.539, 0.843, 6.399, 14.515)" fill="#093b42"/>
      <rect id="Rectangle_343" data-name="Rectangle 343" width="0.665" height="0.125" transform="translate(6.899 15.295) rotate(-32.595)" fill="#093b42"/>
      <path id="Path_1303" data-name="Path 1303" d="M815.355,2224.979a1,1,0,1,1-1.32-.491A1,1,0,0,1,815.355,2224.979Z" transform="translate(-813.453 -2221.355)" fill="#ffc431"/>
      <path id="Path_1304" data-name="Path 1304" d="M848.016,2141.1a.651.651,0,1,1-.863-.321A.651.651,0,0,1,848.016,2141.1Z" transform="translate(-845.561 -2140.722)" fill="#ffc431"/>
    </g>
    <g id="Group_1615" data-name="Group 1615" transform="translate(8713.935 965.643)">
      <path id="Path_1325" data-name="Path 1325" d="M1415.112,524.172a99.58,99.58,0,0,1-11.022,8.631l-.518-4.677C1403.722,527.717,1414.957,523.866,1415.112,524.172Z" transform="translate(-1400.483 -524.154)" fill="#e59f00"/>
      <path id="Path_1326" data-name="Path 1326" d="M1428.22,550.313A49.948,49.948,0,0,1,1417.834,558l1.191-3.145C1419.4,554.7,1428.064,550.007,1428.22,550.313Z" transform="translate(-1414.226 -549.348)" fill="#c69100"/>
      <path id="Path_1327" data-name="Path 1327" d="M1333.214,524.63a85.884,85.884,0,0,1-11.54,3.954l-3.089-1.342C1319.865,526.945,1331.934,524.845,1333.214,524.63Z" transform="translate(-1318.585 -524.612)" fill="#ffca1a"/>
      <path id="Path_1328" data-name="Path 1328" d="M1460.528,524.147s-1.945,2.517-6.36,7.772l-3.566-2.268C1451.185,529.2,1459.57,524.647,1460.528,524.147Z" transform="translate(-1445.803 -524.147)" fill="#ffca1a"/>
    </g>
    <g id="Group_1614" data-name="Group 1614" transform="translate(8701.748 976.189)">
      <path id="Path_1329" data-name="Path 1329" d="M983.966,998.482h-.01q-.227-.01-.462-.027a.138.138,0,1,1,.02-.274c.154.012.305.02.453.026a.138.138,0,0,1,0,.275Z" transform="translate(-983.366 -991.494)" fill="#e59f00" fill-rule="evenodd"/>
      <path id="Path_1330" data-name="Path 1330" d="M1021.764,821.259h-.047a.138.138,0,1,1-.008-.275h.047c.3-.009.589-.034.871-.058a.138.138,0,1,1,.029.274C1022.367,821.23,1022.068,821.25,1021.764,821.259Zm1.8-.2a.138.138,0,0,1-.031-.272,7.714,7.714,0,0,0,.886-.228.137.137,0,1,1,.083.262,8.481,8.481,0,0,1-.915.236Zm1.768-.567a.138.138,0,0,1-.062-.262,6.182,6.182,0,0,0,.8-.44.138.138,0,0,1,.151.23,6.531,6.531,0,0,1-.831.46A.137.137,0,0,1,1025.333,820.493Zm1.549-1.019a.137.137,0,0,1-.1-.239,5.182,5.182,0,0,0,.612-.667.138.138,0,0,1,.219.167,5.459,5.459,0,0,1-.646.7A.137.137,0,0,1,1026.882,819.474Zm1.124-1.471a.136.136,0,0,1-.065-.015.138.138,0,0,1-.062-.185,4.6,4.6,0,0,0,.209-.485,3.022,3.022,0,0,1-.711-.346.138.138,0,1,1,.153-.229,2.806,2.806,0,0,0,.643.314c.009-.032.018-.064.026-.1a.138.138,0,0,1,.266.07c-.013.05-.027.1-.042.15a.136.136,0,0,1,.008.1.139.139,0,0,1-.066.083,4.742,4.742,0,0,1-.24.567A.138.138,0,0,1,1028.005,818Zm1.477-.489q-.136,0-.269,0a.138.138,0,0,1-.134-.142.133.133,0,0,1,.141-.134,4.468,4.468,0,0,0,.9-.064.138.138,0,1,1,.046.271A5.062,5.062,0,0,1,1029.482,817.513Zm1.567-.3a.137.137,0,0,1-.049-.267,6.234,6.234,0,0,0,.837-.358.138.138,0,1,1,.126.245,6.416,6.416,0,0,1-.874.373A.141.141,0,0,1,1031.049,817.216Zm1.653-.844a.138.138,0,0,1-.082-.251,7.652,7.652,0,0,0,.719-.565.138.138,0,1,1,.183.206,7.986,7.986,0,0,1-.745.585A.137.137,0,0,1,1032.7,816.372Zm-5.91-.021a.138.138,0,0,1-.116-.057,1.846,1.846,0,0,1-.373-.921.136.136,0,0,1,.126-.148.14.14,0,0,1,.148.126,1.587,1.587,0,0,0,.323.782.137.137,0,0,1-.108.218Zm1.668-.137a.139.139,0,0,1-.139-.138c0-.034,0-.069,0-.1a2.1,2.1,0,0,0-.148-.754.138.138,0,0,1,.254-.107,2.369,2.369,0,0,1,.169.853c0,.037,0,.075,0,.112A.139.139,0,0,1,1028.461,816.214Zm-1.662-1.528a.138.138,0,0,1-.083-.251.972.972,0,0,1,.527-.172,1.071,1.071,0,0,1,.5.109.137.137,0,0,1-.118.248.8.8,0,0,0-.371-.081.7.7,0,0,0-.378.122A.138.138,0,0,1,1026.8,814.685Z" transform="translate(-1020.186 -814.263)" fill="#e59f00" fill-rule="evenodd"/>
      <path id="Path_1331" data-name="Path 1331" d="M1362.484,821.539a.138.138,0,0,1-.106-.23c.1-.11.2-.225.293-.344a.138.138,0,1,1,.214.173c-.1.122-.2.241-.3.354A.138.138,0,0,1,1362.484,821.539Z" transform="translate(-1348.565 -820.673)" fill="#e59f00" fill-rule="evenodd"/>
    </g>
    <path id="Path_3216" data-name="Path 3216" d="M846.45,410.189l1.709,2.308,2.87-.1-1.667,2.339.981,2.7-2.74-.863-2.264,1.768-.026-2.872-2.381-1.607,2.724-.912Z" transform="translate(7853.709 551.311)" fill="#f7d64b"/>
  </g>
</svg>
