<svg id="Group_1480" data-name="Group 1480" xmlns="http://www.w3.org/2000/svg" width="67.394" height="80.479" viewBox="0 0 67.394 80.479">
  <ellipse id="Ellipse_91" data-name="Ellipse 91" cx="32.617" cy="2.7" rx="32.617" ry="2.7" transform="translate(1.929 75.079)" fill="#7f6e65" opacity="0.11"/>
  <path id="Path_2413" data-name="Path 2413" d="M773.78,563.582l-1.974.725.889,2.4,3.321-1.3Z" transform="translate(-752.631 -533.135)" fill="#d4f4e7"/>
  <path id="Path_2414" data-name="Path 2414" d="M693.1,495.243a4.143,4.143,0,0,1-.478-1.232,6.546,6.546,0,0,1-.044-1.659l-4.214,1.053a13.61,13.61,0,0,1-.062,2.28,1.237,1.237,0,0,1-.446.564,11.871,11.871,0,0,0,1.275.991,13.945,13.945,0,0,0,3.292-.573c.166-.123.9-.973.9-.973Z" transform="translate(-664.266 -466.718)" fill="#f4c092"/>
  <path id="Path_2415" data-name="Path 2415" d="M699.071,505.024a2.792,2.792,0,0,0,2.188.283,2.863,2.863,0,0,0,2-1.472l-.024-.549a9.724,9.724,0,0,1-2.218.631,7.488,7.488,0,0,1-1.95.07Z" transform="translate(-674.958 -476.913)" fill="#e28140" opacity="0.63"/>
  <path id="Path_2416" data-name="Path 2416" d="M561.726,152.66a8.885,8.885,0,0,1-.018,1.949c-.137.794-1.14,2.533.423,4.653s5.066,3.531,9.349,2.853a9.317,9.317,0,0,0,6.825-4.431,13.935,13.935,0,0,0,.98-1.83,1.623,1.623,0,0,0,1.478.548,3.684,3.684,0,0,0,2.563-3.2c.227-2.042-1.087-2.2-1.492-2.352a1.17,1.17,0,0,0-.661-.09,9.466,9.466,0,0,0,.345-9.7c-2.9-5.077-11.074-6.02-16.584-2.018s-4.534,8.685-4.117,9.976A20.458,20.458,0,0,1,561.726,152.66Z" transform="translate(-545.685 -134.958)" fill="#f4c092"/>
  <path id="Path_2417" data-name="Path 2417" d="M778.348,387.492s.262-.528-.817-.566c-1.028-.036-1.242.195-1.223.387s-.156.266-.2.227c-.09-.075-.149-.059-.008-.534s1.281-.693,1.935-.423.734.656.557.846S778.348,387.492,778.348,387.492Z" transform="translate(-755.57 -367.988)" fill="#e28140" opacity="0.63"/>
  <path id="Path_2418" data-name="Path 2418" d="M681.433,303.682s-.513-1.3-1.135-1.532a6.274,6.274,0,0,0-1.436-.183.365.365,0,0,1,.082-.56,2.541,2.541,0,0,1,2,.725C681.488,302.757,681.574,304,681.433,303.682Z" transform="translate(-651.821 -288.647)" fill="#e28140" opacity="0.63"/>
  <path id="Path_2419" data-name="Path 2419" d="M841.518,308.572a1.572,1.572,0,0,1,.737-1.216,2.25,2.25,0,0,1,1.247-.191c.2-.066.226-.473.081-.534a2.125,2.125,0,0,0-1.827.673C841.222,308.02,841.493,308.741,841.518,308.572Z" transform="translate(-824.993 -293.527)" fill="#e28140" opacity="0.63"/>
  <path id="Path_2420" data-name="Path 2420" d="M684.551,398s1.787-.16,2.11.426-.863.843-1.685.86-1.623-.051-1.749-.614S684.207,398.021,684.551,398Z" transform="translate(-657.344 -378.727)" fill="#ed3737" opacity="0.23"/>
  <path id="Path_2421" data-name="Path 2421" d="M835.2,397.112s1.475-.085,1.767.509-.681.8-1.361.782-1.348-.117-1.475-.68S834.912,397.116,835.2,397.112Z" transform="translate(-817.841 -377.911)" fill="#ed3737" opacity="0.23"/>
  <path id="Path_2422" data-name="Path 2422" d="M682.4,364.579a2.987,2.987,0,0,1,1.85-.422,8.56,8.56,0,0,1,2.063.941l-.543-.474.577.065-.732-.221.29-.07-.456-.091a2.811,2.811,0,0,0-1.645-.827C682.745,363.33,682.4,364.579,682.4,364.579Z" transform="translate(-656.924 -346.543)" fill="#3f2f29"/>
  <path id="Path_2423" data-name="Path 2423" d="M826.517,365.084a2.434,2.434,0,0,0-1.529-.375,4.65,4.65,0,0,0-1.4.889l.319-.444-.434.065.52-.211-.241-.062.335-.088a1.574,1.574,0,0,1,1.1-.78C825.981,363.93,826.517,365.084,826.517,365.084Z" transform="translate(-806.624 -347.1)" fill="#3f2f29"/>
  <g id="Group_1463" data-name="Group 1463" transform="translate(19.138 20.448)">
    <path id="Path_2424" data-name="Path 2424" d="M750.2,416.922a1.512,1.512,0,0,1-.568-.468,1.092,1.092,0,0,1-.2-.683.16.16,0,0,1,.206-.145h0a.16.16,0,0,1,.114.16.773.773,0,0,0,.149.489c.2.277.7.619,1.949.678,2.058.1,2.832-.767,3.045-1.084a.16.16,0,0,1,.2-.057h0a.16.16,0,0,1,.07.234c-.259.39-1.117,1.331-3.329,1.227A4.1,4.1,0,0,1,750.2,416.922Z" transform="translate(-749.424 -415.618)" fill="#b53c3c"/>
  </g>
  <path id="Path_2425" data-name="Path 2425" d="M575.233,371.559a1.006,1.006,0,0,0-.406-1.251c-.749-.5-1.881,1.044-1.944,1.808s.565,1.409,1.181.534.538-1.291.42-1.6a.818.818,0,0,0-.221-.373.516.516,0,0,1,.663.13A1.169,1.169,0,0,1,575.233,371.559Z" transform="translate(-538.484 -352.829)" fill="#e28140" opacity="0.63"/>
  <path id="Path_2426" data-name="Path 2426" d="M588.14,540.282s.659-1.286,4.486-1.721c4.471-.508,5.509-.528,6.282.227s4.23,7.113,4.332,11.978-16.854,1.148-16.854,1.148A39.552,39.552,0,0,1,588.14,540.282Z" transform="translate(-567.326 -509.466)" fill="#95e5c5"/>
  <path id="Path_2427" data-name="Path 2427" d="M663.429,529.9s.389.458,2.207.345,2.333-.776,2.333-.776l2.183.727-2.949,2.818-1.381-1.659-1.124,1.82-2.878-2.133Z" transform="translate(-639.335 -501.323)" fill="#d4f4e7"/>
  <path id="Path_2428" data-name="Path 2428" d="M548.747,120.77a6.07,6.07,0,0,0,4.67,4.076c3.939.965,5.9.1,5.9.1a11.568,11.568,0,0,1-4.307-1.018,7.16,7.16,0,0,1-2.057-1.533,7.381,7.381,0,0,0,3.775,1.88c2.487.493,3.889.631,3.889.631s-1.233-.8-2.224-1.359a4.3,4.3,0,0,1-1.51-1.5,37.814,37.814,0,0,0,3.89,2.559,7.8,7.8,0,0,1,2.831,2.856,2.93,2.93,0,0,0,.094-2.587,14.623,14.623,0,0,0-1.266-2.4,9.715,9.715,0,0,1,2.087,3.982c.4,2.1.015,2.762.26,4.027a9.951,9.951,0,0,0,.36,1.529,18.383,18.383,0,0,0,1.641-2.326,9.718,9.718,0,0,0,.642-1.784,9.332,9.332,0,0,1-.5,1.829c-.262.491-.486.815-.516.866s2.189-1.689,2.189-1.689a7.584,7.584,0,0,0,2.195-7.856c-1.27-5.211-4.795-5.571-4.795-5.571a2.625,2.625,0,0,1,1.023-.2,2.739,2.739,0,0,1,.727.133,2.228,2.228,0,0,0-1.132-.335,1.693,1.693,0,0,0-.935.191s.1-.28-.3-1.073-2-1.179-2-1.179a5.1,5.1,0,0,1,1.269.931,2.081,2.081,0,0,1,.291.961s-3.9-2.476-10.389-.751-8.407,7.429-8.207,9.511A12.528,12.528,0,0,0,548,128.1a12.482,12.482,0,0,1-.547-3.918,9.079,9.079,0,0,1,.567-2.324,9.668,9.668,0,0,0-.442,2.9,7.315,7.315,0,0,0,.442,2.128,13.086,13.086,0,0,1,.1-3.513C548.442,122.009,548.747,120.77,548.747,120.77Z" transform="translate(-532.447 -113.014)" fill="#ffec9c"/>
  <path id="Path_2429" data-name="Path 2429" d="M625.069,211.842s4.149,2.733,5.031,5.635.272,2.906.522,4.7.423,1.96.423,1.96a23.653,23.653,0,0,1-.093-3.712,9.285,9.285,0,0,0-1.063-4.832,8.532,8.532,0,0,0-2.547-2.515,7.584,7.584,0,0,1,2.76,2.011,9.884,9.884,0,0,1,1.551,3.02,6.384,6.384,0,0,0-2.762-4.575C626.2,211.557,625.069,211.842,625.069,211.842Z" transform="translate(-598.352 -205.151)" fill="#efd462"/>
  <path id="Path_2430" data-name="Path 2430" d="M656.418,227.988s2.309,1.947,3.639,2.809,2.5,1.557,3.363,2.251a5.369,5.369,0,0,1,1.313,1.612s.313-1.229-1.313-3.64a6.892,6.892,0,0,0-3.569-2.906,10.548,10.548,0,0,1,2.818,2.4,8.632,8.632,0,0,1,1.37,2.494s-1.359-1.319-2.165-2.165a5.148,5.148,0,0,0-1.677-1.182s1.576,1.385,1.911,1.771.485.589.485.589S657.686,228.309,656.418,227.988Z" transform="translate(-633.575 -220.219)" fill="#efd462"/>
  <path id="Path_2431" data-name="Path 2431" d="M718.754,213.764a11.851,11.851,0,0,0,3.563,3.585,16.317,16.317,0,0,0,5.075,1.338,16.623,16.623,0,0,1-4.609-1.475A15.875,15.875,0,0,1,718.754,213.764Z" transform="translate(-700.422 -206.956)" fill="#efd462"/>
  <path id="Path_2432" data-name="Path 2432" d="M751.041,205.992a2.445,2.445,0,0,0,.305,2.953,6.707,6.707,0,0,0,4.66,2.844,10.732,10.732,0,0,0,3.247.2,8.418,8.418,0,0,1-4.547-1.351,7.555,7.555,0,0,1-2.625-2.461,4.347,4.347,0,0,0,1.782,2.2,8.551,8.551,0,0,0,2.115,1.236,8.9,8.9,0,0,1-3.83-2.138A3.67,3.67,0,0,1,751.041,205.992Z" transform="translate(-734.441 -199.709)" fill="#efd462"/>
  <path id="Path_2433" data-name="Path 2433" d="M883.062,226.651a14.782,14.782,0,0,0-.988,3.64,26.734,26.734,0,0,0,.374,3.064,6.777,6.777,0,0,1-1.008-3.4,5.871,5.871,0,0,1,.6-2.6,10.038,10.038,0,0,0-.441,2.528,4.771,4.771,0,0,0,.383,1.886,4.671,4.671,0,0,1-.031-2.5A8.379,8.379,0,0,1,883.062,226.651Z" transform="translate(-867.086 -218.972)" fill="#efd462"/>
  <path id="Path_2434" data-name="Path 2434" d="M584.3,200.739s2.068,1.408,1.529,5.639a11.651,11.651,0,0,1-2.413,6.227,14.541,14.541,0,0,0,.913-3.808,9.867,9.867,0,0,0-.605-4.317,6.4,6.4,0,0,1,1.024,3.049,7.082,7.082,0,0,1-.232,2.476,11.126,11.126,0,0,0,.886-4.827A10.956,10.956,0,0,0,584.3,200.739Z" transform="translate(-549.806 -194.811)" fill="#efd462"/>
  <path id="Path_2435" data-name="Path 2435" d="M583.988,129.843a4.625,4.625,0,0,0-1.928-1.262,5.489,5.489,0,0,0-1.475-.239,6.6,6.6,0,0,1,2.008.66,3.882,3.882,0,0,1,1.068.862,5.71,5.71,0,0,0-1.152-.383,3.657,3.657,0,0,0-.741-.067s1.666.481,1.836.584l.17.1a9.679,9.679,0,0,1,1.493.606,4.972,4.972,0,0,1,1.43,1.656,1.971,1.971,0,0,0-.742-1.373,6.305,6.305,0,0,0-1.14-.713s.46-.207,1.378.339a5.733,5.733,0,0,1,1.47,1.261,3.819,3.819,0,0,0-1.435-1.476,4.823,4.823,0,0,0-1.861-.484,2.384,2.384,0,0,0-.006-.6,3.915,3.915,0,0,0-.354-1.023A3.209,3.209,0,0,1,583.988,129.843Z" transform="translate(-551.356 -127.258)" fill="#efd462"/>
  <path id="Path_2436" data-name="Path 2436" d="M559.9,162.266a27.041,27.041,0,0,0,12.349.526c6.278-1.375,4.389-3.66,4.389-3.66a3.8,3.8,0,0,1,2.11,1.672,10.942,10.942,0,0,1,1.31,3.76l-1.6-2.891a7.008,7.008,0,0,0,.579,1.215c.1.02-1.436-1-1.436-1a4.267,4.267,0,0,1,.622,1.2c.023.347-1.2-.728-1.2-.728a22.358,22.358,0,0,1,.667,2.916c.022.677-1.7-2.348-1.636-2.069s.579,2.228.231,1.553a5.685,5.685,0,0,0-1.155-1.363s.076,1.171-.047.961a3.292,3.292,0,0,0-.831-.73c-.065,0-.743-.039-.71.133s1.3,1.528,1.3,1.593-2.252-1.488-2.252-1.488.292,1.377.261,1.347-2.087-.946-2.087-.946l.747,1.106-1.916-1.336s1.011,1.823.894,1.7a12.207,12.207,0,0,0-2.276-1.178c-.058.113.366.848.278.875s-.4-.069-.968-.431a8.262,8.262,0,0,0-1.5-.891c.007.108.53,1.469.53,1.469l-2.754-1.5s.792,1.473.745,1.411-1.922-1.51-1.832-1.254.294,1.147.1.762-.755-1.285-.789-1.131-.078.811-.167.795-.672-.959-.659-.763.3,1.266-.054.853a17.391,17.391,0,0,0-1.173-1.4c.071.183-.041.8-.169.5s-.3-1.048-.416-.964a4.978,4.978,0,0,0-.445.448l.075-1.2Z" transform="translate(-542.292 -156.016)" fill="#fffa89" opacity="0.52" style="mix-blend-mode: color-dodge;isolation: isolate"/>
  <g id="Group_1464" data-name="Group 1464" transform="translate(22.082 11.686)">
    <path id="Path_2437" data-name="Path 2437" d="M652.979,297.028a4.753,4.753,0,1,1-5.29-4.147A4.753,4.753,0,0,1,652.979,297.028Zm-.831.1a3.916,3.916,0,1,0-3.417,4.358A3.916,3.916,0,0,0,652.148,297.128Z" transform="translate(-643.041 -292.38)" fill="#684730"/>
    <ellipse id="Ellipse_92" data-name="Ellipse 92" cx="3.916" cy="3.916" rx="3.916" ry="3.916" transform="translate(3.367 10.438) rotate(-115.46)" fill="#fff" opacity="0.52"/>
  </g>
  <g id="Group_1465" data-name="Group 1465" transform="translate(11.891 12.497)">
    <path id="Path_2438" data-name="Path 2438" d="M819.444,302.171a4.441,4.441,0,1,1-4.97-4.186A4.6,4.6,0,0,1,819.444,302.171Zm-.774.094a3.659,3.659,0,1,0-3.153,4.326A3.79,3.79,0,0,0,818.67,302.265Z" transform="translate(-810.611 -297.955)" fill="#684730"/>
    <ellipse id="Ellipse_93" data-name="Ellipse 93" cx="3.916" cy="3.65" rx="3.916" ry="3.65" transform="translate(1.283 9.075) rotate(-96.906)" fill="#fff" opacity="0.52"/>
  </g>
  <path id="Path_2439" data-name="Path 2439" d="M775.945,368.156s.083-1.158,1.123-1.181a1.283,1.283,0,0,1,1.284.928l.319.8a.438.438,0,0,1-.506-.185c-.149-.291-.585-1.161-1.142-1.092s-.647.81-.743,1.116-.517.214-.517.214Z" transform="translate(-755.555 -349.813)" fill="#684730"/>
  <path id="Path_2440" data-name="Path 2440" d="M594.529,354.878l2.8-.222.862-.743-3.45-.237Z" transform="translate(-562.829 -337.413)" fill="#684730"/>
  <g id="Group_1473" data-name="Group 1473" transform="translate(5.643 46.487)">
    <g id="Group_1467" data-name="Group 1467" transform="translate(2.695)">
      <rect id="Rectangle_401" data-name="Rectangle 401" width="23.504" height="1.991" rx="0.996" transform="translate(20.428 11.735)" fill="#c62424"/>
      <rect id="Rectangle_402" data-name="Rectangle 402" width="23.504" height="1.974" rx="0.987" transform="translate(20.346 0.017)" fill="#c62424"/>
      <path id="Path_2441" data-name="Path 2441" d="M683.376,800.953H701.45c.4,0,.72.433.72.967v1.025l-18.71,4.872,18.71,4.872v1.025c0,.534-.322.967-.72.967H683.376c-1.32,0-2.39-1.437-2.39-3.208v-7.309C680.986,802.389,682.056,800.953,683.376,800.953Z" transform="translate(-680.986 -800.953)" fill="#f93232"/>
      <path id="Path_2442" data-name="Path 2442" d="M392.27,830.421a8.707,8.707,0,0,0-1.614,5.5c.252,3.095,1.614,4.241,1.614,4.241H368.513a1.9,1.9,0,0,1-1.765-2.006v-5.732a1.9,1.9,0,0,1,1.765-2.006Z" transform="translate(-349.851 -828.43)" fill="#e2dfd5"/>
      <path id="Path_2443" data-name="Path 2443" d="M701.767,830.421a8.707,8.707,0,0,0-1.614,5.5c.252,3.095,1.614,4.241,1.614,4.241H682.751a1.9,1.9,0,0,1-1.765-2.006v-5.732a1.9,1.9,0,0,1,1.765-2.006Z" transform="translate(-680.583 -828.43)" fill="#f4f2ed"/>
      <path id="Path_2444" data-name="Path 2444" d="M705.588,899.122l-10.794.229H705.84Z" transform="translate(-685.589 -892.489)" fill="#e2dfd5"/>
      <path id="Path_2445" data-name="Path 2445" d="M693.318,859.259c-.176,0-10.466.2-10.466.2l10.466.172Z" transform="translate(-672.26 -855.319)" fill="#e2dfd5"/>
      <path id="Path_2446" data-name="Path 2446" d="M703.864,907.6H689.943l14.249.229Z" transform="translate(-683.613 -900.397)" fill="#e2dfd5"/>
      <path id="Path_2447" data-name="Path 2447" d="M690.277,956.322H674.641l15.762-.372Z" transform="translate(-668.79 -945.476)" fill="#e2dfd5"/>
      <path id="Path_2448" data-name="Path 2448" d="M471.407,859.259l15.222.372H471.27Z" transform="translate(-451.273 -855.319)" fill="#c9c5b9"/>
      <path id="Path_2449" data-name="Path 2449" d="M565.671,899.122l9.425.115-9.43.115Z" transform="translate(-546.119 -892.489)" fill="#c9c5b9"/>
      <path id="Path_2450" data-name="Path 2450" d="M422.355,907.6l19.114.115-19.1.1Z" transform="translate(-402.808 -900.397)" fill="#c9c5b9"/>
      <path id="Path_2451" data-name="Path 2451" d="M517.994,956.322h11.637l-11.9-.372Z" transform="translate(-497.415 -945.476)" fill="#c9c5b9"/>
      <path id="Path_2452" data-name="Path 2452" d="M398.124,876.429H387.712l10.355.252Z" transform="translate(-357.122 -871.328)" fill="#c9c5b9"/>
      <path id="Path_2453" data-name="Path 2453" d="M402.14,914.923H389.89l12.282.275Z" transform="translate(-361.316 -907.221)" fill="#c9c5b9"/>
      <path id="Path_2454" data-name="Path 2454" d="M389.693,948.281h-7.749l7.684-.168Z" transform="translate(-348.301 -938.169)" fill="#c9c5b9"/>
      <path id="Path_2455" data-name="Path 2455" d="M815.868,876.468H804.9v-.43Z" transform="translate(-803.057 -870.964)" fill="#e2dfd5"/>
      <path id="Path_2456" data-name="Path 2456" d="M745.4,949.446H729.328v-.258Z" transform="translate(-727.487 -939.172)" fill="#e2dfd5"/>
      <g id="Group_1466" data-name="Group 1466" transform="translate(0.773 2.335)">
        <path id="Path_2457" data-name="Path 2457" d="M961.632,835.51a1.881,1.881,0,0,1,.537.467,3.68,3.68,0,0,0-.444,2.016v4.986a2.369,2.369,0,0,0,.368.935,5.122,5.122,0,0,1-.393.65l-.471-.42a2.151,2.151,0,0,1-.572-1.165v-4.986C960.657,835.758,961.632,835.51,961.632,835.51Z" transform="translate(-960.657 -835.51)" fill="#e2dfd5"/>
        <path id="Path_2458" data-name="Path 2458" d="M946.207,844.44a3.68,3.68,0,0,1,.445-2.016,5.213,5.213,0,0,1,.976,3.488,9.738,9.738,0,0,1-1.053,4.451,2.367,2.367,0,0,1-.368-.935Z" transform="translate(-945.139 -841.956)" fill="#b7b3a9"/>
      </g>
    </g>
    <g id="Group_1469" data-name="Group 1469" transform="translate(4.631 20.175)">
      <rect id="Rectangle_403" data-name="Rectangle 403" width="28.809" height="1.702" rx="0.851" transform="translate(0 10.032)" fill="#8fa316"/>
      <rect id="Rectangle_404" data-name="Rectangle 404" width="28.809" height="1.688" rx="0.844" transform="translate(0.1 0.015)" fill="#8fa316"/>
      <path id="Path_2459" data-name="Path 2459" d="M192.023,1099.505H169.871a.856.856,0,0,0-.883.826v.876l22.933,4.165-22.933,4.165v.876a.856.856,0,0,0,.883.826h22.152a2.841,2.841,0,0,0,2.93-2.743v-6.249A2.841,2.841,0,0,0,192.023,1099.505Z" transform="translate(-141.107 -1099.505)" fill="#bbd841"/>
      <path id="Path_2460" data-name="Path 2460" d="M475.465,1124.7s2.287,2.058,1.978,4.7a4.837,4.837,0,0,1-1.978,3.626h29.118a1.979,1.979,0,0,0,2.164-1.715v-4.9a1.979,1.979,0,0,0-2.164-1.715Z" transform="translate(-473.61 -1122.996)" fill="#e2dfd5"/>
      <path id="Path_2461" data-name="Path 2461" d="M176.307,1124.7s2.287,2.058,1.978,4.7a4.837,4.837,0,0,1-1.978,3.626h23.307a1.979,1.979,0,0,0,2.164-1.715v-4.9a1.979,1.979,0,0,0-2.164-1.715Z" transform="translate(-148.426 -1122.996)" fill="#f4f2ed"/>
      <path id="Path_2462" data-name="Path 2462" d="M336.258,1183.433l13.23.2H335.949Z" transform="translate(-306.924 -1177.761)" fill="#e2dfd5"/>
      <path id="Path_2463" data-name="Path 2463" d="M361.108,1149.352c.216,0,12.828.172,12.828.172l-12.828.147Z" transform="translate(-333.072 -1145.984)" fill="#e2dfd5"/>
      <path id="Path_2464" data-name="Path 2464" d="M284.2,1190.684h17.063l-17.465.2Z" transform="translate(-255.179 -1184.523)" fill="#e2dfd5"/>
      <path id="Path_2465" data-name="Path 2465" d="M275.266,1232.334H294.43l-19.319-.319Z" transform="translate(-247.755 -1223.062)" fill="#e2dfd5"/>
      <path id="Path_2466" data-name="Path 2466" d="M550.354,1149.352l-18.657.319h18.825Z" transform="translate(-521.186 -1145.984)" fill="#c9c5b9"/>
      <path id="Path_2467" data-name="Path 2467" d="M535.084,1183.433l-11.552.1,11.558.1Z" transform="translate(-505.203 -1177.761)" fill="#c9c5b9"/>
      <path id="Path_2468" data-name="Path 2468" d="M546.96,1190.684l-23.428.1,23.406.084Z" transform="translate(-517.072 -1184.523)" fill="#c9c5b9"/>
      <path id="Path_2469" data-name="Path 2469" d="M551.763,1232.334H537.5l14.584-.319Z" transform="translate(-523.14 -1223.062)" fill="#c9c5b9"/>
      <path id="Path_2470" data-name="Path 2470" d="M723.849,1164.031H736.61l-12.691.215Z" transform="translate(-720.258 -1159.671)" fill="#c9c5b9"/>
      <path id="Path_2471" data-name="Path 2471" d="M687.293,1196.941h15.015l-15.053.235Z" transform="translate(-683.484 -1190.357)" fill="#c9c5b9"/>
      <path id="Path_2472" data-name="Path 2472" d="M779.2,1225.46h9.5l-9.418-.144Z" transform="translate(-776.085 -1216.814)" fill="#c9c5b9"/>
      <path id="Path_2473" data-name="Path 2473" d="M202.379,1164.064h13.445v-.367Z" transform="translate(-164.235 -1159.359)" fill="#e2dfd5"/>
      <path id="Path_2474" data-name="Path 2474" d="M202.379,1226.456h19.7v-.221Z" transform="translate(-170.494 -1217.672)" fill="#e2dfd5"/>
      <g id="Group_1468" data-name="Group 1468" transform="translate(49.848 1.996)">
        <path id="Path_2475" data-name="Path 2475" d="M183.674,1129.048a2.332,2.332,0,0,0-.658.4,2.428,2.428,0,0,1,.545,1.724v4.263a1.691,1.691,0,0,1-.451.8,4.5,4.5,0,0,0,.481.556l.577-.359a1.654,1.654,0,0,0,.7-1v-4.263C184.869,1129.26,183.674,1129.048,183.674,1129.048Z" transform="translate(-181.819 -1129.048)" fill="#e2dfd5"/>
        <path id="Path_2476" data-name="Path 2476" d="M204.121,1136.683a2.429,2.429,0,0,0-.545-1.724,3.625,3.625,0,0,0-1.2,2.982,6.434,6.434,0,0,0,1.291,3.805,1.692,1.692,0,0,0,.451-.8Z" transform="translate(-202.379 -1134.56)" fill="#b7b3a9"/>
      </g>
    </g>
    <g id="Group_1472" data-name="Group 1472" transform="translate(0 13.456)">
      <rect id="Rectangle_405" data-name="Rectangle 405" width="25.849" height="0.856" rx="0.428" transform="translate(0 5.975)" fill="#25bfa9"/>
      <rect id="Rectangle_406" data-name="Rectangle 406" width="25.849" height="0.847" rx="0.424" transform="translate(0.093 0.008)" fill="#25bfa9"/>
      <path id="Path_2477" data-name="Path 2477" d="M154.59,1000.083H121.363c-.452,0-.818.215-.818.481l.17.375,33.78,2.56-33.8,2.559-.15.375c0,.266.366.481.818.481H154.59c1.5,0,2.716-.715,2.716-1.6v-3.637C157.306,1000.8,156.09,1000.083,154.59,1000.083Z" transform="translate(-95.556 -1000.083)" fill="#3eddca"/>
      <path id="Path_2478" data-name="Path 2478" d="M404.681,1012.744a3.614,3.614,0,0,1,.974,2.891,3.948,3.948,0,0,1-.974,2.228h26.136c1.108,0,14.7-.472,14.7-1.054V1013.8c0-.582-13.587-1.054-14.7-1.054Z" transform="translate(-402.962 -1011.888)" fill="#f4f2ed"/>
      <path id="Path_2479" data-name="Path 2479" d="M127.33,1008.245a5.149,5.149,0,0,1,.688,3.307,6.772,6.772,0,0,1-.688,2.42h34.3c1.108,0,2.006-.528,2.006-1.179v-3.369c0-.651-.9-1.179-2.006-1.179Z" transform="translate(-102.341 -1007.694)" fill="#3eddca"/>
      <path id="Path_2480" data-name="Path 2480" d="M677.482,1027.895l-16.388.2H677.63Z" transform="translate(-652.407 -1026.016)" fill="#e2dfd5"/>
      <path id="Path_2481" data-name="Path 2481" d="M664.07,1048.839l-10.146.06,10.152.06Z" transform="translate(-638.368 -1045.544)" fill="#e2dfd5"/>
      <path id="Path_2482" data-name="Path 2482" d="M674.5,1053.295l-20.578.06,20.559.052Z" transform="translate(-648.794 -1049.699)" fill="#e2dfd5"/>
      <path id="Path_2483" data-name="Path 2483" d="M678.72,1078.89H666.191l12.81-.2Z" transform="translate(-654.123 -1073.382)" fill="#e2dfd5"/>
      <path id="Path_2484" data-name="Path 2484" d="M822.737,1036.916H834.4l-11.635.131Z" transform="translate(-820.101 -1034.427)" fill="#e2dfd5"/>
      <path id="Path_2485" data-name="Path 2485" d="M788.846,1057.14h13.921l-13.956.145Z" transform="translate(-786.174 -1053.284)" fill="#e2dfd5"/>
      <path id="Path_2486" data-name="Path 2486" d="M874.052,1074.727l8.567-.031-8.514-.086Z" transform="translate(-871.786 -1069.574)" fill="#e2dfd5"/>
      <g id="Group_1470" data-name="Group 1470" transform="translate(23.249 1.036)">
        <path id="Path_2487" data-name="Path 2487" d="M662.343,1015.418a1.47,1.47,0,0,0-.414.245,1.471,1.471,0,0,1,.343,1.059v2.62a1.032,1.032,0,0,1-.283.491,2.8,2.8,0,0,0,.3.342l.363-.221a1.015,1.015,0,0,0,.441-.612v-2.62C663.094,1015.549,662.343,1015.418,662.343,1015.418Z" transform="translate(-661.177 -1015.418)" fill="#b7b3a9"/>
        <path id="Path_2488" data-name="Path 2488" d="M675.2,1020.109a1.472,1.472,0,0,0-.343-1.059,2.205,2.205,0,0,0-.752,1.832,3.9,3.9,0,0,0,.812,2.338,1.032,1.032,0,0,0,.283-.491Z" transform="translate(-674.103 -1018.805)" fill="#969187"/>
      </g>
      <path id="Path_2489" data-name="Path 2489" d="M607.734,1005.448a5.266,5.266,0,0,1,.087,6.105h1.356a5.98,5.98,0,0,0,.889-3.1,6.174,6.174,0,0,0-.981-3Z" transform="translate(-581.239 -1005.085)" fill="#f4ed73"/>
      <path id="Path_2490" data-name="Path 2490" d="M576.732,1005.448a5.267,5.267,0,0,1,.087,6.105h1.356a5.98,5.98,0,0,0,.889-3.1,6.174,6.174,0,0,0-.981-3Z" transform="translate(-548.142 -1005.085)" fill="#f4ed73"/>
      <path id="Path_2491" data-name="Path 2491" d="M173.629,1005.448a5.266,5.266,0,0,1,.087,6.105h1.356a5.98,5.98,0,0,0,.889-3.1,6.173,6.173,0,0,0-.981-3Z" transform="translate(-117.8 -1005.085)" fill="#f4ed73"/>
      <path id="Path_2492" data-name="Path 2492" d="M142.627,1005.448a5.266,5.266,0,0,1,.087,6.105h1.356a5.98,5.98,0,0,0,.889-3.1,6.172,6.172,0,0,0-.981-3Z" transform="translate(-84.703 -1005.085)" fill="#f4ed73"/>
      <g id="Group_1471" data-name="Group 1471" transform="translate(38.986 1.927)">
        <path id="Path_2493" data-name="Path 2493" d="M289.3,1030.807a.858.858,0,0,0-.416.189.588.588,0,0,0-.191.443.66.66,0,0,0,.126.381.721.721,0,0,0,.346.266,2,2,0,0,0,.671.084H291.1v-.073H291a.27.27,0,0,1-.24-.107.614.614,0,0,1-.045-.293v-1.726a.542.542,0,0,1,.057-.313.29.29,0,0,1,.229-.087h.1v-.073h-1.155a2.276,2.276,0,0,0-.518.047.831.831,0,0,0-.451.251.617.617,0,0,0-.156.415.573.573,0,0,0,.122.36A.717.717,0,0,0,289.3,1030.807Zm1.033-.106a1.518,1.518,0,0,1-.167.021q-.094.007-.206.007a1.152,1.152,0,0,1-.433-.062.464.464,0,0,1-.222-.19.534.534,0,0,1-.077-.28.511.511,0,0,1,.191-.4.829.829,0,0,1,.558-.166,1.332,1.332,0,0,1,.355.044Zm0,1.277a1.977,1.977,0,0,1-.451.053.813.813,0,0,1-.544-.161.5.5,0,0,1-.187-.4.582.582,0,0,1,.085-.3.567.567,0,0,1,.276-.227,1.193,1.193,0,0,1,.473-.083q.122,0,.209,0a1.076,1.076,0,0,1,.14.014Z" transform="translate(-279.694 -1029.438)" fill="#f4ed73"/>
        <path id="Path_2494" data-name="Path 2494" d="M330.917,1028.595a1.212,1.212,0,0,0-.9.4,1.364,1.364,0,0,0-.381.986,1.4,1.4,0,0,0,.384,1.011,1.284,1.284,0,0,0,1.857.01,1.407,1.407,0,0,0,.375-1.015,1.351,1.351,0,0,0-.434-1.038A1.279,1.279,0,0,0,330.917,1028.595Zm.037.144a.7.7,0,0,1,.576.266,1.5,1.5,0,0,1,.27.969,1.588,1.588,0,0,1-.28,1.007.691.691,0,0,1-.568.268.776.776,0,0,1-.622-.293,1.432,1.432,0,0,1-.245-.926,1.617,1.617,0,0,1,.27-1.023A.728.728,0,0,1,330.954,1028.739Z" transform="translate(-323.616 -1028.595)" fill="#f4ed73"/>
        <path id="Path_2495" data-name="Path 2495" d="M374.047,1028.595a1.212,1.212,0,0,0-.9.4,1.364,1.364,0,0,0-.381.986,1.4,1.4,0,0,0,.384,1.011,1.284,1.284,0,0,0,1.857.01,1.407,1.407,0,0,0,.375-1.015,1.351,1.351,0,0,0-.434-1.038A1.279,1.279,0,0,0,374.047,1028.595Zm.037.144a.7.7,0,0,1,.575.266,1.5,1.5,0,0,1,.27.969,1.588,1.588,0,0,1-.28,1.007.691.691,0,0,1-.568.268.776.776,0,0,1-.622-.293,1.432,1.432,0,0,1-.245-.926,1.617,1.617,0,0,1,.27-1.023A.728.728,0,0,1,374.084,1028.739Z" transform="translate(-369.66 -1028.595)" fill="#f4ed73"/>
        <path id="Path_2496" data-name="Path 2496" d="M416.527,1030.689l-.985.979a1.8,1.8,0,0,1-.414.33.884.884,0,0,1-.343.1v.073h1.271v-.073a.275.275,0,0,1-.164-.038.109.109,0,0,1-.05-.086.186.186,0,0,1,.019-.085.757.757,0,0,1,.123-.14l.922-.912v.861a.882.882,0,0,1-.026.268.177.177,0,0,1-.083.085.363.363,0,0,1-.179.047h-.091v.073h1.139v-.073h-.095a.285.285,0,0,1-.24-.1.6.6,0,0,1-.047-.3v-1.726a.907.907,0,0,1,.026-.27.181.181,0,0,1,.081-.083.374.374,0,0,1,.181-.047h.095v-.073h-1.139v.073h.091a.382.382,0,0,1,.179.045.17.17,0,0,1,.085.095.9.9,0,0,1,.024.26v.818l-.27-.25a5.958,5.958,0,0,1-.707-.715.258.258,0,0,1-.053-.138.1.1,0,0,1,.041-.08.221.221,0,0,1,.14-.034h.061v-.073h-.981v.073a.582.582,0,0,1,.158.024.81.81,0,0,1,.173.084,1.708,1.708,0,0,1,.252.2q.043.04.4.4Z" transform="translate(-414.785 -1029.438)" fill="#f4ed73"/>
      </g>
      <rect id="Rectangle_407" data-name="Rectangle 407" width="23.824" height="0.381" transform="translate(31.724 4.983)" fill="#f4ed73"/>
      <rect id="Rectangle_408" data-name="Rectangle 408" width="23.824" height="0.381" transform="translate(31.724 1.282)" fill="#f4ed73"/>
    </g>
  </g>
  <path id="Path_2497" data-name="Path 2497" d="M728.82,737.8s-.033,3.92-2.8,3.92-5.974-.017-5.974-.017h-2.518s-2.443.493-3.9,4.416-2.486,7.319-2.486,7.319a11.679,11.679,0,0,1-2.936-.344,13.937,13.937,0,0,1-2.083-.731s1.9-10.921,4.838-12.719a18.489,18.489,0,0,1,6.51-2.235Z" transform="translate(-700.997 -695.213)" fill="#32776b"/>
  <g id="Group_1475" data-name="Group 1475" transform="translate(0 28.093)">
    <g id="Group_1474" data-name="Group 1474">
      <path id="Path_2498" data-name="Path 2498" d="M838,539.041l-.163-.279-12.319,2.54-1.656-.121-5.72-2.4-.426.207,6.652,4.58,8.778-.539Z" transform="translate(-817.715 -538.085)" fill="#af1e17"/>
      <path id="Path_2499" data-name="Path 2499" d="M786.5,545.551l12.392-2.653L801,558.51l-12.1,3.032Z" transform="translate(-778.611 -541.941)" fill="#fd422d"/>
      <path id="Path_2500" data-name="Path 2500" d="M967.427,580.851l2.4,15.99-1.855-.135-2.389-15.95Z" transform="translate(-959.536 -577.242)" fill="#d33124"/>
      <path id="Path_2501" data-name="Path 2501" d="M999.084,544.695l-6.047-2.614,3.161,16.284,5.274,2.28Z" transform="translate(-993.037 -541.18)" fill="#af1e17"/>
      <path id="Path_2502" data-name="Path 2502" d="M843.776,529.523l-.674-.777a4.28,4.28,0,0,1-1.626.486,14.214,14.214,0,0,0-4.841.726,57.889,57.889,0,0,1-5.573,1.626,5.959,5.959,0,0,0-2.826-2.456c-1.709-.531-1.424.39-2.063.284s-.79-.434-.79-.434l-.577.65,5.31,2.215,1.656.121Z" transform="translate(-823.973 -528.746)" fill="#f4e7cc"/>
    </g>
    <path id="Path_2503" data-name="Path 2503" d="M1027.942,560.13l-6.022-2.752.331,1.7,5.952,2.792Z" transform="translate(-1021.72 -555.443)" fill="#f3bf06"/>
    <path id="Path_2504" data-name="Path 2504" d="M999.98,761.515l-5.3-2.243-.207-1.066,5.383,2.512Z" transform="translate(-991.642 -742.701)" fill="#f3bf06"/>
    <path id="Path_2505" data-name="Path 2505" d="M1058.651,616.095l.413,2.713-.714-.316-.507-2.964Z" transform="translate(-1055.007 -609.664)" fill="#f3bf06"/>
    <path id="Path_2506" data-name="Path 2506" d="M1040.338,661.846l-2.988-1.377.17.486,3.037,1.361Z" transform="translate(-1035.116 -651.567)" fill="#f3bf06"/>
  </g>
  <path id="Path_2507" data-name="Path 2507" d="M780.728,614.115a8.306,8.306,0,0,0-2.213-2.183,9.076,9.076,0,0,0-3.224-.881c-.324.107-.44.461.056.751a11.1,11.1,0,0,0,1.724.633c.421.154.865.484.744.553s-.425-.287-1.354-.524-1.746-.253-1.852-.072-.128.51.483.835,2.463,1.021,2.463,1.021-1.605-.4-2-.531-.553.24-.271.657a2.175,2.175,0,0,0,1.076.847,8.458,8.458,0,0,0,1.116.409,7.346,7.346,0,0,1-1.04-.155c-.382-.1-.8-.412-.9-.282s-.009.509.48.938a4.27,4.27,0,0,0,1.885.85,2.615,2.615,0,0,0,1.282-.152S781.282,615.844,780.728,614.115Z" transform="translate(-757.621 -577.382)" fill="#f4c092"/>
  <path id="Path_2508" data-name="Path 2508" d="M1079.36,586.525s-.6.194-.559.649a.94.94,0,0,0,.279.649.508.508,0,0,0-.156.571.646.646,0,0,0,.436.456.956.956,0,0,0-.086.638,1.181,1.181,0,0,0,.383.528,1.4,1.4,0,0,0,.164.711c.182.273,1.257-.194,1.366-.881s-.109-.85-.109-.85.31-.638.219-.911a.356.356,0,0,0-.34-.262s.574-.374.357-.876-.837-.283-.837-.283.1-.443-.291-.437A1.813,1.813,0,0,0,1079.36,586.525Z" transform="translate(-1078.723 -554.249)" fill="#f4c092"/>
  <path id="Path_2509" data-name="Path 2509" d="M616.7,737.8s-.033,3.92-2.8,3.92-5.974-.017-5.974-.017H605.4s-2.443.493-3.9,4.416-2.486,7.319-2.486,7.319a11.68,11.68,0,0,1-2.936-.344A13.944,13.944,0,0,1,594,752.36s1.9-10.921,4.838-12.719a18.489,18.489,0,0,1,6.51-2.235Z" transform="translate(-581.295 -695.213)" fill="#32776b"/>
  <path id="Path_2510" data-name="Path 2510" d="M726.931,557.378s-.4,4.473-.493,5.9-.192,6.324-.192,6.324h-.318a47.6,47.6,0,0,1,.194-6.324c.34-3.6.526-5.389.526-5.389Z" transform="translate(-700.443 -527.35)" fill="#75c9a5"/>
  <path id="Path_2511" data-name="Path 2511" d="M584.934,549.706s2.029,3.341,0,5.557-7.711-1.543-7.711-1.543a3.031,3.031,0,0,1-.507,1.638,3.984,3.984,0,0,1-1.309,1.161s5.383,4.071,10.765,2.807,4.811-4.735,4.265-7.2-2.222-6.32-4.737-5.815S584.934,549.706,584.934,549.706Z" transform="translate(-554.116 -516.988)" fill="#d4f4e7"/>
  <g id="Group_1476" data-name="Group 1476" transform="translate(16.344 42.504)">
    <path id="Path_2512" data-name="Path 2512" d="M612.564,757.685c.034-.1,3.352-10.29,4.981-11.777,1.449-1.323,4.534-1.3,7.518-1.279.367,0,.73.005,1.087.005,3.315,0,3.933-2.538,3.939-2.564l-.284-.065c-.022.1-.578,2.337-3.654,2.337-.356,0-.719,0-1.085-.005-3.039-.022-6.183-.045-7.717,1.355-1.685,1.539-4.944,11.54-5.082,11.966Z" transform="translate(-612.266 -742.005)" fill="#68ada3"/>
  </g>
  <g id="Group_1477" data-name="Group 1477" transform="translate(9.163 46.527)">
    <path id="Path_2513" data-name="Path 2513" d="M897.016,813.226c.011-.039,1.067-3.925,2.278-7.36,1.192-3.379,3.191-4.315,3.207-4.321l-.7.175c-.071.029-1.549.548-2.783,4.049-1.215,3.445-2.289,7.4-2.3,7.439Z" transform="translate(-896.719 -801.545)" fill="#68ada3"/>
  </g>
  <g id="Group_1478" data-name="Group 1478" transform="translate(1.864 55.472)">
    <path id="Path_2514" data-name="Path 2514" d="M976.054,941.422s-.174,2.9-.465,3.007a4.432,4.432,0,0,1-1.8.144c-.708-.1-1.078-.121-1.078-.121a8.747,8.747,0,0,1-2.806-.041c-1.712-.264-2.068-.606-2.093-.795a3.232,3.232,0,0,1,.192-1.7,3.2,3.2,0,0,1,1.944-.964c.734-.126,1.087-.167,1.087-.167l-.149-.386a.571.571,0,0,1,.364-.751,2.752,2.752,0,0,1,1.865.2c1.531.628,1.335,1.336,1.335,1.336A1.234,1.234,0,0,1,976.054,941.422Z" transform="translate(-967.775 -939.185)" fill="#2b3835"/>
    <path id="Path_2515" data-name="Path 2515" d="M979.809,991s-.206.18-1.134.144-1.507-.154-1.76-.147a11.421,11.421,0,0,1-2.836-.026,7.024,7.024,0,0,1-2.2-.559,2.677,2.677,0,0,0,.038.666,4.765,4.765,0,0,0,2.442.685,14.8,14.8,0,0,0,2.589.029,6.269,6.269,0,0,0,1.664.151,2.868,2.868,0,0,0,1.027-.2A2.9,2.9,0,0,0,979.809,991Z" transform="translate(-971.807 -986.596)" fill="#fff8ee"/>
    <path id="Path_2516" data-name="Path 2516" d="M965.928,936.5a1.266,1.266,0,0,0-.757-.217c-.471.007-.933.009-.945-.119s.08-1.094-1.6-1.554-1.786.224-1.778.469a1.483,1.483,0,0,0,.082.433,1.142,1.142,0,0,1-.247-.974c.126-.578.863-.852,2.45-.41s1.412,1.449,1.412,1.449.416-.519,1.384.009S966.225,936.7,965.928,936.5Z" transform="translate(-957.674 -933.909)" fill="#fff8ee"/>
    <path id="Path_2517" data-name="Path 2517" d="M1012.408,957.1s.307-.163,1.034.181a1.68,1.68,0,0,1,.988,1.192c-.034.144-.311.13-.439-.05a1.614,1.614,0,0,0-.682-.9,1.832,1.832,0,0,0-1.166-.392Z" transform="translate(-1009.151 -955.498)" fill="#fff8ee"/>
    <path id="Path_2518" data-name="Path 2518" d="M1032.906,959.3a1.764,1.764,0,0,1,.854.405,1.642,1.642,0,0,1,.565,1.013c-.009.156-.23.261-.4.034s-.167-.654-.634-1.013a1.549,1.549,0,0,0-.875-.354Z" transform="translate(-1030.415 -957.589)" fill="#fff8ee"/>
    <path id="Path_2519" data-name="Path 2519" d="M970.067,977.351a1.288,1.288,0,0,0-.928.5,2.856,2.856,0,0,0-.607,1.281l.134-.028a2.96,2.96,0,0,1,.552-1.183,1.316,1.316,0,0,1,.84-.462Z" transform="translate(-961.839 -974.416)" fill="#fff8ee"/>
  </g>
  <g id="Group_1479" data-name="Group 1479" transform="translate(9.732 56.04)">
    <path id="Path_2520" data-name="Path 2520" d="M859.618,949.83s-.174,2.9-.465,3.007a4.429,4.429,0,0,1-1.8.144c-.708-.1-1.078-.121-1.078-.121a8.748,8.748,0,0,1-2.806-.041c-1.712-.264-2.068-.606-2.093-.795a2.031,2.031,0,0,1,2.136-2.661c.734-.126,1.088-.167,1.088-.167l-.149-.386a.571.571,0,0,1,.364-.752,2.753,2.753,0,0,1,1.865.2c1.531.628,1.335,1.336,1.335,1.336A1.234,1.234,0,0,1,859.618,949.83Z" transform="translate(-851.339 -947.593)" fill="#2b3835"/>
    <path id="Path_2521" data-name="Path 2521" d="M863.373,999.409s-.206.18-1.134.145-1.507-.154-1.76-.147a11.418,11.418,0,0,1-2.837-.026,7.032,7.032,0,0,1-2.2-.559,2.669,2.669,0,0,0,.038.666,4.764,4.764,0,0,0,2.442.685,14.825,14.825,0,0,0,2.589.029,6.268,6.268,0,0,0,1.664.151,2.867,2.867,0,0,0,1.027-.2A2.9,2.9,0,0,0,863.373,999.409Z" transform="translate(-855.371 -995.004)" fill="#fff8ee"/>
    <path id="Path_2522" data-name="Path 2522" d="M849.492,944.908a1.267,1.267,0,0,0-.757-.217c-.471.008-.933.01-.945-.119s.081-1.094-1.6-1.554-1.787.224-1.778.469a1.482,1.482,0,0,0,.082.433,1.142,1.142,0,0,1-.247-.974c.126-.578.863-.852,2.451-.41s1.412,1.449,1.412,1.449.416-.519,1.384.009S849.79,945.107,849.492,944.908Z" transform="translate(-841.238 -942.317)" fill="#fff8ee"/>
    <path id="Path_2523" data-name="Path 2523" d="M895.971,965.508s.307-.163,1.034.181a1.679,1.679,0,0,1,.988,1.192c-.034.144-.311.13-.439-.05a1.613,1.613,0,0,0-.682-.9,1.832,1.832,0,0,0-1.166-.391Z" transform="translate(-892.715 -963.905)" fill="#fff8ee"/>
    <path id="Path_2524" data-name="Path 2524" d="M916.471,967.713a1.764,1.764,0,0,1,.854.4,1.642,1.642,0,0,1,.564,1.013c-.009.156-.23.261-.4.034s-.167-.654-.634-1.013a1.548,1.548,0,0,0-.875-.354Z" transform="translate(-913.98 -965.997)" fill="#fff8ee"/>
    <path id="Path_2525" data-name="Path 2525" d="M853.631,985.76a1.288,1.288,0,0,0-.928.5,2.859,2.859,0,0,0-.607,1.281l.134-.028a2.961,2.961,0,0,1,.552-1.183,1.314,1.314,0,0,1,.84-.462Z" transform="translate(-845.404 -982.824)" fill="#fff8ee"/>
  </g>
</svg>
