<svg xmlns="http://www.w3.org/2000/svg" width="53.555" height="65.134" viewBox="0 0 53.555 65.134">
  <g id="Group_1607" data-name="Group 1607" transform="translate(23.8 -5.355) rotate(30)">
    <path id="Path_1129" data-name="Path 1129" d="M672.562,2506.029a.536.536,0,0,1-.586-.89c3.148-2.6,3.786-8.318,1.454-13.025a.563.563,0,0,1,.242-.718.536.536,0,0,1,.718.242c2.586,5.221,1.842,11.38-1.733,14.328A.592.592,0,0,1,672.562,2506.029Z" transform="translate(-646.123 -2485.264)" fill="#663535"/>
    <path id="Path_1130" data-name="Path 1130" d="M749.74,3013.363a.536.536,0,0,1-.752-.65l.081-.237c.9-2.626,1.928-5.6-2.884-8.364a.536.536,0,1,1,.534-.929c5.58,3.2,4.246,7.077,3.364,9.642l-.081.234A.536.536,0,0,1,749.74,3013.363Z" transform="translate(-714.511 -2957.372)" fill="#663535"/>
    <path id="Path_1131" data-name="Path 1131" d="M829.086,2950.53a.545.545,0,0,1-.177.055.537.537,0,0,1-.6-.462c-.563-4.338-2.615-6.738-6.1-7.13a.536.536,0,1,1,.12-1.064c3.981.449,6.416,3.235,7.042,8.057A.537.537,0,0,1,829.086,2950.53Z" transform="translate(-784.454 -2900.927)" fill="#663535"/>
    <path id="Path_1132" data-name="Path 1132" d="M404.441,2583.013q.16,1.222-3.911,4.345t-6.33,3.612q-1.1.24-5.223-5.277t-8.545-11.313q-1.024,1.624-2.145,3.182a6.617,6.617,0,0,1-1.547,1.758q-.987.73-5.045-1.215a16.892,16.892,0,0,1-5.565-3.751q-.68-.823.46-4.813a102.879,102.879,0,0,1,3.849-10.373,9.89,9.89,0,0,1,2.318-2.937,28.5,28.5,0,0,1,4.028-3.208,17.2,17.2,0,0,1,4.248-2.093q2.059-.653,3,.391,2.6,2.974,6.14,7.9t6.728,9.874q3.186,4.945,5.387,8.917T404.441,2583.013Z" transform="translate(-363.926 -2540.004)" fill="#f25353"/>
    <path id="Path_1133" data-name="Path 1133" d="M483.988,2413.734a.279.279,0,0,1-.271.013,2.978,2.978,0,0,0-2.251-.041,3.463,3.463,0,0,0-2.018,1.636.277.277,0,0,1-.5-.244,4.027,4.027,0,0,1,2.338-1.918,3.533,3.533,0,0,1,2.678.071.277.277,0,0,1,.022.483Z" transform="translate(-468.211 -2412.954)" fill="#701608"/>
    <path id="Path_1134" data-name="Path 1134" d="M341.153,2509.122a.277.277,0,0,1-.423-.26,4.029,4.029,0,0,1,1.495-2.629,3.537,3.537,0,0,1,2.525-.9.277.277,0,0,1-.054.552,2.984,2.984,0,0,0-2.116.77,3.465,3.465,0,0,0-1.3,2.251A.277.277,0,0,1,341.153,2509.122Z" transform="translate(-340.729 -2498.168)" fill="#701608"/>
    <g id="Group_1043" data-name="Group 1043" transform="translate(2.233 10.437)">
      <path id="Path_1135" data-name="Path 1135" d="M379.7,2551.518a4.541,4.541,0,1,1-6.256-1.454A4.541,4.541,0,0,1,379.7,2551.518Z" transform="translate(-371.171 -2549.24)" fill="#fff"/>
      <path id="Path_1136" data-name="Path 1136" d="M414.688,2593.073a1.506,1.506,0,1,1-2.075-.482A1.506,1.506,0,0,1,414.688,2593.073Z" transform="translate(-408.62 -2588.894)" fill="#701608"/>
      <path id="Path_1137" data-name="Path 1137" d="M376.7,2556.265a4.68,4.68,0,1,1,1.5-6.447A4.686,4.686,0,0,1,376.7,2556.265Zm-4.8-7.709a4.4,4.4,0,1,0,6.065,1.409A4.407,4.407,0,0,0,371.894,2548.556Z" transform="translate(-369.543 -2547.614)" fill="#701608"/>
    </g>
    <g id="Group_1044" data-name="Group 1044" transform="translate(12.015 4.108)">
      <path id="Path_1138" data-name="Path 1138" d="M505.908,2469.862a4.541,4.541,0,1,1-6.256-1.453A4.541,4.541,0,0,1,505.908,2469.862Z" transform="translate(-497.375 -2467.584)" fill="#fff"/>
      <path id="Path_1139" data-name="Path 1139" d="M502.9,2474.606a4.68,4.68,0,1,1,1.5-6.446A4.685,4.685,0,0,1,502.9,2474.606Zm-4.8-7.708a4.4,4.4,0,1,0,6.065,1.408A4.407,4.407,0,0,0,498.1,2466.9Z" transform="translate(-495.748 -2465.956)" fill="#701608"/>
    </g>
    <path id="Path_1140" data-name="Path 1140" d="M534.18,2514.613a1.506,1.506,0,1,0,.482-2.075A1.506,1.506,0,0,0,534.18,2514.613Z" transform="translate(-518.976 -2504.61)" fill="#701608"/>
    <path id="Path_1141" data-name="Path 1141" d="M412.63,2604.576a.536.536,0,1,1-.738-.171A.536.536,0,0,1,412.63,2604.576Z" transform="translate(-406.144 -2589.492)" fill="#fff"/>
    <path id="Path_1142" data-name="Path 1142" d="M535.63,2527.295a.536.536,0,1,1-.738-.172A.536.536,0,0,1,535.63,2527.295Z" transform="translate(-519.61 -2518.199)" fill="#fff"/>
    <path id="Path_1143" data-name="Path 1143" d="M559.718,2715.315a14.328,14.328,0,0,1-8.1,1.367.536.536,0,0,1,.109-1.066c6.8.694,12.008-2.948,13.6-9.507a.536.536,0,0,1,1.041.253A13.175,13.175,0,0,1,559.718,2715.315Z" transform="translate(-534.832 -2683.01)" fill="#663535"/>
    <path id="Path_1144" data-name="Path 1144" d="M715.477,2638.944c.126.086.367.023.745-.064a2.415,2.415,0,0,1,1.046-.113c.245.1.122.341-.215.547-.555.34-1.835,1.068-2.5,1.386a2.25,2.25,0,0,1-3.048-.617c-.772-1.448-.976-2.06-1.416-2.968-.108-.224.482-.263.745-.04.562.479.553.752.863.974s.548.009.733-.311c.439-1.768.495-2.819,1.049-2.974.474-.059.342,1.189.126,2.594.814-1.361,1.581-2.395,1.908-2.157.388.28-.058,1.492-.81,2.591,1.1-.576,2.039-1.3,2.366-.932C717.368,2637.19,715.121,2638.7,715.477,2638.944Z" transform="translate(-681.455 -2617.57)" fill="#f25353"/>
    <g id="Group_1045" data-name="Group 1045" transform="translate(11.64 15.321)">
      <path id="Path_1145" data-name="Path 1145" d="M491.453,2616.339a4.245,4.245,0,0,0,5.246,0c1.837-1.3,2.605-3.648,1.828-5-1.149-2-2.066.758-3.964,1.97S489.669,2614.674,491.453,2616.339Z" transform="translate(-490.907 -2610.629)" fill="#560a02"/>
      <path id="Path_1146" data-name="Path 1146" d="M531.315,2658.194a4.528,4.528,0,0,1,2.84-.974,5.148,5.148,0,0,1-1.739,2.118,4.762,4.762,0,0,1-2.815.907A4.55,4.55,0,0,1,531.315,2658.194Z" transform="translate(-526.603 -2653.599)" fill="#fc8983"/>
      <path id="Path_1147" data-name="Path 1147" d="M502.6,2620.244c.5-.547,1.679-.755,2.624-1.358,1.067-.68,1.633-1.729,2.392-2.014.112.719-.6,1.818-1.789,2.658C504.549,2620.43,503.178,2620.718,502.6,2620.244Z" transform="translate(-501.69 -2616.388)" fill="#fff"/>
    </g>
    <g id="Group_1046" data-name="Group 1046" transform="translate(5.304 24.568)">
      <path id="Path_1148" data-name="Path 1148" d="M413.122,2730.774a.466.466,0,1,0-.654-.08A.466.466,0,0,0,413.122,2730.774Z" transform="translate(-412.121 -2729.941)" fill="#c12727"/>
      <path id="Path_1149" data-name="Path 1149" d="M409.362,2797.446a.514.514,0,1,0,.721.089A.515.515,0,0,0,409.362,2797.446Z" transform="translate(-409.165 -2792.114)" fill="#c12727"/>
      <path id="Path_1150" data-name="Path 1150" d="M481.841,2783.1a.947.947,0,1,0,1.33.163A.947.947,0,0,0,481.841,2783.1Z" transform="translate(-475.873 -2778.798)" fill="#c12727"/>
      <path id="Path_1151" data-name="Path 1151" d="M487.62,2836.329a1.493,1.493,0,1,0-2.1-.257A1.494,1.494,0,0,0,487.62,2836.329Z" transform="translate(-479.313 -2825.62)" fill="#c12727"/>
      <path id="Path_1152" data-name="Path 1152" d="M689.953,2757.4a.514.514,0,1,0,.089-.721A.513.513,0,0,0,689.953,2757.4Z" transform="translate(-668.09 -2754.504)" fill="#c12727"/>
      <path id="Path_1153" data-name="Path 1153" d="M667.8,2797.608c.234-.821.436-1.662.636-2.5q-.342-.541-.7-1.094c-.044.182-.092.364-.135.545-.206.863-.412,1.728-.651,2.569a26.162,26.162,0,0,1-5.7,10.456c-.663.728-1.381,1.419-2.087,2.092l.621.827c.731-.7,1.477-1.415,2.171-2.175A26.447,26.447,0,0,0,667.8,2797.608Z" transform="translate(-639.791 -2789.045)" fill="#c12727"/>
      <path id="Path_1154" data-name="Path 1154" d="M695.325,2865.159q2.256-.491,6.33-3.613t3.911-4.345q.042-1.029-2.159-5-1.12-2.021-2.5-4.3c-.155.645-.314,1.289-.493,1.918a25.7,25.7,0,0,1-5.678,10.412c-.747.82-1.567,1.6-2.36,2.357l-.08.077Q694.553,2865.324,695.325,2865.159Z" transform="translate(-670.356 -2838.761)" fill="#c12727"/>
      <path id="Path_1155" data-name="Path 1155" d="M628.132,2769.376a36.149,36.149,0,0,0,6.993-10.422c.595-1.325,1.143-2.662,1.688-4,.118-.288.246-.581.367-.871-.26-.4-.519-.793-.782-1.189q-.395.938-.774,1.868c-.541,1.32-1.08,2.641-1.667,3.95a35.054,35.054,0,0,1-6.507,9.756Z" transform="translate(-610.531 -2751.116)" fill="#c12727"/>
      <path id="Path_1156" data-name="Path 1156" d="M616.337,2739.713a.875.875,0,1,0-1.228-.15A.875.875,0,0,0,616.337,2739.713Z" transform="translate(-598.976 -2737.513)" fill="#c12727"/>
    </g>
    <path id="Path_1157" data-name="Path 1157" d="M658.257,2435.361c.152-.014.3-.215.536-.522.206-.266.5-.674.737-.751.25-.081.31.188.181.56-.214.615-.744,1.989-1.053,2.653a2.249,2.249,0,0,1-2.75,1.453c-1.515-.631-2.06-.976-2.975-1.4-.226-.1.206-.509.551-.5.738.014.9.231,1.284.207s.43-.34.37-.7c-.78-1.646-1.4-2.5-1.072-2.966.329-.346,1.018.7,1.74,1.927-.232-1.568-.293-2.854.111-2.877.478-.029.9,1.191,1.014,2.518.484-1.141.754-2.3,1.241-2.22C658.61,2432.806,657.829,2435.4,658.257,2435.361Z" transform="translate(-628.677 -2430.927)" fill="#f25353"/>
    <g id="Group_1047" data-name="Group 1047" transform="translate(33.132 54.258)">
      <path id="Path_1158" data-name="Path 1158" d="M772.149,3114.166c-.386-.139-2.437-.965-2.852-1.149-.3.687-.826,1.9-1.084,2.672a21.3,21.3,0,0,0,5.249,2.174C773.681,3117.358,774.15,3115.854,772.149,3114.166Z" transform="translate(-768.213 -3113.017)" fill="#f25353"/>
      <path id="Path_1159" data-name="Path 1159" d="M771.454,3118.831c.27.115.779.3,1.017-.069a1.154,1.154,0,0,0,.049-.713c-.068-.521-1.077-.869-1.434-.3A.781.781,0,0,0,771.454,3118.831Zm2.179,2.708a48.309,48.309,0,0,1-5.243-2.213c-.031.085-.152.381-.178.458a21.3,21.3,0,0,0,5.249,2.174C773.486,3121.9,773.607,3121.62,773.634,3121.54Z" transform="translate(-768.213 -3117.113)" fill="#c12727"/>
      <path id="Path_1160" data-name="Path 1160" d="M806.228,3118.034a1.208,1.208,0,0,1-.052.729c-.24.381-.748.193-1.016.076a.8.8,0,0,1-.361-1.1A.832.832,0,0,1,806.228,3118.034Z" transform="translate(-801.864 -3117.092)" fill="#f25353"/>
      <path id="Path_1161" data-name="Path 1161" d="M815.333,3132.95a.12.12,0,0,0,.158-.061.115.115,0,0,0-.063-.158,1.293,1.293,0,0,0-1.043.061.12.12,0,0,0-.049.162.116.116,0,0,0,.058.053.119.119,0,0,0,.1,0A1.019,1.019,0,0,1,815.333,3132.95Zm.389.256a1.062,1.062,0,0,0-1,.044.119.119,0,0,0-.05.162.117.117,0,0,0,.058.053.119.119,0,0,0,.1,0,.843.843,0,0,1,.779-.041.119.119,0,1,0,.1-.215Z" transform="translate(-810.748 -3131.128)" fill="#e2e6ed"/>
    </g>
    <g id="Group_1048" data-name="Group 1048" transform="translate(43.267 47.784)">
      <path id="Path_1162" data-name="Path 1162" d="M902.045,3037.668c-.407.049-2.611.233-3.064.255.038.75.117,2.072.233,2.875a21.3,21.3,0,0,0,5.666-.417C904.849,3039.83,904.592,3038.276,902.045,3037.668Z" transform="translate(-898.981 -3037.034)" fill="#f25353"/>
      <path id="Path_1163" data-name="Path 1163" d="M903.9,3031.278c.293-.018.832-.08.878-.519a1.156,1.156,0,0,0-.277-.66c-.295-.434-1.353-.292-1.415.379A.781.781,0,0,0,903.9,3031.278Zm3.164,1.44a48.33,48.33,0,0,1-5.678.38c.011.09.035.409.047.489a21.251,21.251,0,0,0,5.666-.417C907.1,3033.108,907.077,3032.8,907.065,3032.718Z" transform="translate(-901.201 -3029.823)" fill="#c12727"/>
      <path id="Path_1164" data-name="Path 1164" d="M925.43,3029.741a1.206,1.206,0,0,1,.281.675c-.043.448-.581.508-.873.525a.8.8,0,0,1-.818-.821A.832.832,0,0,1,925.43,3029.741Z" transform="translate(-922.077 -3029.484)" fill="#f25353"/>
      <path id="Path_1165" data-name="Path 1165" d="M938.72,3038.822a.12.12,0,0,0,.113-.125.115.115,0,0,0-.128-.113,1.292,1.292,0,0,0-.9.523.12.12,0,0,0,.028.167.121.121,0,0,0,.076.022.119.119,0,0,0,.091-.051A1.02,1.02,0,0,1,938.72,3038.822Zm.463.054a1.061,1.061,0,0,0-.869.488.12.12,0,0,0,.028.167.116.116,0,0,0,.076.021.119.119,0,0,0,.091-.05.844.844,0,0,1,.678-.387.119.119,0,1,0,0-.239Z" transform="translate(-934.773 -3037.878)" fill="#e2e6ed"/>
    </g>
  </g>
</svg>
