<svg xmlns="http://www.w3.org/2000/svg" width="48.622" height="105.112" viewBox="0 0 48.622 105.112">
  <g id="Group_2067" data-name="Group 2067" transform="translate(-108.223 -966.553)">
    <g id="Group_1036" data-name="Group 1036" transform="translate(108.223 1023.043)">
      <path id="Path_1075" data-name="Path 1075" d="M1216.928,2480.444a24.306,24.306,0,1,0,28.464-19.271A24.306,24.306,0,0,0,1216.928,2480.444Z" transform="translate(-1216.485 -2460.729)" fill="#43a8bf"/>
      <g id="Group_1035" data-name="Group 1035" transform="translate(0.168 0.086)">
        <path id="Path_1076" data-name="Path 1076" d="M1895.465,2463.406a.662.662,0,0,1,.266-.159c.426.059.853.128,1.28.21a24.573,24.573,0,0,1,3.155.835,1.649,1.649,0,0,1,.656.569c.254.572,1.407.616,1.661,1.425.1.33-1.6-.193-1.852-.021-.676.348-.358,1.078-1.094,1.64-.735.695.542.779.569,1.423-.838,1.872-3.081,3.862-3.256,2.343a7.881,7.881,0,0,0-.649-2.14c-.951-1.6-3.309-1.543-3.506-2.722-.1-.62.651-.539.589-1-.162-1.2,1.031-.754,1.034-1.649,0-.243-.161-.87.075-1.065l.306.028C1894.966,2463.275,1895.3,2463.586,1895.465,2463.406Z" transform="translate(-1868.271 -2463.1)" fill="#b1d57e"/>
        <path id="Path_1077" data-name="Path 1077" d="M1802.266,2543.037c.316-.557,4.885,1.073,3.543-.909-.178-.263.761-.913,1.4-1.082.741-.2,1.4.189,1.782-.028,1.744-.986,1.982-1.017,3.452-.615,1.19.325,2.123-.937,3.323,1.313.293-.308.675-.6.784-.436.176.259.254.884,1.352.141.655-.443.43-1.759.447-1.842.028-.134,1.472.276,1.51.078.165-.854-.239-1.805,0-2.07.135-.149.913.078.919.229.028.67.075,1.622.843,1.223,1.578-.819,1.54-4.233.9-4.108a3.726,3.726,0,0,1-1.434.014c-.1-.02-.393-1.247-.852-.967-.62.378-.969,2.415-1.877,1.9-.2-.111.8-2.936.622-3.071a18.979,18.979,0,0,1-1.629-1.34c-.618-.667.443-1.52-.869-2.922-1.337-1.43-2.118-1.229-2.774-2.393-.405-.719,2.127-.368,1.663-.926s-4.127-1.484-4.227-2.007c-.156-.812,1.612-.661,2.6-2.822.157-.342.412,1.1.882.965.32-.095.174-.635.508-.892.643-.5,1.729-.827,1.782-.258.211,2.245,1.5,5.237,1.987,4.735.315-.323.09-.83.13-1.27.071-.781,2.305.007,2.054-1.646s-4.34-3.421-4.59-5.219c-.035-.251-1.23.121-1.272.683-.018.239.529,2.142.3,2.226-1.717.644-2.467-1.355-2.856-1.976-.41-.653,1.542-.345,1.019-1.024-.5-.652,1.609-1.6,1.07-2.181a17.757,17.757,0,0,0-2.418-2.144,24.337,24.337,0,0,1,14.848,20.336c-1.751,4.854-4.263,8.656-5.667,7.346-.438-.408-.773.744-1.306.641a1.8,1.8,0,0,0-1.733,1.027c-.125.234-1.979.834-1.967.576.028-.608-.529-.278-.867-.115-.2.436-.563,1-.464,1.171a2.8,2.8,0,0,1-.108,2.764c-2.2,1.486-2.874,2.947-5.03,3.123-.493.04-2.622,3.7-2.785,4.546-.081.418-3.228,2.58-4.875,2.455-.516-.039,2.536-1.368,2.027-2.129-.305-.456-1.011-1.544-1.271-2.074-.438-.9-.222-1.945-.384-2.323-.488-1.133-1.994-.784-1.847-1.762.4-2.632-1.224-3.383-1.025-4.205C1800.009,2543.31,1801.995,2543.516,1802.266,2543.037Z" transform="translate(-1778.839 -2510.604)" fill="#b1d57e"/>
        <path id="Path_1078" data-name="Path 1078" d="M1804.653,2594.515c-.061.315.757.881.908.91.612.118,1.809-.4,1.87-.712s-1.026-.43-1.638-.548S1804.714,2594.2,1804.653,2594.515Z" transform="translate(-1783.436 -2589.362)" fill="#b1d57e"/>
        <path id="Path_1079" data-name="Path 1079" d="M1615.678,2655.062c-.016-.07-.855-.172-.752-.019.239.353.135.367.041.346-.137-.032-.346-.2-.466-.125a.32.32,0,0,0-.122.217,1.469,1.469,0,0,1-.072.319,11.8,11.8,0,0,1-1.1.811c-.066.075-.118.188-.223.22a2.032,2.032,0,0,0-.248.041.656.656,0,0,0-.238.191c-.071.107-.029.225-.063.333s-.127.046-.175.124c-.1.169.152.363.282.406.281.092.6.068.878.173a6.154,6.154,0,0,1,.544.326c.124.019.164-.226.029-.581-.067-.178.062-.4.146-.572.057-.112.082-.148,0-.251a.206.206,0,0,1-.049-.21c.09-.26.418-.223.619-.331.14-.076.568-.484.675-.569.08-.064.7-.324.781-.388S1615.686,2655.094,1615.678,2655.062Z" transform="translate(-1598.021 -2647.989)" fill="#b1d57e"/>
        <path id="Path_1080" data-name="Path 1080" d="M1674.5,2696.128c.18.191.775.291.771.211-.037-.72.574-.87.393-1.062-.113-.119-.353-.712-.768-.559-.079.03-.623.164-.529.3.209.309-.225.625-.283.681C1673.851,2695.921,1674.318,2695.937,1674.5,2696.128Z" transform="translate(-1657.554 -2686.275)" fill="#b1d57e"/>
        <path id="Path_1081" data-name="Path 1081" d="M1224.271,2520.914a24.259,24.259,0,0,0-2.9,7.7c-.118.616-.2,1.229-.275,1.842a.514.514,0,0,0,.263.165c.561.142,1.339-2.871,2.559-5.428.244.337.726.7.555,1.1a26.435,26.435,0,0,0-1.825,7.55c.009,2.2,1.358,3.6,1.526,5.193.33,3.125,5.1,6.682,6.585,6.525,0,0-1.044-.48-1.374-3.6-.073-.688-1.06-1.464-1-2.261.129-1.624-.257-3.761.754-3.856.2-.168.963-.413,1.12-.279,1.558,1.323,3.083.291,3.448,1.422.318.986,2.973-1.972,3.415-3,.246-.572-.124-.535-.136-1.22-.025-1.384.5-.912.516-1.439.036-1.4-1.018-2.388-1.593-3.6-.458-.965-.2-1.425-1.254-2.118a10.156,10.156,0,0,0-4.184-1.972c-.649-.1.027.676-.64,1.256-.513-.1-1.735.749-2.266.889-.46-.089.588-1.265-.356-1.249-1.4.938-2.392.125-2.976.035a9.358,9.358,0,0,1,1.1-1.689c.5-.172,1.027.566,1.368.079.146-.208.617-.517.536-.957.044-.23.376-.545.54-.5.263.767-.463,1.8-.337,1.751.9-.172,1.5-1.982,1.661-2.052a7.417,7.417,0,0,0,1.961-1.1c.024.022.336.212.362.233-1.443,1.432-1.848.885-2.077,1.629.023.015-.119.829-.1.843.436-.818,1.955-1.2,2.692-2.024.162.073.248.588.431.623s1.182-.236,1.2,1.267c0,.14.585.267-.022.828-.192.177,1.208,1.411,1.564,1.17.33-.224.725,0,1.237-.344.412-.279-.156-1.085.783-2.177a2.64,2.64,0,0,0-2.245-.41c-.309.055.292-.938.194-1.124,1.36-.11,1.63-.753,1.419-.794-.558-.107-1.5.023-1.637-1.508.1-.784-.946-1-.766-1.122.36-.244,1.027-.651.5-1a2.616,2.616,0,0,1-1.357.73c-.723.155-.742-.445-.868-.469-.157-.03-.207.25-.566-.051.024-.648.9-1.182.867-1.442.008-.225-1-.238-.33-.714.277-.2.685.091.965.086.566-.011,1.109-1.534,1.23-1.766.039-.075.6-.476.749-.073.047.133-.18.5-.241.594-.193.288-.208,1.228-.542,1.267a2.226,2.226,0,0,0-1.416,1.477c-.038.419.507.753.646.5a3.594,3.594,0,0,1,1.459-1.106c.206-.064.584.436.686.564.167.209,1.653-.836,1.122-1.834a1.814,1.814,0,0,1,.242-1.845c.231-.327.445-.823.316-1.088-.106-.218-.883-.444-1.152-.125-.222.264-.645.095-1,.1q-.66.293-1.3.624c-.03.025-.063.045-.092.073-.233.226.031.875-1.107,1,.019-.179.259-.348.38-.46a2.529,2.529,0,0,0,.225-.22.07.07,0,0,0,.009-.088,24.41,24.41,0,0,0-7.212,6.038,1.685,1.685,0,0,0,.43.808A13.251,13.251,0,0,0,1224.271,2520.914Zm2.885-1.851a1.731,1.731,0,0,0,.86.23c-.319.587-.2,2.133-1.263,1.784-.072-.077-.179-.123-.242-.216s-.31-.075-.67.124C1225.814,2520.507,1226.624,2519.651,1227.156,2519.063Z" transform="translate(-1221.098 -2508.983)" fill="#b1d57e"/>
        <path id="Path_1082" data-name="Path 1082" d="M2242.119,3182.3a1.843,1.843,0,0,0,1.15.319c.394-.059.414-.454.933-.61.941-.285,1.43.461,1.4.146s-.936-.788-1.879-.415C2242.633,3182.172,2242.1,3182.084,2242.119,3182.3Z" transform="translate(-2205.001 -3155.48)" fill="#b1d57e"/>
        <path id="Path_1083" data-name="Path 1083" d="M2184.061,3195.363c-.042.22.389.287.808.367a1.054,1.054,0,0,0,1-.563c.042-.22-.424-.293-.846-.235C2184.457,3195.009,2184.1,3195.141,2184.061,3195.363Z" transform="translate(-2149.052 -3168.309)" fill="#b1d57e"/>
        <path id="Path_1084" data-name="Path 1084" d="M2075.843,2835.778c-.071.367.75-.09,1.216,0s.978.361,1.048-.006-.6-1.139-1.072-1.135A1.208,1.208,0,0,0,2075.843,2835.778Z" transform="translate(-2044.767 -2821.131)" fill="#b1d57e"/>
      </g>
      <path id="Path_1085" data-name="Path 1085" d="M1517.461,2493.218a7.656,7.656,0,1,0,7.543-7.767A7.655,7.655,0,0,0,1517.461,2493.218Z" transform="translate(-1506.519 -2484.551)" fill="#fff" opacity="0.14"/>
      <path id="Path_1086" data-name="Path 1086" d="M1661.194,2934.488a1.356,1.356,0,1,0,1.336-1.375A1.355,1.355,0,0,0,1661.194,2934.488Z" transform="translate(-1645.028 -2915.94)" fill="#fff" opacity="0.21"/>
      <path id="Path_1087" data-name="Path 1087" d="M2061.649,3510.72a3.783,3.783,0,1,0,3.727-3.837A3.782,3.782,0,0,0,2061.649,3510.72Z" transform="translate(-2030.924 -3468.852)" fill="#12849f" opacity="0.28"/>
      <path id="Path_1088" data-name="Path 1088" d="M2202.928,3449.782a1.182,1.182,0,1,0,1.165-1.2A1.181,1.181,0,0,0,2202.928,3449.782Z" transform="translate(-2167.068 -3412.672)" fill="#12849f" opacity="0.28"/>
      <path id="Path_1089" data-name="Path 1089" d="M2316.681,3429.072a.763.763,0,1,0,.752-.774A.763.763,0,0,0,2316.681,3429.072Z" transform="translate(-2276.686 -3393.124)" fill="#12849f" opacity="0.33"/>
      <path id="Path_1090" data-name="Path 1090" d="M1761.374,2817.479a1.064,1.064,0,1,0,1.048-1.08A1.064,1.064,0,0,0,1761.374,2817.479Z" transform="translate(-1741.565 -2803.469)" fill="#fff" opacity="0.21"/>
      <path id="Path_1091" data-name="Path 1091" d="M1220.4,3078.124a2.358,2.358,0,1,0,2.323-2.392A2.357,2.357,0,0,0,1220.4,3078.124Z" transform="translate(-1220.255 -3053.374)" fill="#fff" opacity="0.29"/>
    </g>
    <g id="Group_1065" data-name="Group 1065" transform="translate(114.627 966.553)">
      <path id="Path_1206" data-name="Path 1206" d="M1502.74,2356.208c.661,2.487-1.274,3.385-2.577,3.839-3,1.045-24.315,2.285-26.995,1-2.442-1.171-.136-4.265,3.914-7.661,1.969-1.651,2.6-.375,8.664-.4C1492.147,2352.95,1501.981,2353.353,1502.74,2356.208Z" transform="translate(-1469.277 -2299.982)" fill="#60514a"/>
      <path id="Path_1207" data-name="Path 1207" d="M1780.9,2420.315c-5.961,1.963-10.094,3.441-13.728,4.665l-1.711-4.32c3.542-1.606,8.747-4.05,14.331-6.671,2.132-1,4.55-.381,5.213,1.341l.083.217C1785.737,2417.236,1783.095,2419.592,1780.9,2420.315Z" transform="translate(-1751.907 -2358.736)" fill="#ffc19f"/>
      <path id="Path_1208" data-name="Path 1208" d="M1804.055,2547.47c.838-.165,1.937-.771,2.6-.9l1.131,5.569s-2.838.2-3.531.331C1802.642,2552.316,1802.711,2548.181,1804.055,2547.47Z" transform="translate(-1788.126 -2486.961)" fill="#fff"/>
      <g id="Group_1056" data-name="Group 1056" transform="translate(10.897 58.83)">
        <path id="Path_1209" data-name="Path 1209" d="M1698.1,2532.751c.3.035.71.02,1.074.028.27.006,1.157-2.3.6-2.535a3.649,3.649,0,0,0-.393-.14c.154-.394.33-.817.528-1.26a23.338,23.338,0,0,1,1.207-2.381c-.875-.4-2.448-.943-3.424-1.378,0,0-6.039,9.456-5.205,11.666C1692.718,2537.374,1695.611,2535.555,1698.1,2532.751Z" transform="translate(-1692.404 -2525.085)" fill="#fc3838"/>
        <path id="Path_1210" data-name="Path 1210" d="M1698.306,2525.344c-.22-.089-.432-.176-.617-.259,0,0-6.039,9.456-5.205,11.666.033.088.12.126.25.121C1693.259,2533.8,1696.852,2527.715,1698.306,2525.344Z" transform="translate(-1692.404 -2525.085)" fill="#9e4444"/>
        <path id="Path_1211" data-name="Path 1211" d="M1695.512,2728.173c.012-.062.024-.124.032-.188a2.289,2.289,0,0,0-1.784-2.679c-.04,0-.08-.006-.12-.008-.869,1.879-1.451,3.6-1.153,4.387C1692.641,2730.094,1693.937,2729.452,1695.512,2728.173Z" transform="translate(-1692.408 -2718.02)" fill="#9e4444"/>
        <path id="Path_1212" data-name="Path 1212" d="M1795.352,2703.3a.154.154,0,0,0,.255.175,1.869,1.869,0,0,0,.006-1.955.154.154,0,1,0-.264.159A1.543,1.543,0,0,1,1795.352,2703.3Zm-.679.64a.151.151,0,0,0,.062.209.154.154,0,0,0,.209-.062,2.162,2.162,0,0,0,.044-1.956.154.154,0,0,0-.281.129A1.833,1.833,0,0,1,1794.673,2703.94Zm-.463.818a2.366,2.366,0,0,0,.084-2.022.154.154,0,1,0-.285.118,2.026,2.026,0,0,1-.061,1.742.152.152,0,0,0,.05.212A.154.154,0,0,0,1794.21,2704.757Z" transform="translate(-1790.233 -2695.033)" fill="#fff"/>
      </g>
      <path id="Path_1213" data-name="Path 1213" d="M1495.79,2459.178c6.623,1.124,12.77,2.986,16.821,3.65l-.49,4.261c-4.151-.313-10.292-.707-16.88-1.13-2.516-.162-4.022-1.971-3.809-3.661l.006-.632A3.559,3.559,0,0,1,1495.79,2459.178Z" transform="translate(-1487.822 -2402.664)" fill="#ffc19f"/>
      <path id="Path_1214" data-name="Path 1214" d="M2029.668,2700.638a.087.087,0,0,1-.084-.062,1.911,1.911,0,0,1,1.4-1.958.076.076,0,0,1,.1.056.079.079,0,0,1-.056.1,1.77,1.77,0,0,0-1.286,1.777A.083.083,0,0,1,2029.668,2700.638Z" transform="translate(-2006.411 -2633.475)" fill="#fff"/>
      <path id="Path_1215" data-name="Path 1215" d="M2041.153,2719.155a.086.086,0,0,1-.084-.062,1.911,1.911,0,0,1,1.4-1.958.081.081,0,0,1,.1.056.079.079,0,0,1-.056.1,1.772,1.772,0,0,0-1.288,1.777A.083.083,0,0,1,2041.153,2719.155Z" transform="translate(-2017.479 -2651.321)" fill="#fff"/>
      <path id="Path_1216" data-name="Path 1216" d="M2051.34,2734.432a.086.086,0,0,1-.084-.062,1.911,1.911,0,0,1,1.4-1.958.08.08,0,0,1,.1.056.079.079,0,0,1-.056.1,1.771,1.771,0,0,0-1.288,1.777A.083.083,0,0,1,2051.34,2734.432Z" transform="translate(-2027.295 -2666.042)" fill="#fff"/>
      <path id="Path_1217" data-name="Path 1217" d="M1567.528,2274.791c.75-1.976,1.481-3.61,1.481-3.61l15.907.385c.017.034.043.085.063.124.1.921.834,2.832,1.08,5.114-6.308,2.252-15.257,2.414-18.514.706C1567.535,2276.579,1567.528,2275.655,1567.528,2274.791Z" transform="translate(-1561.17 -2221.582)" opacity="0.23"/>
      <path id="Path_1218" data-name="Path 1218" d="M1788.506,1791.874h-7.778l.226-3.182,7.417.207Z" transform="translate(-1766.62 -1756.632)" fill="#c42626"/>
      <path id="Path_1219" data-name="Path 1219" d="M1559.948,1867.19c-8.38,2.744-18.61-.43-19.684-1.544,1.878-8.454,3.536-16.1,5.519-18.559,4.372-.27,11.647.56,14.593,1.691C1556.785,1857.582,1559.948,1867.19,1559.948,1867.19Z" transform="translate(-1534.898 -1812.855)" fill="#fc3838"/>
      <path id="Path_1220" data-name="Path 1220" d="M2039.549,1898.764c-1.028,1.868-3.561,4.158-5.294,4.454-.926-.986-5.256-5.371-.7-10.037C2035.684,1893.5,2039.549,1898.764,2039.549,1898.764Z" transform="translate(-2008.282 -1857.323)" fill="#fc3838"/>
      <path id="Path_1221" data-name="Path 1221" d="M1802.8,1767.575l-.334,4.061c-.072.873-1.511,1.468-3.214,1.328s-3.026-.962-2.954-1.835l.334-4.061Z" transform="translate(-1781.624 -1735.794)" fill="#e0956c"/>
      <path id="Path_1222" data-name="Path 1222" d="M1745.507,1837.808c.181-.517,1.946-3.056,2.806-3.1a4.346,4.346,0,0,1-3.553-3.563,7.69,7.69,0,0,0-1.009,1.332A3.959,3.959,0,0,0,1745.507,1837.808Z" transform="translate(-1730.594 -1797.54)" opacity="0.22"/>
      <path id="Path_1223" data-name="Path 1223" d="M1755.411,1805.53c.709-.788,1.207-2.113,2.9-1.933-2.329-.743-2.988-2.921-3.369-4.712,0,0-.573,1.335-.792,1.816C1753.9,1801.542,1752.983,1803.861,1755.411,1805.53Z" transform="translate(-1740.645 -1766.455)" fill="#fc3838"/>
      <path id="Path_1224" data-name="Path 1224" d="M1878.078,1857.245c-.084-.541-1.358-3.366-2.195-3.571a4.321,4.321,0,0,0,4.139-2.842,7.726,7.726,0,0,1,.75,1.5A3.945,3.945,0,0,1,1878.078,1857.245Z" transform="translate(-1858.316 -1816.513)" opacity="0.22"/>
      <path id="Path_1225" data-name="Path 1225" d="M1879.909,1824.889c-.554-.906-.8-2.3-2.5-2.439,2.424-.3,3.468-2.316,4.167-4.005,0,0,.32,1.419.449,1.932C1882.115,1821.25,1882.6,1823.7,1879.909,1824.889Z" transform="translate(-1859.786 -1785.304)" fill="#fc3838"/>
      <g id="Group_1059" data-name="Group 1059" transform="translate(0.375)">
        <path id="Path_1226" data-name="Path 1226" d="M2156.024,1427.77c-1.127,3.268-4.533,5.11-6.945,4.594s-2.668-3.289-1.989-6.469,3.189-5.348,5.6-4.824C2155.985,1421.788,2157.083,1424.7,2156.024,1427.77Z" transform="translate(-2119.725 -1402.301)" fill="#ffc19f"/>
        <path id="Path_1227" data-name="Path 1227" d="M2199.514,1540.277a2.295,2.295,0,1,1-1.687-3A2.445,2.445,0,0,1,2199.514,1540.277Z" transform="translate(-2166.204 -1514.314)" fill="#e0956c"/>
        <path id="Path_1228" data-name="Path 1228" d="M1403.1,1372.348c.646,3.4,3.752,5.708,6.214,5.544s3.113-2.872,2.9-6.116-2.388-5.75-4.849-5.578C1403.995,1366.433,1402.49,1369.157,1403.1,1372.348Z" transform="translate(-1402.966 -1349.489)" fill="#ffc19f"/>
        <path id="Path_1229" data-name="Path 1229" d="M1490.758,1488.812a2.295,2.295,0,1,0,2.1-2.727A2.444,2.444,0,0,0,1490.758,1488.812Z" transform="translate(-1487.56 -1465.022)" fill="#e0956c"/>
        <path id="Path_1230" data-name="Path 1230" d="M1470.263,917.354c-2.116,11.6,5.6,19.949,15.169,20.639s18.057-7.259,17.909-18.715c-.082-6.361-6.166-11.787-15.308-12.386-4.777-.313-8.09.062-11.156,1.524-.707.337-5.746.636-5.455-1.526-2.087,3.037.039,4.806.993,5.138A11.074,11.074,0,0,0,1470.263,917.354Z" transform="translate(-1467.477 -906.79)" fill="#870404"/>
        <path id="Path_1231" data-name="Path 1231" d="M1546.091,1017.26c-.96,1.775-1.579,17.993.127,20.383,1.81,2.535,9.7,5.407,11.392,5.529,1.813.131,9.852-1.353,11.575-3.871,2.039-2.981,3.885-17.315,3.429-19.07-1.539-5.928-6.559-6.486-13.143-6.961C1553.312,1012.825,1548.583,1012.655,1546.091,1017.26Z" transform="translate(-1539.978 -1009.195)" fill="#ffc19f"/>
        <path id="Path_1232" data-name="Path 1232" d="M1585.345,1551.282c-.107.67.738,1.362,1.887,1.545s2.167-.211,2.274-.881-.738-1.362-1.886-1.545S1585.452,1550.612,1585.345,1551.282Z" transform="translate(-1578.706 -1526.961)" fill="#ff9797"/>
        <path id="Path_1233" data-name="Path 1233" d="M2093.382,1597.5c-.011.679.923,1.244,2.086,1.264s2.115-.515,2.126-1.194-.923-1.244-2.086-1.264S2093.394,1596.821,2093.382,1597.5Z" transform="translate(-2068.284 -1571.239)" fill="#ff9797"/>
        <path id="Path_1234" data-name="Path 1234" d="M1871.625,1522.625a.152.152,0,0,0,.158-.116,1.082,1.082,0,0,1,2.115.149.151.151,0,1,0,.3-.021,1.385,1.385,0,0,0-2.712-.2.152.152,0,0,0,.112.183Z" transform="translate(-1854.452 -1499.071)" fill="#c67f75"/>
        <path id="Path_1235" data-name="Path 1235" d="M1624.064,1234.433a.426.426,0,0,0,.288-.1,4.846,4.846,0,0,1,4.625-.5.429.429,0,1,0,.316-.8,5.674,5.674,0,0,0-5.5.647.429.429,0,0,0,.27.755Z" transform="translate(-1615.622 -1220.768)" fill="#8c2f22"/>
        <path id="Path_1236" data-name="Path 1236" d="M2064.055,1267.9a.429.429,0,0,0,.361-.716,5.677,5.677,0,0,0-5.379-1.316.429.429,0,1,0,.217.831,4.838,4.838,0,0,1,4.528,1.064A.427.427,0,0,0,2064.055,1267.9Z" transform="translate(-2034.877 -1252.637)" fill="#8c2f22"/>
        <g id="Group_1057" data-name="Group 1057" transform="translate(21.693 17.458)">
          <path id="Path_1237" data-name="Path 1237" d="M1999.745,1397.272s4.438,1.877,6.4-.371c2.39-2.739-.647-5.352-2.795-5.093C2001.361,1392.049,1999.437,1393.577,1999.745,1397.272Z" transform="translate(-1999.712 -1391.618)" fill="#f9feff"/>
          <path id="Path_1238" data-name="Path 1238" d="M2031.548,1388.6a3.453,3.453,0,0,0-3.1-1.571,3.716,3.716,0,0,0-3.08,1.68,4.026,4.026,0,0,1,2.722-1.342,3.424,3.424,0,0,1,3.246,1.627,3.094,3.094,0,0,1-.533,3.389A3.037,3.037,0,0,0,2031.548,1388.6Z" transform="translate(-2024.432 -1387.029)" fill="#773220"/>
          <path id="Path_1239" data-name="Path 1239" d="M2007.535,1437.97a2.063,2.063,0,1,0,2.773-.905A2.063,2.063,0,0,0,2007.535,1437.97Z" transform="translate(-2007.034 -1435.03)" fill="#63190d"/>
          <path id="Path_1240" data-name="Path 1240" d="M2017.22,1451.03a.572.572,0,1,0,.77-.251A.573.573,0,0,0,2017.22,1451.03Z" transform="translate(-2016.523 -1448.402)" fill="#fefffe"/>
        </g>
        <g id="Group_1058" data-name="Group 1058" transform="translate(7.928 16.134)">
          <path id="Path_1241" data-name="Path 1241" d="M1631.621,1362.828s-4.7,1.042-6.225-1.524c-1.854-3.127,1.606-5.146,3.671-4.5C1630.978,1357.4,1632.594,1359.25,1631.621,1362.828Z" transform="translate(-1624.729 -1356.461)" fill="#f9feff"/>
          <path id="Path_1242" data-name="Path 1242" d="M1621.708,1351.663a3.453,3.453,0,0,1,3.337-.983,3.716,3.716,0,0,1,2.725,2.211,4.027,4.027,0,0,0-2.434-1.813,3.424,3.424,0,0,0-3.487,1.012,3.093,3.093,0,0,0-.09,3.429A3.037,3.037,0,0,1,1621.708,1351.663Z" transform="translate(-1621.042 -1350.595)" fill="#773220"/>
          <path id="Path_1243" data-name="Path 1243" d="M1643.747,1402.934a2.063,2.063,0,1,0,2.773-.905A2.063,2.063,0,0,0,1643.747,1402.934Z" transform="translate(-1642.706 -1399.943)" fill="#63190d"/>
          <path id="Path_1244" data-name="Path 1244" d="M1653.433,1415.993a.572.572,0,1,0,.769-.251A.572.572,0,0,0,1653.433,1415.993Z" transform="translate(-1652.195 -1413.314)" fill="#fefffe"/>
        </g>
      </g>
      <g id="Group_1060" data-name="Group 1060" transform="translate(5.366 48.102)" opacity="0.4">
        <path id="Path_1245" data-name="Path 1245" d="M1560.181,2274.165c-.15-.467-.313-1.028-.473-1.665-1.794.935-4.482,1.883-9.409,1.6a21.449,21.449,0,0,1-9.591-2.484q-.227.836-.445,1.689a22.392,22.392,0,0,0,8.438,2.367c.48.049.981.09,1.5.117C1555.292,2276.082,1558.211,2275.145,1560.181,2274.165Z" transform="translate(-1540.264 -2270.106)" fill="#fff"/>
        <path id="Path_1246" data-name="Path 1246" d="M1557.685,2230.832a22.212,22.212,0,0,0,8.067,2.208q.709.072,1.478.117a19.173,19.173,0,0,0,9.14-1.3c-.063-.273-.124-.552-.183-.848a18.234,18.234,0,0,1-8.909,1.3,22.2,22.2,0,0,1-9.361-2.308C1557.839,2230.276,1557.762,2230.554,1557.685,2230.832Z" transform="translate(-1557.052 -2230.002)" fill="#fff"/>
      </g>
      <path id="Path_1247" data-name="Path 1247" d="M2111.223,2019.856c1.545-1.1,4.318-3.358,4.972-3.961l-1.143-1.448c-.339.354-4.522,3.521-4.931,3.836Z" transform="translate(-2084.039 -1974.181)" fill="#f9a40d"/>
      <path id="Path_1248" data-name="Path 1248" d="M1545.182,956.706c-2.35-1.5-6.875-2.544-10.979-2.9-4.462-.387-9.112-.164-11.69,1.215-1.706.912-4.28,8.6-3.447,8.019a12.5,12.5,0,0,1,4.187-1.6,16.274,16.274,0,0,1,1.9-3.171c-.123.45-.392,2.046-.527,2.9a38.987,38.987,0,0,1,7.068-.523,7.183,7.183,0,0,1,.57-2.127,11.763,11.763,0,0,1,.911,2.178q.541.03,1.069.076a40.565,40.565,0,0,1,7.471,1.218c.11-2.825.164-3.706.131-3.516a9.984,9.984,0,0,1,.537,3.716,17.6,17.6,0,0,1,1.9.724c.123-.815.409-2.125.453-2.348a9.737,9.737,0,0,1,.674,2.911,22.148,22.148,0,0,1,2.656,1.761C1549.009,965.948,1547.076,957.916,1545.182,956.706Z" transform="translate(-1514.313 -951.933)" fill="#870404"/>
      <path id="Path_1249" data-name="Path 1249" d="M1475.831,1857c-2.436-.445-4.985-2.27-5.382-2.995,1.8-2.592,4.178-6.543,8.057-6.181C1477.115,1850.471,1475.831,1857,1475.831,1857Z" transform="translate(-1467.62 -1813.595)" fill="#fc3838"/>
      <path id="Path_1250" data-name="Path 1250" d="M1451,1985.08c1.731,1.03,5.109,2.771,5.973,3.156l.869-1.627c-.487-.183-5.354-2.9-5.835-3.165Z" transform="translate(-1448.882 -1944.304)" fill="#f9a40d"/>
      <path id="Path_1251" data-name="Path 1251" d="M1962.208,2531.7c-.85-.08-2.194-.409-2.866-.469l-.341,5.618s2.843-.089,3.546-.022C1964.136,2536.513,1963.616,2532.277,1962.208,2531.7Z" transform="translate(-1938.411 -2472.181)" fill="#fff"/>
      <g id="Group_1061" data-name="Group 1061" transform="translate(21.271 58.997)">
        <path id="Path_1252" data-name="Path 1252" d="M1978.9,2536.664c-.293-.084-.663-.256-1-.389-.251-.1-.178-2.57.429-2.569a3.662,3.662,0,0,1,.417.023c.01-.423.01-.881,0-1.366a23.377,23.377,0,0,0-.195-2.662c.961-.03,2.622.075,3.69.051,0,0,1.92,11.054.3,12.771C1982.083,2543.005,1980.117,2540.21,1978.9,2536.664Z" transform="translate(-1977.766 -2529.695)" fill="#fc3838"/>
        <path id="Path_1253" data-name="Path 1253" d="M2082.492,2531.235c.237,0,.466,0,.669,0,0,0,1.92,11.054.3,12.771-.064.068-.159.07-.277.015C2083.882,2540.986,2082.917,2533.982,2082.492,2531.235Z" transform="translate(-2078.685 -2531.178)" fill="#9e4444"/>
        <path id="Path_1254" data-name="Path 1254" d="M2048.381,2758.06c.013-.062.026-.124.043-.186a2.289,2.289,0,0,1,2.68-1.783c.039.011.076.026.114.039.076,2.069-.05,3.878-.63,4.492C2050.289,2760.94,2049.34,2759.848,2048.381,2758.06Z" transform="translate(-2045.814 -2747.796)" fill="#9e4444"/>
        <path id="Path_1255" data-name="Path 1255" d="M2009.14,2694.259a.154.154,0,1,0-.182-.249,1.869,1.869,0,0,0-.749,1.805.154.154,0,0,0,.3-.062A1.543,1.543,0,0,1,2009.14,2694.259Zm.366.785a.154.154,0,1,0-.209-.227,2.161,2.161,0,0,0-.714,1.821.154.154,0,0,0,.169.138.15.15,0,0,0,.138-.169A1.833,1.833,0,0,1,2009.506,2695.044Zm-.329,2.623a.152.152,0,0,0,.128-.177,2.025,2.025,0,0,1,.616-1.63.154.154,0,0,0-.218-.219,2.366,2.366,0,0,0-.7,1.9A.154.154,0,0,0,2009.178,2697.667Z" transform="translate(-2007.073 -2688.008)" fill="#fff"/>
      </g>
      <g id="Group_1063" data-name="Group 1063" transform="translate(0 37.162)">
        <g id="Group_1062" data-name="Group 1062" transform="translate(0.462)">
          <path id="Path_1256" data-name="Path 1256" d="M1440.476,1973.94c-1.377-2.259-.6-4.3-2.125-6.465-.39-.555-.871-5.09-1.287-7.664,3.468-.8,10.979-.394,14.834,5.822,0,.059-2.081,8.052-2.266,8.892a12.224,12.224,0,0,0-9.155-.586Z" transform="translate(-1435.912 -1958.401)" fill="#fff"/>
          <path id="Path_1257" data-name="Path 1257" d="M1417.843,1997.234c-.067-.146-1.858-6.743-2.118-7.977,3.391-1.7,11.179-1.409,15.609,4.161,0,.059-2.081,8.052-2.266,8.892C1427.82,2001.7,1419.566,1998.247,1417.843,1997.234Z" transform="translate(-1415.348 -1986.186)" fill="#e2d7d7"/>
          <path id="Path_1258" data-name="Path 1258" d="M1405.364,2049.144c.127-.132.16-.161.313-.3,5.667-1.407,10.56-.064,13.684,2.313.107.91.474,10.377.25,11.554C1415.122,2061.359,1409.408,2048.287,1405.364,2049.144Z" transform="translate(-1405.364 -2043.937)" fill="#80e5d7"/>
          <path id="Path_1259" data-name="Path 1259" d="M1408.562,2066.427c-.844-3.633-2.325-8.834-3.2-12.765a15.816,15.816,0,0,1,13.939,2.277c.107.884.685,10.161.461,11.3C1415.276,2065.93,1412.606,2065.595,1408.562,2066.427Z" transform="translate(-1405.364 -2048.455)" fill="#40c4b7"/>
          <path id="Path_1260" data-name="Path 1260" d="M1857.539,1938.946c.539-.426,1.464-7.828,1.226-9.9-5.675.176-12.732,3.552-13.65,7.3.147,1.058,2.423,7.985,2.608,8.825A72.711,72.711,0,0,0,1857.539,1938.946Z" transform="translate(-1829.129 -1929.049)" fill="#fff"/>
          <path id="Path_1261" data-name="Path 1261" d="M1856.879,1974.174c1.377-2.259.6-4.3,2.125-6.465.39-.555.871-5.09,1.287-7.664-3.468-.8-11.321-.326-15.176,5.889,0,.059,2.423,7.985,2.608,8.825a12.224,12.224,0,0,1,9.155-.586Z" transform="translate(-1829.129 -1958.635)" fill="#efe4e4"/>
          <path id="Path_1262" data-name="Path 1262" d="M1858.307,1996.891c.067-.146.634-6.585.777-7.768-3.391-1.7-11.33-1.211-15.761,4.359,0,.059,2.488,7.907,2.673,8.747C1847.245,2001.616,1856.584,1997.9,1858.307,1996.891Z" transform="translate(-1827.402 -1986.105)" fill="#e2d7d7"/>
          <path id="Path_1263" data-name="Path 1263" d="M1793.207,2118.821c0,.255-.935.761-2.19.761s-2.273-.521-2.241-.772c.023-.177,1.015-.374,2.27-.374S1793.207,2118.678,1793.207,2118.821Z" transform="translate(-1774.837 -2111.551)" fill="#717c7b"/>
          <path id="Path_1264" data-name="Path 1264" d="M1788.849,2127.949c0-.565-.03-1.1-.028-1.474a8.061,8.061,0,0,0,4.437.043c.02.249-.123,1.328-.1,1.625C1792.072,2128.621,1789.74,2128.772,1788.849,2127.949Z" transform="translate(-1774.881 -2119.298)" fill="#80e5d7"/>
          <path id="Path_1265" data-name="Path 1265" d="M1789.257,2146.233c-.085-3.083-.37-7.558-.461-11.3a9.269,9.269,0,0,0,4.431.008c.1.8.388,10.154.51,11.328C1792.649,2146.728,1790.149,2147.032,1789.257,2146.233Z" transform="translate(-1774.857 -2127.444)" fill="#2dad9d"/>
          <path id="Path_1266" data-name="Path 1266" d="M1924.392,2044.445a2.811,2.811,0,0,0-.092-.283c-4.544-.994-10.8.338-13.921,2.715a18.536,18.536,0,0,0,.283,2.932C1916.053,2048.7,1922.87,2044.387,1924.392,2044.445Z" transform="translate(-1892.003 -2039.657)" fill="#80e5d7"/>
          <path id="Path_1267" data-name="Path 1267" d="M1913.69,2066.168c.742-4.021,1.772-9.817,2.48-13.763-4.544-.965-10.89.388-14.014,2.7.026.808-.411,10.418-.313,11.589C1907.234,2065.609,1912.2,2065.656,1913.69,2066.168Z" transform="translate(-1883.781 -2047.617)" fill="#40c4b7"/>
        </g>
        <path id="Path_1268" data-name="Path 1268" d="M2113.465,2231.029c-.112.321,1.159.82,2.184.85.169,0-1.241.06-1.1.226a4.2,4.2,0,0,0,2.4,1.253c1.183.232,3.325.264,3.793-1.531.493-1.891-.891-4.142-1.726-4.2-.134.584-.176,1.552-.383,1.717-.284.226-1.114-.064-2.262-.059-1.346.005-2.574.245-2.219.763.122.178,3.372.445,3.379.567C2117.558,2231.009,2113.687,2230.394,2113.465,2231.029Z" transform="translate(-2087.255 -2216.776)" fill="#ffc19f"/>
        <path id="Path_1269" data-name="Path 1269" d="M1400.028,2216.638c.124.317-1.127.864-2.15.932-.169.011,1.243.012,1.1.185a4.2,4.2,0,0,1-2.352,1.344c-1.173.277-3.313.39-3.849-1.385-.565-1.871.733-4.172,1.565-4.26.156.578.235,1.544.448,1.7.292.215,1.111-.106,2.259-.145,1.345-.046,2.581.147,2.246.678-.115.183-3.353.573-3.355.7C1395.937,2216.774,1399.783,2216.012,1400.028,2216.638Z" transform="translate(-1392.643 -2203.114)" fill="#ffc19f"/>
      </g>
      <g id="Group_1064" data-name="Group 1064" transform="translate(13.599 24.702)">
        <path id="Path_1270" data-name="Path 1270" d="M1776.557,1588.426a4.839,4.839,0,0,1-5.156,3.029c-2.555-.216-4.667-2.08-4.686-3.859-.027-2.631,2.468-.448,5.034-.354S1777.349,1585.759,1776.557,1588.426Z" transform="translate(-1766.715 -1586.303)" fill="#701608"/>
        <path id="Path_1271" data-name="Path 1271" d="M1818.211,1680.03a5.161,5.161,0,0,0-3.354.683,5.874,5.874,0,0,0,2.932,1.078,5.427,5.427,0,0,0,3.29-.735A5.187,5.187,0,0,0,1818.211,1680.03Z" transform="translate(-1813.107 -1676.597)" fill="#d36e5e"/>
        <path id="Path_1272" data-name="Path 1272" d="M1815.973,1588.649c-.808-.249-2.086.228-3.363.182-1.441-.052-2.6-.756-3.514-.6.3.771,1.641,1.439,3.294,1.579C1814.162,1589.961,1815.675,1589.451,1815.973,1588.649Z" transform="translate(-1807.555 -1588.141)" fill="#fff"/>
      </g>
    </g>
  </g>
</svg>
