<svg xmlns="http://www.w3.org/2000/svg" width="47.444" height="62.167" viewBox="0 0 47.444 62.167">
  <g id="Group_1606" data-name="Group 1606" transform="matrix(0.951, 0.309, -0.309, 0.951, 7.496, -7.083)">
    <path id="Path_1092" data-name="Path 1092" d="M700.963,1447.1a.51.51,0,0,1-.208.007c-4.383-.763-7.929-5.551-8.249-11.136a.514.514,0,0,1,1.027-.059c.289,5.037,3.538,9.509,7.4,10.181a.515.515,0,0,1,.032,1.007Z" transform="translate(-688.674 -1423.613)" fill="#663535"/>
    <path id="Path_1093" data-name="Path 1093" d="M642.85,1384.007c-.133.061-.351-.038-.7-.181a2.327,2.327,0,0,0-.971-.276c-.247.051-.17.3.115.552.471.412,1.565,1.306,2.139,1.714a2.16,2.16,0,0,0,2.985-.093c.965-1.246,1.256-1.792,1.819-2.581.139-.194-.414-.327-.7-.158-.609.362-.644.622-.974.782s-.52-.08-.644-.412c-.13-1.744-.014-2.749-.513-2.984-.439-.133-.515,1.071-.537,2.435-.551-1.419-1.11-2.521-1.459-2.349-.413.2-.185,1.421.349,2.583-.946-.723-1.72-1.56-2.09-1.263C641.343,1382.041,643.226,1383.835,642.85,1384.007Z" transform="translate(-641.035 -1372.64)" fill="#3ccde5"/>
    <path id="Path_1094" data-name="Path 1094" d="M1126.417,1349.851a.514.514,0,0,1-.43-.911c3.128-2.359,3.979-7.821,1.938-12.435a.514.514,0,0,1,.941-.416c2.263,5.116,1.292,10.994-2.26,13.673A.513.513,0,0,1,1126.417,1349.851Z" transform="translate(-1089.705 -1331.38)" fill="#663535"/>
    <path id="Path_1095" data-name="Path 1095" d="M1119.967,1279.54c.147-.007.3-.194.536-.479.208-.247.511-.626.738-.689.243-.067.29.192.15.544-.231.581-.8,1.876-1.121,2.5a2.16,2.16,0,0,1-2.7,1.279c-1.427-.669-1.936-1.022-2.8-1.467-.212-.11.219-.48.549-.459.708.044.857.26,1.224.252s.427-.309.385-.661c-.679-1.611-1.242-2.452-.9-2.89.33-.318.947.718,1.589,1.922-.157-1.515-.162-2.75.226-2.756.46-.008.813,1.18.868,2.458.512-1.075.819-2.173,1.283-2.078C1120.412,1277.1,1119.554,1279.559,1119.967,1279.54Z" transform="translate(-1079.466 -1276.637)" fill="#3ccde5"/>
    <path id="Path_1096" data-name="Path 1096" d="M1057.738,1910.552a.513.513,0,0,1-.412-.076c-3.85-2.641-5.17-5.94-3.816-9.54a.515.515,0,0,1,.963.363c-1.185,3.151-.03,5.953,3.435,8.329a.515.515,0,0,1-.17.924Z" transform="translate(-1022.334 -1854.165)" fill="#663535"/>
    <g id="Group_1037" data-name="Group 1037" transform="translate(33.441 54.398)">
      <path id="Path_1097" data-name="Path 1097" d="M1096.371,2010.182c.2-.342,1.18-2.223,1.369-2.616.65.313,1.79.876,2.456,1.278a20.438,20.438,0,0,1-2.483,4.858C1097.239,2013.47,1095.959,2012.662,1096.371,2010.182Z" transform="translate(-1095.85 -2007.566)" fill="#3ccde5"/>
      <path id="Path_1098" data-name="Path 1098" d="M1091.863,2022.265c-.616-.2-1.138.687-.863,1.11.192.3.345.45.48.491.406.123.662-.331.787-.583A.75.75,0,0,0,1091.863,2022.265Zm.884,4.555a20.423,20.423,0,0,0,2.483-4.857c-.067-.041-.34-.181-.415-.224a46.353,46.353,0,0,1-2.454,4.882C1092.429,2026.662,1092.694,2026.793,1092.746,2026.819Z" transform="translate(-1090.883 -2020.683)" fill="#1fa3c1"/>
      <path id="Path_1099" data-name="Path 1099" d="M1090.445,2030.125c.2.3.356.458.492.5.413.129.667-.324.791-.577a.767.767,0,0,0-.422-1.03C1090.679,2028.815,1090.162,2029.7,1090.445,2030.125Z" transform="translate(-1090.366 -2027.394)" fill="#3ccde5"/>
      <path id="Path_1100" data-name="Path 1100" d="M1093.9,2045.954a.979.979,0,0,1,.644-.482.114.114,0,0,0,.078-.062.113.113,0,0,0,.009-.075.115.115,0,0,0-.136-.087,1.239,1.239,0,0,0-.8.6.11.11,0,0,0,.052.155A.115.115,0,0,0,1093.9,2045.954Zm-.066.581a.114.114,0,0,0,.151-.06.811.811,0,0,1,.6-.455.115.115,0,1,0-.05-.224,1.02,1.02,0,0,0-.756.587A.115.115,0,0,0,1093.833,2046.534Z" transform="translate(-1093.433 -2042.44)" fill="#e2e6ed"/>
    </g>
    <path id="Path_1101" data-name="Path 1101" d="M941.156,1943.512a.513.513,0,0,1-.5-.155c-3.135-3.46-3.655-6.975-1.505-10.164a.515.515,0,1,1,.854.575c-1.882,2.791-1.406,5.785,1.415,8.9a.515.515,0,0,1-.036.727A.506.506,0,0,1,941.156,1943.512Z" transform="translate(-915.757 -1884.12)" fill="#663535"/>
    <g id="Group_1038" data-name="Group 1038" transform="translate(22.948 57.792)">
      <path id="Path_1102" data-name="Path 1102" d="M950.778,2055.243c.289-.268,1.8-1.763,2.095-2.081.525.5,1.442,1.375,1.956,1.96A20.48,20.48,0,0,1,951,2059C950.613,2058.64,949.637,2057.483,950.778,2055.243Z" transform="translate(-950.178 -2053.162)" fill="#3ccde5"/>
      <path id="Path_1103" data-name="Path 1103" d="M952.922,2068.4c-.529-.372-1.292.312-1.158.8a1.109,1.109,0,0,0,.309.613c.35.24.731-.115.927-.318A.751.751,0,0,0,952.922,2068.4Zm-.532,4.609a20.433,20.433,0,0,0,3.833-3.881c-.052-.059-.27-.275-.328-.339a46.5,46.5,0,0,1-3.813,3.914C952.135,2072.763,952.347,2072.969,952.39,2073.01Z" transform="translate(-951.572 -2067.168)" fill="#1fa3c1"/>
      <path id="Path_1104" data-name="Path 1104" d="M951.109,2069.52a1.162,1.162,0,0,0,.318.625c.355.247.733-.108.928-.312a.767.767,0,0,0-.091-1.109C951.727,2068.34,950.968,2069.025,951.109,2069.52Z" transform="translate(-950.964 -2067.462)" fill="#3ccde5"/>
      <path id="Path_1105" data-name="Path 1105" d="M949.658,2086.2a.976.976,0,0,1,.76-.266.117.117,0,0,0,.093-.035.113.113,0,0,0,.031-.069.114.114,0,0,0-.1-.125,1.239,1.239,0,0,0-.945.335.11.11,0,0,0,0,.164A.116.116,0,0,0,949.658,2086.2Zm-.238.533a.114.114,0,0,0,.162-.011.81.81,0,0,1,.7-.254.115.115,0,0,0,.093-.035.113.113,0,0,0,.031-.069.115.115,0,0,0-.1-.125,1.023,1.023,0,0,0-.9.332A.115.115,0,0,0,949.419,2086.729Z" transform="translate(-949.38 -2083.276)" fill="#e2e6ed"/>
    </g>
    <path id="Path_1106" data-name="Path 1106" d="M771.006,1456.137q-.982-.275-1.847-4.135a32.922,32.922,0,0,1-.863-4.749c0-4.218,1.03-7.635,3.129-10.252a38.183,38.183,0,0,1,7.913-7.285q1.934-1.359,1.55-2.233a1.886,1.886,0,0,0-1.563-1.064,3.9,3.9,0,0,0-2.369.4,1.7,1.7,0,0,0-.882,2.1,1.666,1.666,0,0,1-.173,1.065,3.5,3.5,0,0,1-2.432,1.368,19.994,19.994,0,0,1-3.828.492,15.542,15.542,0,0,1-2.489-.1,4.8,4.8,0,0,1-2.261-.936q-1.269-.907-.556-4.2a17.339,17.339,0,0,1,1.569-4.771,15.339,15.339,0,0,1,7.816-6.682,16.092,16.092,0,0,1,10.151-.7,14.319,14.319,0,0,1,8.14,5.93,11,11,0,0,1,1.871,9.759,10.823,10.823,0,0,1-5.03,6.616,15.142,15.142,0,0,0-5.359,4.81q3.214-.857,6.417-1.764a34.317,34.317,0,0,1,4.278-1.033q1-.189,2.045,1.163a13.07,13.07,0,0,1,1.769,3.2,16.5,16.5,0,0,1,1,3.68,3.81,3.81,0,0,1-.271,2.612c-.2.3-1.65.829-4.359,1.591s-5.7,1.538-8.975,2.328-6.351,1.479-9.227,2.066A22.838,22.838,0,0,1,771.006,1456.137Z" transform="translate(-754.921 -1403.717)" fill="#3ccde5"/>
    <path id="Path_1107" data-name="Path 1107" d="M934.145,1465.2c-.631.149-1.519-.247-2.053-1.461a.2.2,0,1,1,.365-.161c.442,1,1.117,1.346,1.588,1.235.539-.127.856-.805.817-1.764a.2.2,0,0,1,.192-.208.2.2,0,0,1,.208.191C935.317,1464.42,934.724,1465.064,934.145,1465.2Z" transform="translate(-910.415 -1448.985)" fill="#2c6777"/>
    <path id="Path_1108" data-name="Path 1108" d="M969.731,1281.463a.266.266,0,0,1-.251-.07,2.862,2.862,0,0,0-2.04-.718,3.326,3.326,0,0,0-2.334.882.266.266,0,1,1-.38-.373,3.869,3.869,0,0,1,2.711-1.042,3.4,3.4,0,0,1,2.419.874.267.267,0,0,1,0,.377A.264.264,0,0,1,969.731,1281.463Z" transform="translate(-940.566 -1279.881)" fill="#2c6777"/>
    <path id="Path_1109" data-name="Path 1109" d="M799.477,1327.927a.266.266,0,0,1-.307-.365,3.87,3.87,0,0,1,2.157-1.944,3.4,3.4,0,0,1,2.572-.052.266.266,0,0,1-.216.486,2.866,2.866,0,0,0-2.162.062,3.329,3.329,0,0,0-1.862,1.66A.267.267,0,0,1,799.477,1327.927Z" transform="translate(-787.381 -1321.714)" fill="#2c6777"/>
    <g id="Group_1039" data-name="Group 1039" transform="translate(12.257 7.473)">
      <path id="Path_1110" data-name="Path 1110" d="M816.113,1382.163a4.361,4.361,0,1,1-5.262-3.215A4.361,4.361,0,0,1,816.113,1382.163Z" transform="translate(-807.38 -1378.693)" fill="#fff"/>
      <path id="Path_1111" data-name="Path 1111" d="M811.28,1385.909a4.494,4.494,0,1,1,3.314-5.423A4.5,4.5,0,0,1,811.28,1385.909Zm-2.047-8.478a4.227,4.227,0,1,0,5.1,3.117A4.232,4.232,0,0,0,809.233,1377.431Z" transform="translate(-805.731 -1377.046)" fill="#2c6777"/>
      <path id="Path_1112" data-name="Path 1112" d="M856.471,1428.92a.261.261,0,0,1-.11,0,.265.265,0,0,1-.214-.309,1.972,1.972,0,0,1,1.376-1.5,1.952,1.952,0,0,1,1.983.466.266.266,0,0,1-.374.38,1.387,1.387,0,0,0-1.449-.339,1.442,1.442,0,0,0-1.013,1.09A.266.266,0,0,1,856.471,1428.92Z" transform="translate(-852.391 -1423.295)" fill="#1f444c"/>
    </g>
    <g id="Group_1040" data-name="Group 1040" transform="translate(23.086 4.662)">
      <path id="Path_1113" data-name="Path 1113" d="M961.608,1344.393a4.361,4.361,0,1,1-5.262-3.216A4.361,4.361,0,0,1,961.608,1344.393Z" transform="translate(-952.875 -1340.922)" fill="#fff"/>
      <path id="Path_1114" data-name="Path 1114" d="M956.776,1348.135a4.494,4.494,0,1,1,3.313-5.423A4.5,4.5,0,0,1,956.776,1348.135Zm-2.047-8.478a4.228,4.228,0,1,0,5.1,3.117A4.232,4.232,0,0,0,954.729,1339.657Z" transform="translate(-951.227 -1339.273)" fill="#2c6777"/>
      <path id="Path_1115" data-name="Path 1115" d="M984.692,1397.325a.266.266,0,0,1-.274-.1,1.442,1.442,0,0,0-1.4-.508,1.4,1.4,0,0,0-1.135.962.267.267,0,0,1-.506-.168,1.945,1.945,0,0,1,1.552-1.319,1.972,1.972,0,0,1,1.909.709.265.265,0,0,1-.049.373A.261.261,0,0,1,984.692,1397.325Z" transform="translate(-979.123 -1391.93)" fill="#1f444c"/>
    </g>
    <g id="Group_1041" data-name="Group 1041" transform="translate(11.427 18.873)">
      <path id="Path_1116" data-name="Path 1116" d="M1080.544,1801.14a.641.641,0,1,0-.473.773A.641.641,0,0,0,1080.544,1801.14Z" transform="translate(-1058.091 -1780.524)" fill="#1fa3c1"/>
      <path id="Path_1117" data-name="Path 1117" d="M851.148,1597.856c-.949.684-1.9,1.367-2.87,2.012a45.277,45.277,0,0,1-15,6.38q-.265.6-.479,1.247c.121-.024.243-.044.363-.069a45.793,45.793,0,0,0,15.732-6.625c.984-.653,1.946-1.344,2.906-2.036a44.182,44.182,0,0,1,6-3.844,10.733,10.733,0,0,0,.1-1.293A41.244,41.244,0,0,0,851.148,1597.856Z" transform="translate(-829.955 -1588.907)" fill="#1fa3c1"/>
      <path id="Path_1118" data-name="Path 1118" d="M811.913,1540.768a.475.475,0,1,0,.573.35A.475.475,0,0,0,811.913,1540.768Z" transform="translate(-810.286 -1539.971)" fill="#1fa3c1"/>
      <path id="Path_1119" data-name="Path 1119" d="M1076.8,1838.028a1.2,1.2,0,1,0-.056-1.695A1.2,1.2,0,0,0,1076.8,1838.028Z" transform="translate(-1055.442 -1813.2)" fill="#1fa3c1"/>
      <path id="Path_1120" data-name="Path 1120" d="M1077.165,1531.631a.712.712,0,1,0-.859-.525A.712.712,0,0,0,1077.165,1531.631Z" transform="translate(-1055.319 -1530.226)" fill="#1fa3c1"/>
      <path id="Path_1121" data-name="Path 1121" d="M895.061,1578.977a.815.815,0,1,0-.6.983A.815.815,0,0,0,895.061,1578.977Z" transform="translate(-886.095 -1574.772)" fill="#1fa3c1"/>
      <path id="Path_1122" data-name="Path 1122" d="M876.613,1539.056a37.924,37.924,0,0,1-10.89,5.677q-.722.781-1.377,1.586a39.178,39.178,0,0,0,12.942-6.375l.573-.436c2.6-1.985,5.861-4.454,8.716-6.25-.118-.356-.249-.712-.406-1.065-2.953,1.837-6.311,4.386-8.989,6.426Z" transform="translate(-859.154 -1532.047)" fill="#1fa3c1"/>
      <path id="Path_1123" data-name="Path 1123" d="M899.821,1887.9a1.083,1.083,0,1,0,.8-1.307A1.083,1.083,0,0,0,899.821,1887.9Z" transform="translate(-891.96 -1860.045)" fill="#1fa3c1"/>
      <path id="Path_1124" data-name="Path 1124" d="M874.171,1804.1a3.772,3.772,0,0,0,.271-2.612,16.5,16.5,0,0,0-1-3.68c-.091-.232-.19-.452-.289-.672-1.713,1.112-3.958,2.657-5.052,3.445-.949.684-1.9,1.367-2.87,2.012a45.276,45.276,0,0,1-15.351,6.464c-1.415.305-2.87.543-4.293.771.279.569.566.908.861.99a22.838,22.838,0,0,0,5.158-.734q4.314-.88,9.227-2.066t8.975-2.328Q873.875,1804.551,874.171,1804.1Z" transform="translate(-841.794 -1777.275)" fill="#1fa3c1"/>
      <path id="Path_1125" data-name="Path 1125" d="M968.7,1805.832a.8.8,0,1,0,.588-.963A.8.8,0,0,0,968.7,1805.832Z" transform="translate(-955.723 -1784.409)" fill="#1fa3c1"/>
      <path id="Path_1126" data-name="Path 1126" d="M794.6,1567.029a1.083,1.083,0,1,0,.8-1.306A1.083,1.083,0,0,0,794.6,1567.029Z" transform="translate(-794.571 -1563.053)" fill="#1fa3c1"/>
      <path id="Path_1127" data-name="Path 1127" d="M826.373,1676.643a45.759,45.759,0,0,0,14.311-5.73,22.418,22.418,0,0,1,2.342-1.586,10.678,10.678,0,0,0,4.007-4.118c-.911.607-1.8,1.237-2.674,1.866-.949.684-1.9,1.367-2.87,2.012a45.281,45.281,0,0,1-15.351,6.464c-1.11.239-2.241.433-3.366.618q-.1.568-.162,1.16C823.859,1677.125,825.124,1676.912,826.373,1676.643Z" transform="translate(-820.522 -1655.163)" fill="#1fa3c1"/>
      <path id="Path_1128" data-name="Path 1128" d="M1028.441,1857.252a.411.411,0,1,0,.3-.5A.411.411,0,0,0,1028.441,1857.252Z" transform="translate(-1011.025 -1832.444)" fill="#1fa3c1"/>
    </g>
  </g>
</svg>
