<svg xmlns="http://www.w3.org/2000/svg" width="62.163" height="72.106" viewBox="0 0 62.163 72.106">
  <g id="Group_1086" data-name="Group 1086" transform="translate(0 0)">
    <path id="Path_1364" data-name="Path 1364" d="M3447.657,2533.563c3.073-1.049,2.536-11.709,3.289-17.832-3.074-.478-11.3-2.02-13.685-2.72-1.076,3.035-3.547,17.347-3.982,19.765C3435.744,2533.457,3445.862,2533.837,3447.657,2533.563Z" transform="translate(-3393.361 -2466.489)" fill="#5b596e"/>
    <path id="Path_1365" data-name="Path 1365" d="M3476.148,2131.7a29.553,29.553,0,0,0,7.629,2.69c.776-1.792,6.542-14.7,5.41-22.519-.356-2.463-7.438-3.8-8.314-3.731C3482.768,2109.71,3478.135,2126.485,3476.148,2131.7Z" transform="translate(-3432.071 -2100.898)" fill="#7c7c93"/>
    <path id="Path_1366" data-name="Path 1366" d="M3412.33,2121.54c.306,1.007,6.843,3.005,8.454,3.69.917-3,4.486-11,4.343-14.768-.116-3.106-2.742-3.655-5.038-1.345C3416.277,2112.954,3413.693,2118.757,3412.33,2121.54Z" transform="translate(-3374.444 -2100.498)" fill="#65657c"/>
    <path id="Path_1367" data-name="Path 1367" d="M3435.8,2129.96c.222.855,4.452,1.817,5.738,2.365.815-2.593,3.9-9.529,3.874-12.757-.018-2.658-1.548-3.042-3.46-1.007C3438.771,2121.94,3436.565,2127.845,3435.8,2129.96Z" transform="translate(-3395.634 -2109.139)" fill="#273749"/>
    <path id="Path_1368" data-name="Path 1368" d="M3266.54,2059.534c1.147.6,6.385,1.468,8.557,1.433.493-2.052,4.233-16.865,1.608-24.969-.826-2.552-8.558-2.653-9.47-2.412C3269.524,2034.9,3267.688,2053.611,3266.54,2059.534Z" transform="translate(-3242.799 -2033.499)" fill="#7c7c93"/>
    <path id="Path_1369" data-name="Path 1369" d="M3180.7,2050.916c.507,1.014,7.783,1.915,9.611,2.344.421-3.364,2.735-12.538,1.9-16.524-.69-3.282-3.567-3.374-5.571-.487C3183.308,2041.044,3181.635,2047.7,3180.7,2050.916Z" transform="translate(-3165.289 -2034.108)" fill="#65657c"/>
    <path id="Path_1370" data-name="Path 1370" d="M3205.1,2059.609c.39.869,5.039,1.1,6.5,1.441.389-2.911,2.381-10.867,1.767-14.3-.5-2.823-2.192-2.946-3.842-.423C3206.779,2050.52,3205.525,2057.215,3205.1,2059.609Z" transform="translate(-3187.318 -2043.46)" fill="#273749"/>
    <path id="Path_1371" data-name="Path 1371" d="M3366.157,2092.8a7.984,7.984,0,0,1,9.658-6.071c4.852,1.114,6.461,5.716,5.546,9.685-1.053,4.567-4.824,7.06-9.174,6.061A7.971,7.971,0,0,1,3366.157,2092.8Zm1.551.357c-.88,3.82,2.309,7.354,4.8,7.926a6.658,6.658,0,0,0,7.425-4.9c.91-3.947-2.116-7.531-4.438-8.064C3373,2087.545,3368.587,2089.334,3367.708,2093.154Z" transform="translate(-3332.555 -2081.368)" fill="#536e9c"/>
    <path id="Path_1372" data-name="Path 1372" d="M3029.075,2189.572c1.39.85,10.879,5.768,14.189,7.26,13.3,3.671,32.513,5.861,36.751,4.047,3.145-10.787,9.634-44.964,5.944-50.577-3.28-4.988-36.135-12.95-39.975-9.787C3041.537,2146.963,3030.273,2183.893,3029.075,2189.572Z" transform="translate(-3028.372 -2129.481)" fill="#56b8ba"/>
    <g id="Group_1083" data-name="Group 1083" transform="translate(15.875 10.952)" opacity="0.2">
      <path id="Path_1373" data-name="Path 1373" d="M3185.533,2150.451c3.121-3.767,8.519-4.115,10.17.356,2.681,7.26-2.9,27.213-3.46,32.119,12.753,3.3,29.118,6.841,32.953,6.041,3.707-17.858,5.391-29.652,1-32.99-3.832-2.916-28.03-11.6-38.388-9.164C3186.991,2148.323,3185.075,2151,3185.533,2150.451Z" transform="translate(-3185.464 -2146.387)"/>
    </g>
    <path id="Path_1374" data-name="Path 1374" d="M3182.847,2142.316c3.12-3.766,10.915-1.561,12.566,2.91,2.682,7.26-1.257,22.772-1.817,27.679,12.754,3.3,29.169,7.008,33,6.208,4.335-16.381,3.013-27.7-1.374-31.039-3.832-2.916-30.934-11.387-41.294-8.951C3183.112,2140.631,3182.389,2142.87,3182.847,2142.316Z" transform="translate(-3167.098 -2128.482)" fill="#62c9d1"/>
    <path id="Path_1375" data-name="Path 1375" d="M3021.835,2201.324c1.145,1.2,11.38,6.687,14.892,7.5,2.562-10.245,10.884-47.411,10.39-52.008-.438-4.086-7.929-5.092-9.682-1.685C3035,2159.872,3022.691,2196.188,3021.835,2201.324Z" transform="translate(-3021.835 -2141.475)" fill="#3ca09d"/>
    <path id="Path_1376" data-name="Path 1376" d="M3082.99,2543.64c-1.051,5.175-2.016,9.743-2.849,12.6-4.239,1.814-23.58-.445-36.878-4.116-3.31-1.492-12.8-6.41-14.189-7.26.354-1.675,1.586-6.077,3.257-11.6C3037.89,2534.987,3050.017,2538.728,3082.99,2543.64Z" transform="translate(-3028.372 -2484.773)" fill="#8e899b"/>
    <path id="Path_1377" data-name="Path 1377" d="M3021.835,2537.148c.27-1.616,1.675-6.327,3.548-12.165,5.034,1.563,10.189,3.159,14.849,4.6-1.427,6.385-2.73,11.962-3.506,15.063C3033.216,2543.835,3022.98,2538.346,3021.835,2537.148Z" transform="translate(-3021.835 -2477.299)" fill="#7c778c"/>
    <path id="Path_1378" data-name="Path 1378" d="M3287.3,2622.9a77.722,77.722,0,0,1,2.823-11.1c5.033,1.563,18.467,2.676,22.822,3.515-.12,3.464-1.542,8.118-2.332,10.616C3306.693,2625.925,3288.45,2624.1,3287.3,2622.9Z" transform="translate(-3261.549 -2555.697)" fill="#4e4e68"/>
    <g id="Group_1084" data-name="Group 1084" transform="translate(28.522 56.153)" opacity="0.2">
      <path id="Path_1379" data-name="Path 1379" d="M3315.82,2619.8c.386-2.032,1.227-4.447.132-7.526,5.063,1.432,17.239,3.527,21.581,4.419a8.194,8.194,0,0,1-.124,5.953A56.645,56.645,0,0,1,3315.82,2619.8Z" transform="translate(-3315.82 -2612.277)"/>
    </g>
    <path id="Path_1380" data-name="Path 1380" d="M3317.223,2616.932c.36-2.272.369-3.847-.859-5.732,5.064,1.432,18.835,2.682,23.177,3.573a6.513,6.513,0,0,1-.194,5.3C3338.663,2621.42,3317.131,2619.52,3317.223,2616.932Z" transform="translate(-3287.789 -2555.152)" fill="#7c7c93"/>
    <path id="Path_1381" data-name="Path 1381" d="M3553.412,2205.009a4.429,4.429,0,0,1,1.634,2.133c3.955,11.458-3.218,35.58-3.309,35.883a1.266,1.266,0,0,1-1.5.874c-.027-.006-.078-.02-.078-.02a1.267,1.267,0,0,1-.854-1.574c2.666-8.966,7.872-35.9.132-38.713C3549.11,2203.47,3553.02,2204.81,3553.412,2205.009Z" transform="translate(-3498.086 -2187.082)" fill="#44312e"/>
    <path id="Path_1382" data-name="Path 1382" d="M3357.136,2151.961l.033.011a11.894,11.894,0,0,1,3.365.679,4.783,4.783,0,0,1,1.461,2.433c1.881,6.91.629,19.792-3.76,38.507a1.266,1.266,0,0,1-2.466-.576C3361.292,2169.465,3361.791,2154.192,3357.136,2151.961Z" transform="translate(-3323.341 -2140.469)" fill="#44312e"/>
    <path id="Path_1383" data-name="Path 1383" d="M3365.305,2442.272a.477.477,0,0,1-.153-.494,23.234,23.234,0,0,0,.767-4.093.476.476,0,0,1,.207-.377.56.56,0,0,1,.43-.059c.18.032,2.854.6,2.977.631a.476.476,0,0,1,.358.458,20.618,20.618,0,0,1-.824,4.374.475.475,0,0,1-.376.283,5.345,5.345,0,0,1-1.752-.186A5.929,5.929,0,0,1,3365.305,2442.272Zm3.972-3.491c-.194-.038-2.068-.411-2.449-.492a27.722,27.722,0,0,1-.653,3.336,16.547,16.547,0,0,0,2.459.528A25.76,25.76,0,0,0,3369.278,2438.781Z" transform="translate(-3331.829 -2398.064)" fill="#b27966"/>
    <path id="Path_1384" data-name="Path 1384" d="M3560.649,2475.963a.474.474,0,0,1-.151-.492,23.435,23.435,0,0,0,.766-4.093.48.48,0,0,1,.207-.377.557.557,0,0,1,.43-.059c.18.033,2.855.6,2.978.632a.475.475,0,0,1,.358.458,20.667,20.667,0,0,1-.824,4.375.477.477,0,0,1-.376.283,5.4,5.4,0,0,1-1.751-.186A5.943,5.943,0,0,1,3560.649,2475.963Zm3.973-3.49c-.2-.039-2.068-.41-2.449-.492a27.53,27.53,0,0,1-.653,3.336,16.662,16.662,0,0,0,2.46.527A25.875,25.875,0,0,0,3564.622,2472.472Z" transform="translate(-3508.221 -2428.486)" fill="#b27966"/>
    <path id="Path_1385" data-name="Path 1385" d="M3043.171,2467.105c-1.925-2.311,2.985-12.395,4.988-18.634,2.569.835,9.558,2.814,11.688,3.141-.451,3.388-4.583,18.272-5.268,20.795C3052.393,2472.027,3044.438,2468.127,3043.171,2467.105Z" transform="translate(-3040.705 -2408.211)" fill="#4e4e68"/>
    <g id="Group_1085" data-name="Group 1085" transform="translate(5.358 41.138)" opacity="0.2">
      <path id="Path_1386" data-name="Path 1386" d="M3077.062,2462.386a19.7,19.7,0,0,1,2.282-4.863c2.426.826,9.086,1.985,11.2,2.365a22.283,22.283,0,0,0-3.056,6.191C3085.555,2466.223,3077.582,2463.122,3077.062,2462.386Z" transform="translate(-3077.062 -2457.522)"/>
    </g>
    <path id="Path_1387" data-name="Path 1387" d="M3080.352,2455.934c1.136-2.56,2.236-4.426,3.63-4.837-3.338-.585-9.542-2.593-11.612-3.177-1.2.292-2.32,1.788-2.96,4.219C3071.087,2453.116,3077.933,2455.271,3080.352,2455.934Z" transform="translate(-3064.793 -2407.714)" fill="#7c7c93"/>
  </g>
</svg>
