<svg xmlns="http://www.w3.org/2000/svg" width="58.781" height="71.105" viewBox="0 0 58.781 71.105">
  <g id="Group_2068" data-name="Group 2068" transform="translate(-373.698 -987.87)">
    <g id="Group_1066" data-name="Group 1066" transform="translate(408.658 1005.353) rotate(50)">
      <path id="Path_1273" data-name="Path 1273" d="M21.512,9.155s-9.133-.768-12.275,2.159C4.823,7.542,0,4.059,0,4.059S5.274,0,8.217,0C10.868,0,21.512,9.155,21.512,9.155Z" transform="translate(25.659 14.936)" fill="#e54205"/>
      <path id="Path_1274" data-name="Path 1274" d="M21.512,5.1S12.379,4.329,9.237,7.255C4.823,3.483,0,0,0,0S6.593,4.4,9.536,4.4c1.312,0,8.416-1.426,6.234-3.952C18.8,2.761,21.512,5.1,21.512,5.1Z" transform="translate(25.659 18.995)" fill="#c13105"/>
      <path id="Path_1275" data-name="Path 1275" d="M11.138,20.368S9.01,11.513,11.456,7.99C7.042,4.217,2.855,0,2.855,0S-.4,5.785.04,8.676C.432,11.279,11.138,20.368,11.138,20.368Z" transform="translate(19.342 22.99)" fill="#e54205"/>
      <path id="Path_1276" data-name="Path 1276" d="M8.283,20.368S6.156,11.513,8.6,7.99C4.187,4.217,0,0,0,0S5.369,5.818,5.8,8.709C6,10,5.64,17.188,2.8,15.421,5.553,18.051,8.283,20.368,8.283,20.368Z" transform="translate(22.197 22.99)" fill="#c13105"/>
      <path id="Path_1277" data-name="Path 1277" d="M31.156,33.259c-4.979-.829-12.088-3.922-18.629-9.547C2.113,14.756-1.075,2.278.3.675,1.861-1.135,14.5.357,24.91,9.313,31.451,14.939,35.5,21.587,37.058,26.4Z" transform="translate(0 0)" fill="#fccec3"/>
      <path id="Path_1278" data-name="Path 1278" d="M10.149,0c.164.254.321.506.477.758A57.78,57.78,0,0,0,.819,12.021C.548,11.9.275,11.78,0,11.653A56.6,56.6,0,0,1,4.454,5.761,56.214,56.214,0,0,1,10.149,0Z" transform="translate(23.281 19.034)" fill="#fff"/>
      <path id="Path_1279" data-name="Path 1279" d="M0,9.384a25.176,25.176,0,0,0,4.2-3.9A25.186,25.186,0,0,0,7.8,0c.141.043.283.088.426.134A25.593,25.593,0,0,1,4.533,5.768,25.633,25.633,0,0,1,.2,9.791C.128,9.654.064,9.52,0,9.384Z" transform="translate(2.55 1.267)" fill="#e54205"/>
      <path id="Path_1280" data-name="Path 1280" d="M9.316,0c.076.132.152.263.225.394A58.36,58.36,0,0,0,.421,10.877c-.14-.054-.28-.11-.421-.166A58.819,58.819,0,0,1,9.316,0Z" transform="translate(25.191 20.801)" fill="#fff"/>
      <path id="Path_1281" data-name="Path 1281" d="M6.1,6.026A16.2,16.2,0,0,1,2.008,9.467C.069,5.013-.387,1.477.3.674,1.071-.219,4.536-.306,9.1.907A15.964,15.964,0,0,1,6.1,6.026Z" transform="translate(0 0.001)" fill="#e54205"/>
      <path id="Path_1282" data-name="Path 1282" d="M1.574,7.653a4.384,4.384,0,0,0,6.188-.381A4.384,4.384,0,0,0,7.212,1.1a4.384,4.384,0,0,0-6.188.38A4.385,4.385,0,0,0,1.574,7.653Z" transform="translate(7.736 6.836)" fill="#e54205"/>
      <path id="Path_1283" data-name="Path 1283" d="M1.3,6.325a3.624,3.624,0,0,0,5.114-.315,3.624,3.624,0,0,0-.454-5.1,3.625,3.625,0,0,0-5.115.315A3.625,3.625,0,0,0,1.3,6.325Z" transform="translate(8.498 7.595)" fill="#36b5c9"/>
      <rect id="Rectangle_323" data-name="Rectangle 323" width="9.463" height="0.706" transform="translate(30.78 33.196) rotate(-49.305)" fill="#e54205"/>
      <rect id="Rectangle_324" data-name="Rectangle 324" width="10.172" height="1.671" transform="translate(30.974 33.83) rotate(-49.304)" fill="#c13105"/>
      <path id="Path_1284" data-name="Path 1284" d="M7.485,7.973c4.669,3.991,8.764,6.533,9.067,6.183.281-.324-2.838-3.993-7.507-7.984S.2-.212.007.015C-.166.215,2.815,3.982,7.485,7.973Z" transform="translate(23.887 21.018)" fill="#e54205"/>
      <path id="Path_1285" data-name="Path 1285" d="M1.14.587,7.246,3.661a3.637,3.637,0,0,0-.078-1.071L2.023,0A3.45,3.45,0,0,0,1.14.587Zm-.717,4.3,3.89,1.959a3.592,3.592,0,0,0,.671-.178L.157,4.242A3.619,3.619,0,0,0,.423,4.892ZM.009,3.444,5.7,6.307A3.426,3.426,0,0,0,7.014,4.675L.489,1.389A3.528,3.528,0,0,0,.009,3.444Z" transform="translate(8.501 7.927)" fill="#fff" opacity="0.47"/>
    </g>
    <g id="Group_1082" data-name="Group 1082" transform="translate(373.698 987.87)">
      <path id="Path_1337" data-name="Path 1337" d="M2772.3,448.2a11.156,11.156,0,1,0,11.155-11.156A11.156,11.156,0,0,0,2772.3,448.2Z" transform="translate(-2767.858 -431.778)" fill="#f9cf4b" fill-rule="evenodd"/>
      <path id="Path_1338" data-name="Path 1338" d="M2980.247,671.4a.214.214,0,0,0,.215-.214.967.967,0,1,1,1.934,0,.215.215,0,0,0,.429,0,1.4,1.4,0,1,0-2.792,0A.215.215,0,0,0,2980.247,671.4Z" transform="translate(-2965.129 -652.809)" fill="#9b5e31" fill-rule="evenodd"/>
      <path id="Path_1339" data-name="Path 1339" d="M2881.414,671.4a.214.214,0,0,0,.215-.214.967.967,0,1,1,1.934,0,.215.215,0,0,0,.429,0,1.4,1.4,0,1,0-2.792,0A.214.214,0,0,0,2881.414,671.4Z" transform="translate(-2871.273 -652.809)" fill="#9b5e31" fill-rule="evenodd"/>
      <path id="Path_1340" data-name="Path 1340" d="M2932.606,729.573a1.4,1.4,0,0,0,1.39-1.283.214.214,0,0,0-.2-.232.217.217,0,0,0-.231.2.967.967,0,0,1-1.927-.156.215.215,0,1,0-.428-.035,1.4,1.4,0,0,0,1.279,1.505C2932.53,729.571,2932.568,729.573,2932.606,729.573Z" transform="translate(-2918.763 -707.962)" fill="#9b5e31" fill-rule="evenodd"/>
      <g id="Group_1081" data-name="Group 1081" transform="translate(0)">
        <path id="Path_1341" data-name="Path 1341" d="M2966.278,336.523h-2.852l.983-4Z" transform="translate(-2949.359 -332.526)" fill="#f9cf4b" fill-rule="evenodd"/>
        <path id="Path_1342" data-name="Path 1342" d="M3057.979,366.635l-2.677-1.016,2.677-2.717Z" transform="translate(-3036.61 -361.373)" fill="#f9cf4b" fill-rule="evenodd"/>
        <path id="Path_1343" data-name="Path 1343" d="M3135.76,428.45l-1.925-1.546,3.313-1.134Z" transform="translate(-3111.188 -421.076)" fill="#f9cf4b" fill-rule="evenodd"/>
        <path id="Path_1344" data-name="Path 1344" d="M3191.753,496.978l-1.344-2.515,3.631-.535Z" transform="translate(-3164.914 -485.802)" fill="#f9cf4b" fill-rule="evenodd"/>
        <path id="Path_1345" data-name="Path 1345" d="M3231.382,594.88l-.379-2.206,3.334.648Z" transform="translate(-3203.464 -579.577)" fill="#f9cf4b" fill-rule="evenodd"/>
        <path id="Path_1346" data-name="Path 1346" d="M3228.438,673.921l.446-2.816,3.219,1.765Z" transform="translate(-3201.029 -654.058)" fill="#f9cf4b" fill-rule="evenodd"/>
        <path id="Path_1347" data-name="Path 1347" d="M2968.029,895.652h-2.852l1.333,3.015Z" transform="translate(-2951.022 -867.3)" fill="#f9cf4b" fill-rule="evenodd"/>
        <path id="Path_1348" data-name="Path 1348" d="M3059.723,870.537l-2.665,1.016,2.987,3.017Z" transform="translate(-3038.277 -843.45)" fill="#f9cf4b" fill-rule="evenodd"/>
        <path id="Path_1349" data-name="Path 1349" d="M3137.694,820.8l-2.092,1.938,2.759,1.191Z" transform="translate(-3112.867 -796.22)" fill="#f9cf4b" fill-rule="evenodd"/>
        <path id="Path_1350" data-name="Path 1350" d="M3193.508,753.068l-1.344,2.515,2.663.393Z" transform="translate(-3166.581 -731.895)" fill="#f9cf4b" fill-rule="evenodd"/>
        <path id="Path_1351" data-name="Path 1351" d="M2876.781,366.635l2.677-1.016-2.677-2.717Z" transform="translate(-2867.077 -361.373)" fill="#f9cf4b" fill-rule="evenodd"/>
        <path id="Path_1352" data-name="Path 1352" d="M2793.213,426.007l2.092-1.938-2.975-1.284Z" transform="translate(-2786.877 -418.241)" fill="#f9cf4b" fill-rule="evenodd"/>
        <path id="Path_1353" data-name="Path 1353" d="M2731.288,505.353l1.345-2.515-3.3-.091Z" transform="translate(-2727.053 -494.177)" fill="#f9cf4b" fill-rule="evenodd"/>
        <path id="Path_1354" data-name="Path 1354" d="M2698.62,583.466l.484-2.811-3.034,1.04Z" transform="translate(-2695.464 -568.163)" fill="#f9cf4b" fill-rule="evenodd"/>
        <path id="Path_1355" data-name="Path 1355" d="M2687.693,673.921l-.446-2.816-3.219,1.765Z" transform="translate(-2684.028 -654.058)" fill="#f9cf4b" fill-rule="evenodd"/>
        <path id="Path_1356" data-name="Path 1356" d="M2866.119,870.537l2.665,1.016-3.15,2.969Z" transform="translate(-2856.491 -843.45)" fill="#f9cf4b" fill-rule="evenodd"/>
        <path id="Path_1357" data-name="Path 1357" d="M2786.756,820.8l2.094,1.938-3.224.819Z" transform="translate(-2780.51 -796.22)" fill="#f9cf4b" fill-rule="evenodd"/>
        <path id="Path_1358" data-name="Path 1358" d="M2723.249,753.068l1.025,1.918-3.312,1.133Z" transform="translate(-2719.103 -731.895)" fill="#f9cf4b" fill-rule="evenodd"/>
      </g>
      <path id="Path_1359" data-name="Path 1359" d="M2842.064,717.546c0,.263.441.477.985.477s.985-.213.985-.477-.441-.477-.985-.477S2842.064,717.283,2842.064,717.546Z" transform="translate(-2834.107 -697.708)" fill="#fc9595" fill-rule="evenodd"/>
      <path id="Path_1360" data-name="Path 1360" d="M3032.615,717.546c0,.263.44.477.984.477s.986-.213.986-.477-.441-.477-.986-.477S3032.615,717.283,3032.615,717.546Z" transform="translate(-3015.065 -697.708)" fill="#fc9595" fill-rule="evenodd"/>
    </g>
    <path id="Path_1361" data-name="Path 1361" d="M2521.561,1184.215l2.051,2.769,3.443-.119-2,2.805,1.178,3.238-3.287-1.035-2.715,2.12-.031-3.445-2.855-1.927,3.267-1.094Z" transform="translate(-2095.314 -174.491)" fill="#f7d64b"/>
  </g>
</svg>
