<svg xmlns="http://www.w3.org/2000/svg" width="98.983" height="95.7" viewBox="0 0 98.983 95.7">
  <g id="Group_1107" data-name="Group 1107" transform="translate(-6668.846 -1900.037)">
    <circle id="Ellipse_82" data-name="Ellipse 82" cx="39.64" cy="39.64" r="39.64" transform="translate(6678.024 1907.649)" fill="#aad8e8"/>
    <path id="Path_1408" data-name="Path 1408" d="M180.3,334.541a.635.635,0,0,1-.571-.356l-25.67-52.391a.635.635,0,0,1,1.14-.559l25.67,52.391a.635.635,0,0,1-.569.914Z" transform="translate(6527.238 1645.617)" fill="#441713"/>
    <path id="Path_1409" data-name="Path 1409" d="M298.625,368.838a.635.635,0,0,1-.6-.42l-17.109-47.574a.635.635,0,0,1,1.195-.43l17.109,47.574a.635.635,0,0,1-.6.85Z" transform="translate(6415.976 1611.32)" fill="#441713"/>
    <path id="Path_1410" data-name="Path 1410" d="M537.6,350.555a.635.635,0,0,1-.568-.918L562.013,299.5a.635.635,0,1,1,1.136.566L538.165,350.2A.635.635,0,0,1,537.6,350.555Z" transform="translate(6191.435 1629.603)" fill="#441713"/>
    <path id="Path_1411" data-name="Path 1411" d="M480.221,373.122a.635.635,0,0,1-.591-.866l18.376-46.972a.635.635,0,1,1,1.182.462l-18.376,46.972A.635.635,0,0,1,480.221,373.122Z" transform="translate(6241.744 1607.036)" fill="#441713"/>
    <path id="Path_1412" data-name="Path 1412" d="M650.835,384.956a2.191,2.191,0,0,0-1.222.371,2.473,2.473,0,0,0-3.115-2.363c0-.028,0-.056,0-.085a3.569,3.569,0,0,0-6.9-1.268,3.955,3.955,0,0,1-4.985,1.978,2.859,2.859,0,1,0,1.428,5.335,4.48,4.48,0,0,0,4.1,2.218,4.838,4.838,0,0,0,3.571-1.44,6.132,6.132,0,0,0,2.788.626,5.5,5.5,0,0,0,3.534-1.124,2.2,2.2,0,1,0,.8-4.249Z" transform="translate(6108.32 1559.309)" fill="#fff"/>
    <path id="Path_1413" data-name="Path 1413" d="M151.285,434.527a1.792,1.792,0,0,0,.023-.281c0-1.39-1.615-2.517-3.607-2.517a4.436,4.436,0,0,0-2.645.807,2.7,2.7,0,0,0-5.065.807,2.7,2.7,0,1,0,.23,4.794,4.229,4.229,0,0,0,3.873,2.094,4.567,4.567,0,0,0,3.371-1.359,5.788,5.788,0,0,0,2.632.591c2.26,0,4.093-1.129,4.093-2.522C154.191,435.8,152.967,434.841,151.285,434.527Z" transform="translate(6542.861 1513.925)" fill="#fff"/>
    <path id="Path_1414" data-name="Path 1414" d="M406.369,74.4a5.917,5.917,0,0,1-5.388-8.364,6.113,6.113,0,1,0,8.583,7.425A5.887,5.887,0,0,1,406.369,74.4Z" transform="translate(6313.57 1834)" fill="#ffeb95"/>
    <g id="Group_1094" data-name="Group 1094" transform="translate(6673.974 1904.58)">
      <path id="Path_1415" data-name="Path 1415" d="M422.594,526.712l.091.855.755.41-.785.35-.156.845-.576-.638-.852.112.429-.745-.37-.776.841.178Z" transform="translate(-380.921 -474.518)" fill="#d3eae9"/>
      <path id="Path_1416" data-name="Path 1416" d="M665.853,581.981l.091.855.755.41-.785.35-.156.845-.576-.638-.852.112.429-.745-.37-.776.841.178Z" transform="translate(-594.219 -522.979)" fill="#d3eae9"/>
      <path id="Path_1417" data-name="Path 1417" d="M598.435,512.56l.091.855.755.41-.785.35-.157.845-.576-.638-.852.112.429-.745-.37-.776.841.178Z" transform="translate(-535.105 -462.108)" fill="#d3eae9"/>
      <path id="Path_1418" data-name="Path 1418" d="M465.626,468.259l.091.855.755.41-.785.35-.156.845-.576-.638-.852.112.429-.745-.37-.776.841.178Z" transform="translate(-418.653 -423.264)" fill="#d3eae9"/>
      <path id="Path_1419" data-name="Path 1419" d="M172.785,571.993l.091.855.755.41-.785.35-.156.845-.576-.638-.852.112.429-.745-.37-.776.841.178Z" transform="translate(-161.879 -514.221)" fill="#d3eae9"/>
      <path id="Path_1420" data-name="Path 1420" d="M203.89,685.009l.091.855.755.41-.785.35-.156.845-.576-.638-.852.112.429-.745-.37-.776.841.178Z" transform="translate(-189.153 -613.319)" fill="#d3eae9"/>
      <path id="Path_1421" data-name="Path 1421" d="M252.7,379.31l.091.855.755.41-.785.35-.156.845-.576-.638-.852.112.429-.745-.37-.776.841.178Z" transform="translate(-231.952 -345.27)" fill="#d3eae9"/>
      <path id="Path_1422" data-name="Path 1422" d="M296.542,506.922l.091.855.755.41-.785.35-.156.845-.576-.638-.852.112.429-.745-.37-.776.841.178Z" transform="translate(-270.394 -457.165)" fill="#d3eae9"/>
      <path id="Path_1423" data-name="Path 1423" d="M833.579,532.536l.091.855.755.41-.785.35-.157.845-.576-.638-.852.112.429-.745-.37-.776.841.178Z" transform="translate(-741.288 -479.624)" fill="#d3eae9"/>
      <path id="Path_1424" data-name="Path 1424" d="M800.723,360.671l.091.855.756.41-.785.35-.156.845-.576-.638-.852.112.429-.745-.37-.776.841.178Z" transform="translate(-712.479 -328.926)" fill="#d3eae9"/>
      <path id="Path_1425" data-name="Path 1425" d="M731.669,536.7l.091.855.755.41-.785.35-.156.845-.576-.638-.852.112.429-.745-.37-.776.841.178Z" transform="translate(-651.93 -483.275)" fill="#d3eae9"/>
      <path id="Path_1426" data-name="Path 1426" d="M546.208,399.985l.091.855.755.41-.785.35-.156.845-.576-.638-.852.112.429-.745-.37-.776.841.178Z" transform="translate(-489.31 -363.398)" fill="#d3eae9"/>
      <path id="Path_1427" data-name="Path 1427" d="M430.3,219.4l.091.855.755.41-.785.35-.156.845-.576-.638-.852.112.429-.745-.37-.776.841.178Z" transform="translate(-387.678 -205.052)" fill="#d3eae9"/>
      <path id="Path_1428" data-name="Path 1428" d="M527.572,110.73l.091.855.755.41-.785.35-.156.845-.576-.638-.852.112.429-.745-.37-.776.841.178Z" transform="translate(-472.969 -109.768)" fill="#d3eae9"/>
      <path id="Path_1429" data-name="Path 1429" d="M224.236,102.921l.091.855.755.41-.785.35-.156.845-.576-.638-.852.112.429-.745-.37-.776.841.178Z" transform="translate(-206.993 -102.921)" fill="#d3eae9"/>
      <path id="Path_1430" data-name="Path 1430" d="M656.234,112.909l.091.855.755.41-.785.35-.156.845-.576-.638-.852.112.429-.745-.37-.776.841.178Z" transform="translate(-585.785 -111.678)" fill="#d3eae9"/>
      <path id="Path_1431" data-name="Path 1431" d="M96.6,350.683l.091.855.755.41-.785.35-.156.845-.576-.638-.852.112.429-.745-.37-.776.841.178Z" transform="translate(-95.075 -320.168)" fill="#d3eae9"/>
      <path id="Path_1432" data-name="Path 1432" d="M658.114,369.323l.091.855.755.41-.785.35-.156.845-.576-.638-.852.112.429-.745-.37-.776.841.178Z" transform="translate(-587.434 -336.512)" fill="#d3eae9"/>
      <path id="Path_1433" data-name="Path 1433" d="M373.629,441.966l.091.855.755.41-.785.35-.156.845-.576-.638-.852.112.429-.745-.37-.776.841.178Z" transform="translate(-337.986 -400.209)" fill="#d3eae9"/>
    </g>
    <g id="Group_1095" data-name="Group 1095" transform="translate(6668.846 1907.088)">
      <path id="Path_1434" data-name="Path 1434" d="M409.809,366.907c-2.55.2-5.734,1.194-5.918,1.73.558,1.236,2.716,3.873,5.613,3.873s5.862-2.307,6.48-4A13.105,13.105,0,0,0,409.809,366.907Z" transform="translate(-360.729 -336.892)" fill="#137075"/>
      <path id="Path_1435" data-name="Path 1435" d="M164.044,134.235c-.6.019-6.182,2.161-7.974,2.49a76.92,76.92,0,0,0,7.3-3.719,13.085,13.085,0,0,0-2.328-4.035c-2.824.217-14.1,5.545-24.934,10.732a128.32,128.32,0,0,1,24.213-11.6.521.521,0,0,0-.328-.989,123.968,123.968,0,0,0-23.3,11.016,125.6,125.6,0,0,1,22.86-11.284.521.521,0,1,0-.345-.983c-5.532,1.94-14.715,5.92-27.045,13.866-3.64,2.346-6.719,4.5-8.909,6.089-1.254.584-2.422,1.12-3.482,1.594a.519.519,0,0,0-.181-.481c-.04-.033-3.364-2.775-8.529-6.465a52.96,52.96,0,0,0-10.7-7.125,117.984,117.984,0,0,0-19.726-10.025.521.521,0,0,0-.369.974,104.638,104.638,0,0,1,13.6,6.454,45.122,45.122,0,0,0-17.468-1.774,37.675,37.675,0,0,0-2.538,5.211s5.624,2.157,6.781,2.62c-1.268-.291-6.058-1.533-7.109-1.665a21.706,21.706,0,0,0-1.3,4.751c7.831.962,39.816,13.3,39.816,13.3a3.158,3.158,0,0,0,1.03,1.843,17.246,17.246,0,0,1,5.96-.921,50.828,50.828,0,0,1,6.8.921c.449-1.843,1.368-1.918,1.368-1.918l39.368-11.619Z" transform="translate(-69.928 -123.284)" fill="#fff"/>
      <path id="Path_1436" data-name="Path 1436" d="M458.331,214.794c1.829-1.416,3.743-2.729,5.7-3.968q3.365-2.136,6.861-4.048,3.634-1.984,7.4-3.712c2.5-1.155,5.051-2.2,7.62-3.2,1.278-.5,2.579-.937,3.877-1.379,1.258-.429,2.528-.823,3.8-1.2q1.79-.535,3.6-.991l1.214-.3a.832.832,0,0,1,.177-.041.117.117,0,0,1,.059.217.281.281,0,0,1-.058.02c-2.107.627-4.2,1.276-6.288,1.975-2.58.865-5.117,1.847-7.642,2.858-2.555,1.024-5.076,2.151-7.56,3.338s-4.936,2.431-7.351,3.75q-3.535,1.93-6.961,4.049-1.326.821-2.629,1.68-.591.391-1.176.791c-.157.108-.313.218-.469.327a.174.174,0,0,1-.112.047A.117.117,0,0,1,458.331,214.794Z" transform="translate(-408.426 -186.999)" fill="#e7e3e0"/>
      <path id="Path_1437" data-name="Path 1437" d="M153.242,214.794c-1.829-1.416-3.743-2.729-5.7-3.968q-3.365-2.136-6.861-4.048-3.634-1.984-7.4-3.712c-2.5-1.155-5.051-2.2-7.62-3.2-1.278-.5-2.579-.937-3.876-1.379-1.258-.429-2.528-.823-3.8-1.2q-1.79-.535-3.6-.991l-1.214-.3a.835.835,0,0,0-.177-.041.117.117,0,0,0-.059.217.283.283,0,0,0,.058.02c2.107.627,4.2,1.276,6.288,1.975,2.58.865,5.117,1.847,7.642,2.858,2.555,1.024,5.076,2.151,7.559,3.338s4.936,2.431,7.351,3.75q3.535,1.93,6.961,4.049,1.326.821,2.629,1.68.591.391,1.176.791c.157.108.313.218.469.327a.174.174,0,0,0,.112.047A.117.117,0,0,0,153.242,214.794Z" transform="translate(-105.556 -186.999)" fill="#e7e3e0"/>
      <path id="Path_1438" data-name="Path 1438" d="M459.157,250.477c1.96-1.142,3.966-2.209,6-3.21,2.41-1.186,4.856-2.305,7.347-3.311q3.684-1.487,7.491-2.615c.736-.219,1.478-.41,2.22-.606l4.018-1.063c2.606-.689,5.224-1.326,7.842-1.966q3.573-.873,7.169-1.655l.688-.151a.174.174,0,0,1,.077.338l-.188.047q-1.367.338-2.732.68-3.515.883-7.025,1.785-3.957,1.021-7.9,2.083c-1.969.53-3.959,1.022-5.9,1.661-2.614.861-5.2,1.806-7.73,2.892-2.417,1.037-4.807,2.126-7.166,3.293q-1.316.651-2.615,1.336c-.373.2-.745.393-1.115.6-.1.056-.2.122-.311.17C459.131,250.868,458.962,250.591,459.157,250.477Z" transform="translate(-409.113 -222.025)" fill="#e7e3e0"/>
      <path id="Path_1439" data-name="Path 1439" d="M95.352,227.591c2.016.261,4.023.654,6.009,1.083,2.617.565,5.217,1.214,7.787,1.966,2.667.78,5.315,1.63,7.919,2.6,2.585.966,5.137,2.013,7.643,3.169q3.665,1.69,7.161,3.715c1.069.617,2.119,1.264,3.156,1.932l.824.53a.234.234,0,1,1-.248.392c-.769-.477-1.536-.958-2.317-1.415-1.143-.668-2.3-1.317-3.465-1.937q-3.587-1.9-7.319-3.5-3.811-1.636-7.73-3t-7.911-2.462q-3.781-1.045-7.617-1.866c-1.006-.216-2.016-.416-3.029-.6-.285-.05-.57-.1-.855-.144a.335.335,0,0,1-.2-.071A.233.233,0,0,1,95.352,227.591Z" transform="translate(-89.962 -214.742)" fill="#e7e3e0"/>
      <path id="Path_1440" data-name="Path 1440" d="M234.895,216.177a59.49,59.49,0,0,0-2.563,5.4c.752-.354,3.113-1.2,3.113-1.2l1.247,3.468,2.65-5.195A11.165,11.165,0,0,0,234.895,216.177Z" transform="translate(-210.299 -204.736)" fill="#f35844"/>
      <path id="Path_1441" data-name="Path 1441" d="M102.648,274.968a7.956,7.956,0,0,1-6.729-3.984A14.274,14.274,0,0,1,94.441,268L54.449,255.712a1.428,1.428,0,1,1,.839-2.73l40.7,12.508a1.428,1.428,0,0,1,.962,1c.014.053,1.546,5.617,5.695,5.617,4.245,0,6.312-5.582,6.333-5.638a1.434,1.434,0,0,1,.957-.892l40.669-11.451a1.428,1.428,0,0,1,.774,2.75l-40,11.263C110.537,270.026,107.83,274.968,102.648,274.968Z" transform="translate(-53.44 -236.953)" fill="#189aa8"/>
    </g>
    <path id="Path_1442" data-name="Path 1442" d="M289.5,132.391a3.405,3.405,0,0,0-1.1-.363,3.8,3.8,0,0,0-.982,0,4.374,4.374,0,0,0-1.555.535,4.236,4.236,0,0,0-1.786,2.04,4.223,4.223,0,0,0-1.7-.93,4.407,4.407,0,0,0-1.968-.069,5.59,5.59,0,0,0-1.417.452c-.162.076-.409.155-.469.343a.307.307,0,0,0,.234.391.351.351,0,0,0,.216-.038c.11-.049.223-.092.337-.132a4.716,4.716,0,0,1,.685-.183,4.157,4.157,0,0,1,1.374-.054,3.238,3.238,0,0,1,1.536.63,3.324,3.324,0,0,1,.521.494c.06.07.118.141.173.215.1.128.175.268.27.4a.6.6,0,0,0,.866.135c.244-.2.218-.516.26-.8a3.068,3.068,0,0,1,.659-1.486,3.408,3.408,0,0,1,2.189-1.23,2.6,2.6,0,0,1,1.079.084c.186.057.415.218.607.1a.306.306,0,0,0-.025-.528Z" transform="translate(6418.06 1776.166)" fill="#260a04"/>
    <path id="Path_1443" data-name="Path 1443" d="M542.077,172.255a2.882,2.882,0,0,0-.671-.72,3.222,3.222,0,0,0-.728-.4,3.705,3.705,0,0,0-1.372-.237,3.587,3.587,0,0,0-2.158.786,3.576,3.576,0,0,0-.883-1.384,3.73,3.73,0,0,0-1.432-.855,4.726,4.726,0,0,0-1.236-.243c-.152-.01-.367-.052-.488.063a.26.26,0,0,0,.014.386.3.3,0,0,0,.175.06c.1.008.2.023.3.04a3.967,3.967,0,0,1,.583.144,3.525,3.525,0,0,1,1.042.52,2.744,2.744,0,0,1,.883,1.094,2.81,2.81,0,0,1,.185.579c.016.077.03.152.041.23.019.134.021.27.039.4a.509.509,0,0,0,.588.453c.263-.048.372-.294.519-.486a2.6,2.6,0,0,1,1.1-.833,2.887,2.887,0,0,1,2.127-.02,2.208,2.208,0,0,1,.766.5c.115.118.219.331.41.32a.259.259,0,0,0,.2-.4Z" transform="translate(6194.882 1743.556)" fill="#260a04"/>
    <path id="Path_1444" data-name="Path 1444" d="M679.618,505.026a2.88,2.88,0,0,0-.851-.494,3.218,3.218,0,0,0-.813-.174,3.705,3.705,0,0,0-1.382.171,1.587,1.587,0,0,1-3.083.309,3.73,3.73,0,0,0-1.619-.4,4.725,4.725,0,0,0-1.253.126c-.148.035-.366.057-.449.2a.26.26,0,0,0,.125.365.3.3,0,0,0,.185.006c.1-.022.2-.037.3-.05a4.009,4.009,0,0,1,.6-.032,3.524,3.524,0,0,1,1.148.2,2.742,2.742,0,0,1,1.162.791,2.812,2.812,0,0,1,.345.5c.037.069.073.137.106.208.057.123.1.252.155.375a.51.51,0,0,0,.694.263c.237-.122.271-.39.355-.616a2.6,2.6,0,0,1,.806-1.115,2.887,2.887,0,0,1,2.029-.636,2.209,2.209,0,0,1,.879.259c.144.08.305.254.485.188a.259.259,0,0,0,.072-.441Z" transform="translate(6074.664 1449.671)" fill="#260a04"/>
    <path id="Path_1445" data-name="Path 1445" d="M359.182,673.673a1.969,1.969,0,0,1-1.926,2.01h-4.869a1.97,1.97,0,0,1-1.926-2.01v-3.1a1.97,1.97,0,0,1,1.926-2.01h4.869a1.969,1.969,0,0,1,1.926,2.01Z" transform="translate(6354.966 1305.682)" fill="#f9c908"/>
    <path id="Path_1446" data-name="Path 1446" d="M496.419,673.673a1.969,1.969,0,0,1-1.926,2.01h-4.869a1.969,1.969,0,0,1-1.926-2.01v-3.1a1.969,1.969,0,0,1,1.926-2.01h4.869a1.969,1.969,0,0,1,1.926,2.01Z" transform="translate(6234.631 1305.682)" fill="#f35844"/>
    <path id="Path_1447" data-name="Path 1447" d="M299.878,634.172l-3.693-1.694-.081-.037a.828.828,0,0,1-.309-.247l-2.991-3.914a.78.78,0,0,1,1.145-1.05l3.639,3.32-.39-.284,3.693,1.694a1.217,1.217,0,1,1-1.015,2.212Z" transform="translate(6405.662 1342.102)" fill="#ffdecc"/>
    <path id="Path_1448" data-name="Path 1448" d="M408.27,673.43a1.215,1.215,0,0,1-1-.525l-2.739-3.965a1.217,1.217,0,0,1,2-1.383l2.739,3.965a1.217,1.217,0,0,1-1,1.908Z" transform="translate(6307.746 1307.025)" fill="#ffdecc"/>
    <g id="Group_1096" data-name="Group 1096" transform="translate(6695.325 1966.459)">
      <path id="Path_1449" data-name="Path 1449" d="M270.86,620.271a.4.4,0,0,1-.332.666l-1.738-.179a.4.4,0,1,1,.081-.791l1.738.179A.4.4,0,0,1,270.86,620.271Z" transform="translate(-268.433 -618.165)" fill="#ffdecc"/>
      <path id="Path_1450" data-name="Path 1450" d="M273.054,611.324a.4.4,0,0,1-.5.609l-1.43-.88a.4.4,0,1,1,.417-.677l1.43.88A.4.4,0,0,1,273.054,611.324Z" transform="translate(-270.626 -609.704)" fill="#ffdecc"/>
      <path id="Path_1451" data-name="Path 1451" d="M280.658,605.477l.017.02,1.021,1.259a.4.4,0,0,1-.618.5L280.058,606a.4.4,0,0,1,.6-.521Z" transform="translate(-278.548 -605.35)" fill="#ffdecc"/>
      <path id="Path_1452" data-name="Path 1452" d="M272.6,625.868l.024-.007,1.474-.349a.372.372,0,0,1,.171.723l-1.474.349a.372.372,0,0,1-.2-.717Z" transform="translate(-271.859 -623.02)" fill="#ffdecc"/>
      <path id="Path_1453" data-name="Path 1453" d="M296.412,608.884a.4.4,0,0,1,.034.191l-.066.947a.4.4,0,1,1-.794-.055l.066-.947a.4.4,0,0,1,.759-.136Z" transform="translate(-292.242 -608.244)" fill="#ffdecc"/>
      <path id="Path_1454" data-name="Path 1454" d="M284.346,616.962c-.009.736,0,1.058-.861,1.161-.725.086-1.7-.331-1.7-1.067a1.327,1.327,0,0,1,1.321-1.332A1.126,1.126,0,0,1,284.346,616.962Z" transform="translate(-280.14 -614.445)" fill="#ffdecc"/>
    </g>
    <g id="Group_1100" data-name="Group 1100" transform="translate(6702.449 1978.6)">
      <path id="Path_1455" data-name="Path 1455" d="M346.126,720.4c.411,1.808.443,3.675.691,5.513a41.755,41.755,0,0,0,.864,4.658,11.839,11.839,0,0,0,1.484,3.784,2.679,2.679,0,0,0,1.019.958,6.009,6.009,0,0,0,2.428.139h15.167a2.546,2.546,0,0,0,2.255-1.691c1.308-2.493,1.7-5.532,2.053-8.288.217-1.7.255-3.407.633-5.074h-26.6Z" transform="translate(-343.681 -718.372)" fill="#914812"/>
      <path id="Path_1456" data-name="Path 1456" d="M348.625,724.059a2.456,2.456,0,0,0-.881.407c-.121.064.006.614.017.742l.039.455c.012.135.146.073.262.071q.633-.012,1.267-.015c2.139-.013,4.279.011,6.418.052,4.378.084,8.722.316,13.081.728q2.37.224,4.738.471a10.249,10.249,0,0,0,.253-2.7c-.005-.095-.16-.052-.241-.052l-5.748-.037-17.4-.113Z" transform="translate(-345.054 -721.58)" fill="#843f10"/>
      <path id="Path_1457" data-name="Path 1457" d="M355.02,742.941c1.233,1.126,3.048,2.274,4.665,2.224a10.718,10.718,0,0,0,3.773-.942c.382-.159.755-.336,1.131-.51.323-.15.641-.31.956-.475.214-.112.55-.383.815-.328a6.382,6.382,0,0,1,1.738.936c.334.2.666.4,1.006.593a7.683,7.683,0,0,0,3.516,1.086,8.4,8.4,0,0,0,4.3-1.639c.468-.3.913-.63,1.35-.973.355-.21.893-.054.809.454-.071.425-.715.876-1.017,1.148a11.905,11.905,0,0,1-1.593,1.215,7.041,7.041,0,0,1-4.3,1.241,7.616,7.616,0,0,1-3.124-1.016c-1.066-.606-1.955-1.443-2.978-2.109l.484-.036a12,12,0,0,1-6.882,2.76,6.4,6.4,0,0,1-3.655-1.312,8.208,8.208,0,0,1-1.627-1.537c-.174-.22-.3-.481-.1-.737A.5.5,0,0,1,355.02,742.941Z" transform="translate(-350.744 -738.011)" fill="#441713"/>
      <path id="Path_1458" data-name="Path 1458" d="M368.253,705.482a1.572,1.572,0,0,1-1.573,1.555H341.66a1.556,1.556,0,1,1,.048-3.111h24.729A1.626,1.626,0,0,1,368.253,705.482Z" transform="translate(-338.402 -703.927)" fill="#a65c1d"/>
      <path id="Path_1459" data-name="Path 1459" d="M361.575,763.095a3.555,3.555,0,0,1,1.217,4.056,3.953,3.953,0,0,1-1.828,1.909,3.148,3.148,0,0,1-.67.242c-.178.041-.15-.142-.2-.3a1.272,1.272,0,0,1-.055-.974l.576-1.854Z" transform="translate(-355.819 -755.808)" fill="#843f10"/>
      <path id="Path_1460" data-name="Path 1460" d="M524.271,764.051a3.489,3.489,0,0,0-.759,4.209,3.871,3.871,0,0,0,1.834,1.7,2.981,2.981,0,0,0,.557.183c.152.032.158-.278.193-.4a1.029,1.029,0,0,0-.015-.928l-.668-1.761Z" transform="translate(-498.863 -756.646)" fill="#843f10"/>
      <g id="Group_1097" data-name="Group 1097" transform="translate(0 3.765)">
        <path id="Path_1461" data-name="Path 1461" d="M332.84,740.582a5.645,5.645,0,0,0-1.353-3.357c-.354-.456-.623-.638-.644-1.225a2.192,2.192,0,0,1,.164-.86c.081-.23.055-.478-.2-.571a5.071,5.071,0,0,0-1.5-.022c-.389-.012-1.389-.2-1.216.507.109.443.359,1.01.135,1.464a5.252,5.252,0,0,1-.621.74,7.6,7.6,0,0,0-.563.836,4.393,4.393,0,0,0-.594,3.577,2.835,2.835,0,0,0,2.506,1.747C330.84,743.625,332.84,742.706,332.84,740.582Z" transform="translate(-326.276 -734.495)" fill="#bc802a"/>
        <path id="Path_1462" data-name="Path 1462" d="M331.178,750.731c.147.166.283.343.422.515a6.287,6.287,0,0,0-5.278,3.41,5.573,5.573,0,0,1,.3-1.71c.271-.756.833-2,1.649-2.267a3.13,3.13,0,0,1,1.363-.287Z" transform="translate(-326.316 -748.418)" fill="#aa6d1d"/>
        <path id="Path_1463" data-name="Path 1463" d="M341.537,739.591a.742.742,0,0,1-.062-.176q.644-.011,1.288-.034a6.656,6.656,0,0,0,1.588-.123c-.093.274-.061.334-.323.334h-2.492Z" transform="translate(-339.603 -738.67)" fill="#aa6d1d"/>
        <path id="Path_1464" data-name="Path 1464" d="M340.087,742.593H336.9a11.605,11.605,0,0,0-.481-1.017.5.5,0,0,1,.229-.544,2.024,2.024,0,0,1,.915-.067h1.592a3.73,3.73,0,0,1,.873.015c.483.123.212.571.413.777A.5.5,0,0,1,340.087,742.593Z" transform="translate(-335.154 -740.15)" fill="#441713"/>
      </g>
      <g id="Group_1098" data-name="Group 1098" transform="translate(24.535 3.765)">
        <path id="Path_1465" data-name="Path 1465" d="M532.051,740.582a5.646,5.646,0,0,0-1.353-3.357c-.354-.456-.623-.638-.644-1.225a2.2,2.2,0,0,1,.164-.86c.081-.23.055-.478-.2-.571a5.071,5.071,0,0,0-1.5-.022c-.389-.012-1.389-.2-1.216.507.109.443.359,1.01.135,1.464a5.258,5.258,0,0,1-.621.74,7.569,7.569,0,0,0-.563.836,4.393,4.393,0,0,0-.594,3.577,2.835,2.835,0,0,0,2.506,1.747C530.051,743.625,532.051,742.706,532.051,740.582Z" transform="translate(-525.487 -734.495)" fill="#bc802a"/>
        <path id="Path_1466" data-name="Path 1466" d="M530.389,750.731c.147.166.283.343.422.515a6.286,6.286,0,0,0-5.278,3.41,5.574,5.574,0,0,1,.3-1.71c.271-.756.833-2,1.649-2.267a3.13,3.13,0,0,1,1.363-.287Z" transform="translate(-525.527 -748.418)" fill="#aa6d1d"/>
        <path id="Path_1467" data-name="Path 1467" d="M540.748,739.591a.739.739,0,0,1-.062-.176q.644-.011,1.288-.034a6.657,6.657,0,0,0,1.588-.123c-.093.274-.061.334-.323.334h-2.492Z" transform="translate(-538.814 -738.67)" fill="#aa6d1d"/>
        <path id="Path_1468" data-name="Path 1468" d="M539.3,742.593H536.1a.492.492,0,0,1-.375-.814.491.491,0,0,1-.106-.2.5.5,0,0,1,.229-.544,2.024,2.024,0,0,1,.915-.067h1.592a3.729,3.729,0,0,1,.873.015c.483.123.212.571.414.777A.5.5,0,0,1,539.3,742.593Z" transform="translate(-534.362 -740.15)" fill="#441713"/>
      </g>
      <path id="Path_1469" data-name="Path 1469" d="M428.492,771.116c0,.809.95,1.517,1.591,1.821a4.094,4.094,0,0,0,3.887-.236,3.285,3.285,0,0,0,1.322-2.681,2.543,2.543,0,0,0-1.035-2.286,8.4,8.4,0,0,1-.394,3.24,1.333,1.333,0,0,1-1.452.809A19.009,19.009,0,0,1,428.492,771.116Z" transform="translate(-415.903 -759.876)" fill="#843f10"/>
      <g id="Group_1099" data-name="Group 1099" transform="translate(12.288 3.765)">
        <path id="Path_1470" data-name="Path 1470" d="M432.612,740.582a5.645,5.645,0,0,0-1.353-3.357c-.354-.456-.623-.638-.644-1.225a2.193,2.193,0,0,1,.163-.86c.081-.23.055-.478-.2-.571a5.071,5.071,0,0,0-1.5-.022c-.389-.012-1.389-.2-1.216.507.109.443.359,1.01.135,1.464a5.261,5.261,0,0,1-.62.74,7.56,7.56,0,0,0-.563.836,4.393,4.393,0,0,0-.594,3.577,2.835,2.835,0,0,0,2.506,1.747C430.612,743.625,432.612,742.706,432.612,740.582Z" transform="translate(-426.048 -734.495)" fill="#bc802a"/>
        <path id="Path_1471" data-name="Path 1471" d="M430.949,750.731c.147.166.283.343.422.515a6.287,6.287,0,0,0-5.279,3.41,5.577,5.577,0,0,1,.3-1.71c.271-.756.833-2,1.649-2.267a3.13,3.13,0,0,1,1.363-.287Z" transform="translate(-426.087 -748.418)" fill="#aa6d1d"/>
        <path id="Path_1472" data-name="Path 1472" d="M441.308,739.591a.756.756,0,0,1-.062-.176q.644-.011,1.288-.034a6.657,6.657,0,0,0,1.588-.123c-.093.274-.061.334-.323.334h-2.492Z" transform="translate(-439.374 -738.67)" fill="#aa6d1d"/>
        <path id="Path_1473" data-name="Path 1473" d="M439.859,742.593h-3.191a11.547,11.547,0,0,0-.481-1.017.5.5,0,0,1,.229-.544,2.025,2.025,0,0,1,.915-.067h1.592a3.73,3.73,0,0,1,.873.015c.483.123.211.571.413.777A.5.5,0,0,1,439.859,742.593Z" transform="translate(-434.926 -740.15)" fill="#441713"/>
      </g>
      <path id="Path_1474" data-name="Path 1474" d="M374.783,827.2a1.989,1.989,0,0,1-1.452-.7c2.6.067,5.2.064,7.8.011a62.973,62.973,0,0,0,10.8-.844,9.475,9.475,0,0,0,2.182-.636c-.485.876-1.049,2.166-2.227,2.166H374.783Z" transform="translate(-367.536 -810.119)" fill="#843f10"/>
    </g>
    <path id="Path_1475" data-name="Path 1475" d="M376.332,668.563h-1.416s.423,1.028,1.349,1.028a1.9,1.9,0,0,0,1.455-1.028Z" transform="translate(6333.523 1305.682)" fill="#ffdecc"/>
    <path id="Path_1476" data-name="Path 1476" d="M387.315,668.563a1.854,1.854,0,0,1-1.448,1.028C386.96,670.49,388.643,668.839,387.315,668.563Z" transform="translate(6323.92 1305.682)" fill="#eabd00"/>
    <path id="Path_1477" data-name="Path 1477" d="M371.306,668.563a1.652,1.652,0,0,0,1.35,1.028C371.563,670.49,369.978,668.839,371.306,668.563Z" transform="translate(6337.132 1305.682)" fill="#eabd00"/>
    <path id="Path_1478" data-name="Path 1478" d="M378.842,664.026h-2.566a.839.839,0,0,1,0,.688,4.231,4.231,0,0,0,1.279.385l0-.006,0,.006a4.231,4.231,0,0,0,1.279-.385A.839.839,0,0,1,378.842,664.026Z" transform="translate(6332.331 1309.66)" fill="#ffdecc"/>
    <path id="Path_1479" data-name="Path 1479" d="M512.841,668.563h-1.416s.423,1.028,1.349,1.028a1.9,1.9,0,0,0,1.455-1.028Z" transform="translate(6213.827 1305.682)" fill="#ffdecc"/>
    <path id="Path_1480" data-name="Path 1480" d="M515.35,664.026h-2.565a.839.839,0,0,1,0,.688,4.23,4.23,0,0,0,1.279.385l0-.006,0,.006a4.229,4.229,0,0,0,1.279-.385A.84.84,0,0,1,515.35,664.026Z" transform="translate(6212.634 1309.66)" fill="#ffdecc"/>
    <path id="Path_1481" data-name="Path 1481" d="M333.656,657.888a3.134,3.134,0,0,1-1.08,2.546c.956.626,2.145,1.366,3.257,1.049a1.312,1.312,0,0,0,.5-2.3A11.242,11.242,0,0,0,333.656,657.888Z" transform="translate(6370.649 1315.042)" fill="#f9c908"/>
    <path id="Path_1482" data-name="Path 1482" d="M376.563,664.17l.015.137.026.164a2.576,2.576,0,0,0,1.242.316,2.057,2.057,0,0,0,1.148-.309l.073-.22C378.714,664.276,376.563,664.17,376.563,664.17Z" transform="translate(6332.079 1309.534)" fill="#f4bfa2"/>
    <path id="Path_1483" data-name="Path 1483" d="M513.036,664.17l.015.137.026.164a2.576,2.576,0,0,0,1.242.316,2.213,2.213,0,0,0,1.176-.309l.046-.22C515.187,664.276,513.036,664.17,513.036,664.17Z" transform="translate(6212.414 1309.534)" fill="#f4bfa2"/>
    <g id="Group_1101" data-name="Group 1101" transform="translate(6700.359 1959.408)">
      <path id="Path_1484" data-name="Path 1484" d="M437.976,613.447s-.5-3.033-2.431-2.971c-.469-.023-.756.2-1.06,1.2a4.274,4.274,0,0,0,.784,3.3,4.539,4.539,0,0,0,.741-.677l-.068-.852.388.586Z" transform="translate(-418.992 -602.792)" fill="#38140c"/>
      <path id="Path_1485" data-name="Path 1485" d="M433.494,605.451a.585.585,0,0,1-.23.8l-.99.545a.585.585,0,0,1-.8-.23h0a.585.585,0,0,1,.23-.8l.99-.545a.585.585,0,0,1,.8.23Z" transform="translate(-416.369 -598.121)" fill="#f46867"/>
      <path id="Path_1486" data-name="Path 1486" d="M309.309,613.447s.5-3.033,2.431-2.971c.469-.023.756.2,1.06,1.2a4.274,4.274,0,0,1-.784,3.3,4.537,4.537,0,0,1-.741-.677l.068-.852-.388.586Z" transform="translate(-309.309 -602.792)" fill="#38140c"/>
      <path id="Path_1487" data-name="Path 1487" d="M323.878,605.451a.585.585,0,0,0,.23.8l.989.545a.585.585,0,0,0,.8-.23h0a.585.585,0,0,0-.23-.8l-.99-.545a.585.585,0,0,0-.795.23Z" transform="translate(-322.02 -598.121)" fill="#f46867"/>
      <path id="Path_1488" data-name="Path 1488" d="M341.6,568.9c-1.269.087-5.936.663-5.454,7.04a6.4,6.4,0,0,0,7.2,4.9,5.816,5.816,0,0,0,5.259-6.548C348.255,572.05,347.182,568.515,341.6,568.9Z" transform="translate(-332.811 -566.309)" fill="#ffdecc"/>
      <path id="Path_1489" data-name="Path 1489" d="M432.612,616.335c.323.732-.246,2.322-1.552,1.184a.905.905,0,0,1,.29-1.394A1.053,1.053,0,0,1,432.612,616.335Z" transform="translate(-415.871 -607.64)" fill="#ffdecc"/>
      <path id="Path_1490" data-name="Path 1490" d="M329.015,618.557c-.615-.512-.812-2.189.864-1.751a.906.906,0,0,1,.36,1.377A1.053,1.053,0,0,1,329.015,618.557Z" transform="translate(-326.197 -608.28)" fill="#ffdecc"/>
      <path id="Path_1491" data-name="Path 1491" d="M356.33,609a1.4,1.4,0,0,1,.224-.127,2.632,2.632,0,0,1,.519-.176,3.5,3.5,0,0,1,.541-.09,1.8,1.8,0,0,1,.255-.006.25.25,0,0,1,.119.458,1.79,1.79,0,0,1-.226.118,3.517,3.517,0,0,1-.516.185,2.627,2.627,0,0,1-.539.1,1.4,1.4,0,0,1-.257,0,.255.255,0,0,1-.119-.458Z" transform="translate(-350.448 -601.147)" fill="#5e2d1c"/>
      <path id="Path_1492" data-name="Path 1492" d="M404.284,607.277a1.879,1.879,0,0,1,.262-.007,3.764,3.764,0,0,1,.561.063,3.243,3.243,0,0,1,.545.146,1.679,1.679,0,0,1,.24.107.25.25,0,0,1-.089.465,1.656,1.656,0,0,1-.263.01,3.255,3.255,0,0,1-.561-.066,3.772,3.772,0,0,1-.545-.149,1.882,1.882,0,0,1-.241-.1.248.248,0,0,1,.089-.465Z" transform="translate(-392.394 -599.981)" fill="#5e2d1c"/>
      <ellipse id="Ellipse_83" data-name="Ellipse 83" cx="1.417" cy="0.804" rx="1.417" ry="0.804" transform="translate(4.41 10.36)" fill="#f9b28a"/>
      <ellipse id="Ellipse_84" data-name="Ellipse 84" cx="1.417" cy="0.804" rx="1.417" ry="0.804" transform="translate(12.134 10.36)" fill="#f9b28a"/>
      <path id="Path_1493" data-name="Path 1493" d="M388.054,623.053c.326-.019.973,1.035,0,1.045C387.753,623.974,387.728,623.072,388.054,623.053Z" transform="translate(-378.149 -613.821)" fill="#f4bfa2"/>
      <path id="Path_1494" data-name="Path 1494" d="M405.438,618.862a.2.2,0,0,1-.174-.312,1.393,1.393,0,0,1,.9-.617,1.242,1.242,0,0,1,1.019.415.2.2,0,1,1-.284.295.86.86,0,0,0-.682-.3.988.988,0,0,0-.607.427A.206.206,0,0,1,405.438,618.862Z" transform="translate(-393.419 -609.324)"/>
      <path id="Path_1495" data-name="Path 1495" d="M360.83,618.862a.2.2,0,0,1-.174-.1.988.988,0,0,0-.607-.427.86.86,0,0,0-.682.3.2.2,0,0,1-.285-.295,1.242,1.242,0,0,1,1.019-.415,1.393,1.393,0,0,1,.9.617.2.2,0,0,1-.174.313Z" transform="translate(-352.897 -609.324)"/>
      <path id="Path_1496" data-name="Path 1496" d="M341.973,556.683c.173-.691,1.549-3.566-.729-6.032-3.737-4.792-9.042-1.479-9.515-.966a2.944,2.944,0,0,0-2.62,1.907c-1.161,2.5-.259,4.321.435,5.733a9.487,9.487,0,0,1,.938-3.7,3.116,3.116,0,0,0-.014.852,37.269,37.269,0,0,0,5.541.375,21.275,21.275,0,0,0,3.567-.215v-.917l.467.81a7.041,7.041,0,0,0,1.212-.268,2.657,2.657,0,0,0-.195-.84l.088-.009C341.59,554.206,341.137,555.822,341.973,556.683Z" transform="translate(-326.18 -548.093)" fill="#38140c"/>
      <path id="Path_1497" data-name="Path 1497" d="M362.285,570.8c-1.32-.892-5.434-.769-7.558.3A38.693,38.693,0,0,1,362.285,570.8Z" transform="translate(-349.133 -567.487)" fill="#773b2b"/>
      <path id="Path_1498" data-name="Path 1498" d="M383.1,641.438h-1.854s.194.941.927.941S383.1,641.438,383.1,641.438Z" transform="translate(-372.383 -629.942)"/>
      <path id="Path_1499" data-name="Path 1499" d="M385.033,644.831a1.391,1.391,0,0,0-1.333.114.74.74,0,0,0,.747.3A.87.87,0,0,0,385.033,644.831Z" transform="translate(-374.538 -632.815)" fill="#f99"/>
    </g>
    <g id="Group_1104" data-name="Group 1104" transform="translate(6719.24 1959.811)">
      <path id="Path_1500" data-name="Path 1500" d="M475.46,570.536c-1.251.085-5.851.653-5.375,6.939a6.308,6.308,0,0,0,7.1,4.827,5.733,5.733,0,0,0,5.183-6.455C482.02,573.645,480.962,570.161,475.46,570.536Z" transform="translate(-469.135 -568.151)" fill="#ffdecc"/>
      <path id="Path_1501" data-name="Path 1501" d="M565.17,617.3c.319.722-.243,2.289-1.53,1.167a.893.893,0,0,1,.286-1.374A1.038,1.038,0,0,1,565.17,617.3Z" transform="translate(-551.007 -608.89)" fill="#ffdecc"/>
      <path id="Path_1502" data-name="Path 1502" d="M463.054,619.486c-.606-.5-.8-2.158.851-1.726a.892.892,0,0,1,.355,1.358A1.038,1.038,0,0,1,463.054,619.486Z" transform="translate(-462.615 -609.521)" fill="#ffdecc"/>
      <path id="Path_1503" data-name="Path 1503" d="M489.979,610.066a1.37,1.37,0,0,1,.22-.125,2.6,2.6,0,0,1,.511-.174,3.476,3.476,0,0,1,.533-.088,1.763,1.763,0,0,1,.251-.006.246.246,0,0,1,.117.452,1.761,1.761,0,0,1-.223.117,3.47,3.47,0,0,1-.509.182,2.592,2.592,0,0,1-.531.1,1.385,1.385,0,0,1-.253,0,.251.251,0,0,1-.117-.452Z" transform="translate(-486.519 -602.491)" fill="#5e2d1c"/>
      <path id="Path_1504" data-name="Path 1504" d="M537.247,608.369a1.851,1.851,0,0,1,.258-.007,3.713,3.713,0,0,1,.553.062,3.213,3.213,0,0,1,.538.144,1.656,1.656,0,0,1,.237.105.247.247,0,0,1-.088.458,1.639,1.639,0,0,1-.259.01,3.2,3.2,0,0,1-.553-.065,3.718,3.718,0,0,1-.537-.147,1.856,1.856,0,0,1-.237-.1.245.245,0,0,1,.088-.458Z" transform="translate(-527.865 -601.341)" fill="#5e2d1c"/>
      <ellipse id="Ellipse_85" data-name="Ellipse 85" cx="1.396" cy="0.793" rx="1.396" ry="0.793" transform="translate(2.242 10.572)" fill="#f9b28a"/>
      <ellipse id="Ellipse_86" data-name="Ellipse 86" cx="1.396" cy="0.793" rx="1.396" ry="0.793" transform="translate(9.856 10.047)" fill="#f9b28a"/>
      <path id="Path_1505" data-name="Path 1505" d="M521.249,623.919c.321-.019.959,1.021,0,1.03C520.952,624.827,520.928,623.938,521.249,623.919Z" transform="translate(-513.824 -614.984)" fill="#f4bfa2"/>
      <g id="Group_1102" data-name="Group 1102" transform="translate(3.884 8.214)">
        <circle id="Ellipse_87" data-name="Ellipse 87" cx="0.721" cy="0.721" r="0.721"/>
        <circle id="Ellipse_88" data-name="Ellipse 88" cx="0.214" cy="0.214" r="0.214" transform="translate(0.607 0.239)" fill="#fff"/>
      </g>
      <g id="Group_1103" data-name="Group 1103" transform="translate(9.418 8.16)">
        <circle id="Ellipse_89" data-name="Ellipse 89" cx="0.721" cy="0.721" r="0.721"/>
        <circle id="Ellipse_90" data-name="Ellipse 90" cx="0.214" cy="0.214" r="0.214" transform="translate(0.447 0.294)" fill="#fff"/>
      </g>
      <path id="Path_1506" data-name="Path 1506" d="M477.814,555.484c.314.907,1.238,1.529,1.1,3.089.23-.066.427-.62.427-.62.052.649.622,2.068.582,2.412.445-1.349,1.28-2.306.817-4.609s-1.617-3.247-3.112-2.959a7.859,7.859,0,0,0-9.787.588c-.4.341-.559.679.2.653.609-.07.542-.047.542-.047-.2.267-.742.3-1.335,2.275-.324,1.079.421,3.555.421,3.555a5.931,5.931,0,0,1,2.574-4.5C470.9,556.134,475.779,557.366,477.814,555.484Z" transform="translate(-466.612 -551.368)" fill="#260a04"/>
      <path id="Path_1507" data-name="Path 1507" d="M484.763,561.219s4.36-1.4,7.586,1.481A15.641,15.641,0,0,0,484.763,561.219Z" transform="translate(-482.035 -559.707)" fill="#38140c"/>
      <path id="Path_1508" data-name="Path 1508" d="M516.069,643.453s.029.009.076.029c.023.01.048.015.076.026l.1.032c.037.01.075.023.116.032s.083.018.126.028l.066.01c.022,0,.045,0,.067.007l.034,0h.034a.674.674,0,0,0,.068,0l.069,0,.068-.006c.046,0,.09-.014.134-.018s.087-.018.128-.029.081-.02.117-.032.071-.022.1-.031l.08-.028c.045-.015.073-.022.073-.022l.017,0a.158.158,0,0,1,.192.115.16.16,0,0,1-.033.141s-.021.024-.06.064c-.02.019-.044.045-.074.069s-.066.052-.106.08a1.538,1.538,0,0,1-.138.081,1.725,1.725,0,0,1-.167.071l-.094.027-.048.013-.05.008c-.034,0-.068.012-.1.014l-.1,0c-.035,0-.07,0-.1,0a.722.722,0,0,1-.1-.012,1.26,1.26,0,0,1-.194-.047,1.3,1.3,0,0,1-.169-.071,1.244,1.244,0,0,1-.139-.082c-.041-.028-.076-.056-.107-.082s-.059-.053-.077-.072c-.034-.039-.053-.063-.053-.063a.161.161,0,0,1,.03-.225A.163.163,0,0,1,516.069,643.453Z" transform="translate(-509.301 -632.104)"/>
      <path id="Path_1509" data-name="Path 1509" d="M478.518,600.314a.153.153,0,0,0-.21-.057c-.006,0-.529.3-.95.552a2.356,2.356,0,1,0-4.711.029,1.339,1.339,0,0,0-.943-.094,2.1,2.1,0,0,0-.376.126,2.369,2.369,0,1,0-4.73.069,9.567,9.567,0,0,0-1.484-.467.154.154,0,0,0-.069.3,8.157,8.157,0,0,1,1.536.5s0,.006,0,.009a2.428,2.428,0,1,0,4.773,0c0-.029,0-.057,0-.085a1.239,1.239,0,0,1,1.268-.016c0,.034,0,.067,0,.1a2.428,2.428,0,1,0,4.773,0c0-.046,0-.091,0-.136.432-.258,1.066-.621,1.072-.625A.154.154,0,0,0,478.518,600.314Zm-9.55,3.537a2.623,2.623,0,1,1,2.079-2.566A2.364,2.364,0,0,1,468.968,603.851Zm6.037,0a2.623,2.623,0,1,1,2.079-2.566A2.364,2.364,0,0,1,475.005,603.851Z" transform="translate(-464.642 -592.618)"/>
    </g>
    <path id="Path_1510" data-name="Path 1510" d="M350.461,687.268a1.2,1.2,0,0,0,.446.066,3.169,3.169,0,0,0-.446,1.087Z" transform="translate(6354.966 1289.281)" fill="#eabd00"/>
    <path id="Path_1511" data-name="Path 1511" d="M420.83,686.84c.389-.274,1.113-.829,1.69-.723-.071-.119-.256-.436-.256-.436S420.9,686.346,420.83,686.84Z" transform="translate(6293.264 1290.673)" fill="#f4bfa2"/>
    <path id="Path_1512" data-name="Path 1512" d="M403.445,670.821A3.135,3.135,0,0,1,405.527,669c-.588-.98-1.336-2.164-2.474-2.363a1.312,1.312,0,0,0-1.456,1.853A11.24,11.24,0,0,0,403.445,670.821Z" transform="translate(6310.243 1307.391)" fill="#f9c908"/>
    <path id="Path_1513" data-name="Path 1513" d="M487.543,692.176l.578-.3a2.837,2.837,0,0,0-.029,1.533h-.571Z" transform="translate(6234.787 1285.243)" fill="#e2473b"/>
    <path id="Path_1514" data-name="Path 1514" d="M453.78,673.112l-3.583-1.691a1.169,1.169,0,0,1-.019-2.1l.086-.042,4.292-2.118a1.217,1.217,0,0,1,1.077,2.182l-4.293,2.118.067-2.146,3.27,2.237a.9.9,0,0,1-.9,1.565Z" transform="translate(6268.101 1307.026)" fill="#ffdecc"/>
    <g id="Group_1105" data-name="Group 1105" transform="translate(6721.853 1978.06)">
      <path id="Path_1515" data-name="Path 1515" d="M494.88,716.664a.4.4,0,0,0-.514.538l.757,1.575a.4.4,0,0,0,.717-.345l-.757-1.575A.4.4,0,0,0,494.88,716.664Z" transform="translate(-493.033 -714.527)" fill="#ffdecc"/>
      <path id="Path_1516" data-name="Path 1516" d="M498.6,715.325a.4.4,0,0,0-.4.677l1.312,1.047a.4.4,0,0,0,.5-.622l-1.312-1.047A.4.4,0,0,0,498.6,715.325Z" transform="translate(-496.297 -713.353)" fill="#ffdecc"/>
      <path id="Path_1517" data-name="Path 1517" d="M499.978,709.838l-.025-.01-1.53-.535a.4.4,0,0,0-.263.751l1.53.535a.4.4,0,0,0,.287-.741Z" transform="translate(-496.162 -708.073)" fill="#ffdecc"/>
      <path id="Path_1518" data-name="Path 1518" d="M491.287,718.559c0-.008,0-.016,0-.024l-.171-1.5a.372.372,0,0,0-.738.084l.171,1.5a.372.372,0,0,0,.74-.059Z" transform="translate(-489.567 -714.587)" fill="#ffdecc"/>
      <path id="Path_1519" data-name="Path 1519" d="M495.984,699.539a.4.4,0,0,0-.192.032l-.869.382a.4.4,0,1,0,.32.728l.869-.382a.4.4,0,0,0-.129-.76Z" transform="translate(-493.349 -699.538)" fill="#ffdecc"/>
      <path id="Path_1520" data-name="Path 1520" d="M484.685,703.7c-.689.257-1,.358-.8,1.2.164.711.887,1.487,1.58,1.238a1.327,1.327,0,0,0,.806-1.695A1.126,1.126,0,0,0,484.685,703.7Z" transform="translate(-483.827 -703.096)" fill="#ffdecc"/>
    </g>
    <path id="Path_1521" data-name="Path 1521" d="M473.986,670.317a3.135,3.135,0,0,0-1.108-2.534c.949-.636,2.13-1.39,3.245-1.085a1.312,1.312,0,0,1,.529,2.3A11.247,11.247,0,0,1,473.986,670.317Z" transform="translate(6247.626 1307.378)" fill="#f35844"/>
    <path id="Path_1522" data-name="Path 1522" d="M466.469,688.364a4.615,4.615,0,0,1,1.587.865.68.68,0,0,0,.18-.106S468.021,688.487,466.469,688.364Z" transform="translate(6253.246 1288.319)" fill="#f4bfa2"/>
    <path id="Path_1523" data-name="Path 1523" d="M553.686,688.579a2.638,2.638,0,0,1-.681.122,3.073,3.073,0,0,1,.681,1.319Z" transform="translate(6177.368 1288.131)" fill="#e2473b"/>
    <path id="Path_1524" data-name="Path 1524" d="M543.476,632.241l4.305-1.975-.39.284,3.639-3.32a.78.78,0,0,1,1.145,1.05l-2.991,3.914a.815.815,0,0,1-.305.245l-.085.038-4.305,1.975a1.217,1.217,0,0,1-1.015-2.212Z" transform="translate(6186.345 1342.102)" fill="#ffdecc"/>
    <g id="Group_1106" data-name="Group 1106" transform="translate(6737.458 1966.459)">
      <path id="Path_1525" data-name="Path 1525" d="M624.217,620.271a.4.4,0,0,0,.332.666l1.738-.179a.4.4,0,1,0-.081-.791l-1.738.179A.4.4,0,0,0,624.217,620.271Z" transform="translate(-622.439 -618.165)" fill="#ffdecc"/>
      <path id="Path_1526" data-name="Path 1526" d="M624.217,611.324a.4.4,0,0,0,.5.609l1.43-.88a.4.4,0,1,0-.417-.677l-1.43.88A.4.4,0,0,0,624.217,611.324Z" transform="translate(-622.439 -609.704)" fill="#ffdecc"/>
      <path id="Path_1527" data-name="Path 1527" d="M619.522,605.477l-.017.02-1.021,1.259a.4.4,0,0,0,.618.5L620.122,606a.4.4,0,0,0-.6-.521Z" transform="translate(-617.427 -605.35)" fill="#ffdecc"/>
      <path id="Path_1528" data-name="Path 1528" d="M624.73,625.868l-.024-.007-1.474-.349a.372.372,0,0,0-.171.723l1.474.349a.372.372,0,0,0,.2-.717Z" transform="translate(-621.268 -623.02)" fill="#ffdecc"/>
      <path id="Path_1529" data-name="Path 1529" d="M610.573,608.884a.4.4,0,0,0-.034.191l.066.947a.4.4,0,1,0,.794-.055l-.066-.947a.4.4,0,0,0-.759-.136Z" transform="translate(-610.538 -608.244)" fill="#ffdecc"/>
      <path id="Path_1530" data-name="Path 1530" d="M610.537,616.962c.009.736,0,1.058.861,1.161.725.086,1.7-.331,1.7-1.067a1.327,1.327,0,0,0-1.321-1.332A1.126,1.126,0,0,0,610.537,616.962Z" transform="translate(-610.537 -614.445)" fill="#ffdecc"/>
    </g>
    <path id="Path_1531" data-name="Path 1531" d="M543.892,658.66a3.253,3.253,0,0,0,1.121,2.642c-.992.649-2.226,1.418-3.38,1.088a1.361,1.361,0,0,1-.522-2.389A11.662,11.662,0,0,1,543.892,658.66Z" transform="translate(6188.249 1314.365)" fill="#f35844"/>
  </g>
</svg>
