<svg id="Group_1531" data-name="Group 1531" xmlns="http://www.w3.org/2000/svg" width="118.81" height="54.253" viewBox="0 0 118.81 54.253">
  <ellipse id="Ellipse_99" data-name="Ellipse 99" cx="57.418" cy="5.201" rx="57.418" ry="5.201" transform="translate(3.974 43.851)" fill="#7f6e65" opacity="0.11"/>
  <path id="Path_2749" data-name="Path 2749" d="M914.779,2178.859s7.085-10.032,16.024-9.786,14.56,8.653,16.524,12.44,2.167,4.262,2.167,4.262a4.781,4.781,0,0,1-2.269,1.862,16.758,16.758,0,0,1-2.98.847s-10.259-14.661-15.948-12.393-12.156,9.853-12.156,9.853-5.248-3.488-5.214-3.589S914.779,2178.859,914.779,2178.859Z" transform="translate(-842.67 -2144.551)" fill="#558ec6"/>
  <g id="Group_1523" data-name="Group 1523" transform="translate(99.179 40.07)">
    <path id="Path_2750" data-name="Path 2750" d="M1292.486,2366.26s.226,4.361.662,4.525a6.661,6.661,0,0,0,2.71.238c1.066-.147,1.621-.168,1.621-.168a13.158,13.158,0,0,0,4.216-.028c2.576-.376,3.115-.886,3.155-1.169a4.858,4.858,0,0,0-.269-2.552,4.81,4.81,0,0,0-2.91-1.472c-1.1-.2-1.632-.264-1.632-.264l.228-.578a.857.857,0,0,0-.538-1.134,4.136,4.136,0,0,0-2.805.279c-2.307.926-2.022,1.991-2.022,1.991A1.854,1.854,0,0,0,1292.486,2366.26Z" transform="translate(-1291.763 -2362.95)" fill="#c92c20"/>
    <path id="Path_2751" data-name="Path 2751" d="M1297.187,2427.147s.308.273,1.7.23,2.266-.212,2.647-.2a17.166,17.166,0,0,0,4.263,0,10.567,10.567,0,0,0,3.314-.813,4.031,4.031,0,0,1-.065,1c-.091.127-1.131.761-3.678,1a22.259,22.259,0,0,1-3.891.013,9.437,9.437,0,0,1-2.5.207,1.253,1.253,0,0,1-1.79-1.433Z" transform="translate(-1296.074 -2420.573)" fill="#fff8ee"/>
    <path id="Path_2752" data-name="Path 2752" d="M1284.522,2360.432a1.9,1.9,0,0,1,1.14-.317c.708.017,1.4.026,1.421-.167s-.108-1.645,2.424-2.316,2.682.359,2.666.727a2.226,2.226,0,0,1-.128.65,1.716,1.716,0,0,0,.382-1.461c-.183-.87-1.286-1.29-3.677-.646s-2.14,2.16-2.14,2.16-.619-.785-2.079,0S1284.073,2360.728,1284.522,2360.432Z" transform="translate(-1283.767 -2356.588)" fill="#fff8ee"/>
    <path id="Path_2753" data-name="Path 2753" d="M1349.76,2385.089s-.46-.248-1.556.26a2.523,2.523,0,0,0-1.5,1.779c.049.217.466.2.66-.07a2.425,2.425,0,0,1,1.036-1.338,2.753,2.753,0,0,1,1.756-.574Z" transform="translate(-1341.482 -2382.67)" fill="#fff8ee"/>
    <path id="Path_2754" data-name="Path 2754" d="M1373.651,2387.921a2.652,2.652,0,0,0-1.289.6,2.468,2.468,0,0,0-.86,1.516c.012.234.342.4.594.055s.259-.981.965-1.514a2.328,2.328,0,0,1,1.319-.521Z" transform="translate(-1364.225 -2385.322)" fill="#fff8ee"/>
    <path id="Path_2755" data-name="Path 2755" d="M1293.311,2409.179a1.936,1.936,0,0,1,1.389.757,4.292,4.292,0,0,1,.9,1.932l-.2-.044a4.447,4.447,0,0,0-.815-1.784,1.977,1.977,0,0,0-1.257-.7Z" transform="translate(-1292.52 -2404.817)" fill="#fff8ee"/>
  </g>
  <path id="Path_2756" data-name="Path 2756" d="M108.752,2145.781s-1.219-2.065-6.433-.32-9.548,9.491-10.632,9.58-2.912-1.85-3.657,0,2.912,1.629,3.183,2.247,1.083,5.386,4.334,7.032,4.943,1.984,5.282,2.593,5.924,7.407,14.881,6.717,9.75-.893,9.75-.893a1.6,1.6,0,0,0,1.645,1.919c1.964.073.75-2.529.815-3.206s3.266-.88,6.3-2.506,8.013-10.971,8.013-10.971,3.074-5.75-6.708-10.5S108.752,2145.781,108.752,2145.781Z" transform="translate(-87.931 -2122.259)" fill="#95e5c5"/>
  <path id="Path_2757" data-name="Path 2757" d="M701.9,2127.652a14.174,14.174,0,0,1,4.757-1.647c2.743-.418,8.527-.621,10.663-2.856a10.813,10.813,0,0,0,2.871-7.062,18.052,18.052,0,0,1,.216-2.456l4.738-.705s.374,6.617-2.057,11.8-5.768,5.943-5.768,5.943Z" transform="translate(-650.98 -2093.065)" fill="#e2a679"/>
  <path id="Path_2758" data-name="Path 2758" d="M280.352,2151.367s-4.035-.447-3.695.172,2.575.715,4.353,2.419a15.542,15.542,0,0,1,3.345,4.091c.464,1.016-1.72.66-2.075,1.473s1.168.989,1.574,1.434-1.589,1.715.5,2.02,3.867-.559,4.68,0-3.454,7.026-2.184,7.449,3.5-5.933,4.876-5.447,2.109,2.874,2.629,2.62-.307-3.106,1.021-2.62,3.105,1.9,5.086,1.752,4.216.715,2.235,2.137-3.468,2.793-1.963,2.59,2.42-.089,1.963,1.048a4.178,4.178,0,0,0,0,2.845c.152.018,1.549.6,1.549.6l.575-.2,5.526-6.023,1.7-5.9s-2.32-.83-2.43-1.2a10.669,10.669,0,0,1,0-1.892s-16.725-9.644-17.026-9.7S280.352,2151.367,280.352,2151.367Z" transform="translate(-260.986 -2128.016)" fill="#6dc6a0" opacity="0.4"/>
  <path id="Path_2759" data-name="Path 2759" d="M904.783,2215.874s7.776-.044,9.327-3.193,4.293-11.088,7.138-11.334,10.158,11.334,10.158,11.334a12.138,12.138,0,0,0,3.149-.66,7.366,7.366,0,0,0,3.047-2.336s-4.876-14.078-11.783-16.867-12.951,1.833-14.78,3.865-4.266,4.665-4.266,4.665l-2.286-.3-2.539,7.263S903.352,2214.75,904.783,2215.874Z" transform="translate(-834.435 -2165.532)" fill="#78acea"/>
  <g id="Group_1525" data-name="Group 1525" transform="translate(18.631 3.981)">
    <path id="Path_2760" data-name="Path 2760" d="M596.419,2286.675a5.37,5.37,0,0,0-.2-1.7,8.495,8.495,0,0,0-.961-1.927l5.467-1.362a17.65,17.65,0,0,0,1.46,2.573,1.605,1.605,0,0,0,.855.375,15.418,15.418,0,0,1-.856,1.912,18.1,18.1,0,0,1-4.119,1.35c-.265-.04-1.626-.564-1.626-.564Z" transform="translate(-571.811 -2251.808)" fill="#f4c092"/>
    <path id="Path_2761" data-name="Path 2761" d="M606.983,2288.3a3.62,3.62,0,0,1-2.333,1.656,3.714,3.714,0,0,1-3.187-.467l-.306-.643a12.611,12.611,0,0,0,2.925-.628,9.714,9.714,0,0,0,2.276-1.108Z" transform="translate(-577.223 -2256.787)" fill="#e28140" opacity="0.63"/>
    <path id="Path_2762" data-name="Path 2762" d="M376.647,1975.1a10.793,10.793,0,0,0,1.313,1.972c.667.717,2.843,1.82,2.66,5.017s-2.811,6.96-7.621,9.115a11.325,11.325,0,0,1-9.891.023,16.937,16.937,0,0,1-2.213-1.212,1.973,1.973,0,0,1-1.14,1.54,4.478,4.478,0,0,1-4.738-1.559c-1.587-1.928-.351-2.957-.044-3.386a1.422,1.422,0,0,1,.612-.531s-6.376-2.554-6.8-9.648,7.273-13.484,15.541-13.072,10.384,5.829,10.817,7.42A24.866,24.866,0,0,0,376.647,1975.1Z" transform="translate(-345.772 -1959.865)" fill="#f4c092"/>
    <path id="Path_2763" data-name="Path 2763" d="M434.794,2261.928a1.147,1.147,0,0,1-.463-1.427c.353-.967,2.435-.3,3.005.366s.422,1.678-.732,1.284-1.361-.831-1.456-1.191a.932.932,0,0,1-.046-.492.589.589,0,0,0-.525.564A1.333,1.333,0,0,0,434.794,2261.928Z" transform="translate(-424.152 -2231.938)" fill="#e28140" opacity="0.63"/>
    <path id="Path_2764" data-name="Path 2764" d="M610.12,2157.763s-.617-.364.456-1.119c1.023-.719,1.394-.627,1.5-.419s.335.167.357.1c.042-.136.113-.16-.347-.549s-1.764.146-2.251.855-.312,1.155,0,1.231S610.12,2157.763,610.12,2157.763Z" transform="translate(-584.905 -2136.22)" fill="#e28140" opacity="0.63"/>
    <path id="Path_2765" data-name="Path 2765" d="M637.55,2091.228s-.718.366-.366,1.49.862,2.346,1.666,2.239,1.085-1.179.771-2.115-.767-1.8-1.316-1.792A1.287,1.287,0,0,0,637.55,2091.228Z" transform="translate(-610.173 -2076.984)" fill="#3f2f29"/>
    <path id="Path_2766" data-name="Path 2766" d="M490.829,2137.166s-.341-1.664.137-2.314a7.642,7.642,0,0,1,1.34-1.14.443.443,0,0,0-.455-.515,3.088,3.088,0,0,0-1.556,2.068C490.159,2136.261,490.895,2137.579,490.829,2137.166Z" transform="translate(-475.54 -2115.632)" fill="#e28140" opacity="0.81"/>
    <path id="Path_2767" data-name="Path 2767" d="M619.882,2062.727a1.911,1.911,0,0,0-1.559-.748c-.939.089-1.154.572-1.4.634s-.544-.332-.437-.49a2.583,2.583,0,0,1,2.307-.529C619.816,2061.968,620.019,2062.883,619.882,2062.727Z" transform="translate(-591.264 -2049.877)" fill="#e28140" opacity="0.81"/>
    <path id="Path_2768" data-name="Path 2768" d="M539.781,2208.542s-1.926,1.024-1.865,1.836,1.439.284,2.287-.244,1.619-1.13,1.373-1.787S540.142,2208.332,539.781,2208.542Z" transform="translate(-519.225 -2184.288)" fill="#ed3737" opacity="0.23"/>
    <path id="Path_2769" data-name="Path 2769" d="M664.543,2129.634s-1.558.894-1.46,1.692,1.224.361,1.9-.108,1.294-1.014,1.05-1.673S664.834,2129.448,664.543,2129.634Z" transform="translate(-634.009 -2112.001)" fill="#ed3737" opacity="0.23"/>
    <path id="Path_2770" data-name="Path 2770" d="M641.362,2095.133c.056.294-.254.6-.691.683s-.838-.087-.894-.38.254-.6.691-.683S641.306,2094.839,641.362,2095.133Z" transform="translate(-612.633 -2080.36)" fill="#fff" opacity="0.32"/>
    <path id="Path_2771" data-name="Path 2771" d="M652.035,2099.347a.416.416,0,1,1,.527.262A.416.416,0,0,1,652.035,2099.347Z" transform="translate(-623.861 -2084.09)" fill="#fff"/>
    <path id="Path_2772" data-name="Path 2772" d="M657.07,2111.614a.122.122,0,1,1,.154.077A.122.122,0,0,1,657.07,2111.614Z" transform="translate(-628.493 -2095.695)" fill="#fff"/>
    <g id="Group_1524" data-name="Group 1524" transform="translate(16.581 20.514)">
      <path id="Path_2773" data-name="Path 2773" d="M513.413,2171.64a2.421,2.421,0,0,1-.917-1.725c-.013-1.049,1.521-1.752,2.7-.247s.952,2.278.4,2.651S514.029,2172.349,513.413,2171.64Z" transform="translate(-512.496 -2168.802)" fill="#3f2f29"/>
      <path id="Path_2774" data-name="Path 2774" d="M515.536,2171.493c.212.21.13.638-.184.954s-.74.4-.953.192-.13-.637.184-.954S515.324,2171.283,515.536,2171.493Z" transform="translate(-514.134 -2171.165)" fill="#fff" opacity="0.32"/>
      <circle id="Ellipse_100" data-name="Ellipse 100" cx="0.416" cy="0.416" r="0.416" transform="matrix(0.152, -0.988, 0.988, 0.152, 1.444, 1.237)" fill="#fff"/>
      <path id="Path_2775" data-name="Path 2775" d="M538.392,2186.44a.122.122,0,1,1,.171.026A.122.122,0,0,1,538.392,2186.44Z" transform="translate(-536.222 -2184.799)" fill="#fff"/>
    </g>
    <path id="Path_2776" data-name="Path 2776" d="M607.153,2177.017a4.179,4.179,0,0,0,2.889-.768c1.253-1,.85-1.941,1.5-1.912s1.748,2.363-.762,4.025S605.762,2177.632,607.153,2177.017Z" transform="translate(-582.357 -2153.362)" fill="#b53c3c"/>
    <path id="Path_2777" data-name="Path 2777" d="M631.278,2206.819a2.908,2.908,0,0,1,1.395-1.51,4.005,4.005,0,0,1,1.846-.431,3.345,3.345,0,0,1-1.461,1.5A2.994,2.994,0,0,1,631.278,2206.819Z" transform="translate(-604.846 -2181.369)" fill="#ef3f3f"/>
    <path id="Path_2778" data-name="Path 2778" d="M322.437,1934.773s.342,2.9,4.164,3.369,5.608-1.328,5.608-1.328a11.417,11.417,0,0,1-3.191.728,5.91,5.91,0,0,1-2.622-1.116,5.34,5.34,0,0,0,4.8-.213,7.072,7.072,0,0,0,3.508-3.164,18.112,18.112,0,0,1-3.248,1.935,2.925,2.925,0,0,1-1.87.157,4.765,4.765,0,0,0,2.859-.843,12.38,12.38,0,0,0,1.9-1.39s-2.591,1.053-3.8.818a5.173,5.173,0,0,1-2.056-.918,5.837,5.837,0,0,0,4.273.429c2.273-.713,3.318-2.187,6.412-2.609s4.047,2.942,4.047,2.942a6,6,0,0,0-2.182-5.729c-2.9-2.114-5.117-1.836-5.117-1.836a7.085,7.085,0,0,1,4.042,1.02c2.326,1.269,2.534,1.928,2.534,1.928s.082-2.217-2.675-4.132-6.964-1.74-6.964-1.74a9.341,9.341,0,0,0,2.151-.383.362.362,0,0,0,.106-.628s-.594.931-2.3.213-7-2.394-12.738,2.926-4.794,7.178-4.794,7.178l-1.21-1.862a3.608,3.608,0,0,0,.2,1.46,4.315,4.315,0,0,0,.585.9,3.586,3.586,0,0,0-1.438,1.111,3.018,3.018,0,0,0-.852,1.613,4.828,4.828,0,0,1,.864-1.047c.341-.222,1-.7,1-.7s-2.881,2.182-1.133,6.961,5.813,5.562,6.361,7.51-1.239,2.052-1.239,2.052,1.288,1.1,2.715-.577a3.245,3.245,0,0,0,.96-3,8.8,8.8,0,0,1,.239,1.386,2.023,2.023,0,0,1-.223.81,3.415,3.415,0,0,0,.508-3.453c-.809-1.987-1.748-3.613-2.319-5.125s.792-4.576.792-4.576a7.464,7.464,0,0,0-.31,4.66,16.445,16.445,0,0,0,2.466,4.268s-.882-2.782-1.273-4.47a9.061,9.061,0,0,1-.064-3.357,14.167,14.167,0,0,0,.222,2.99,16.612,16.612,0,0,0,.768,1.679,13.637,13.637,0,0,0,.064-3.749C322.693,1936.253,322.437,1934.773,322.437,1934.773Z" transform="translate(-312.576 -1921.453)" fill="#935c37"/>
    <path id="Path_2779" data-name="Path 2779" d="M324.084,1993a4.895,4.895,0,0,1,.429-3.119,12.879,12.879,0,0,1,3.164-3.249s-2.552,2.255-2.9,3.586a7.381,7.381,0,0,0-.173,2.585,4.793,4.793,0,0,1,.757-1.993,6.477,6.477,0,0,1,1.283-1.32,12.5,12.5,0,0,0-1.238,1.864c-.191.521-.383,1.176-.383,1.176s.335-.99,3.292-2.869a17.874,17.874,0,0,1,6.811-2.265,42.344,42.344,0,0,0-6.066,2.62,28.267,28.267,0,0,0-3.729,2.954,1.231,1.231,0,0,0,.121,1.069l.625.962s-.847-.42-.976-.822a2.11,2.11,0,0,1-.062-.842,4.743,4.743,0,0,0-1.475,2.416c-.564,1.78,1.262,4.521,1.262,4.521a6.357,6.357,0,0,1-1.842-3.761,4.686,4.686,0,0,1,1.571-3.287,4.587,4.587,0,0,0-2.708,2.732,5.991,5.991,0,0,0-.368,2.947,8.037,8.037,0,0,1,.385-3.752c.705-1.812,1.877-1.956,1.877-1.956a1.252,1.252,0,0,0-.958-.025,4.147,4.147,0,0,0-1.022.532S322.9,1992.451,324.084,1993Z" transform="translate(-320.673 -1981.225)" fill="#774624"/>
    <path id="Path_2780" data-name="Path 2780" d="M450.872,1932.468s-3.638-.9-6.154.117a11.446,11.446,0,0,0-3.461,1.941,8.917,8.917,0,0,1,5.282-2.706,9.807,9.807,0,0,1,5.4.527Z" transform="translate(-430.585 -1930.843)" fill="#774624"/>
    <path id="Path_2781" data-name="Path 2781" d="M334.93,2148.362a9.222,9.222,0,0,0,2.649,4.546c1.98,1.6,3.087,1.309,4.078,2.877a2.03,2.03,0,0,1-.676,2.718s3.019-1.647,1.492-3.862S338.34,2154.855,334.93,2148.362Z" transform="translate(-333.076 -2129.543)" fill="#774624"/>
    <path id="Path_2782" data-name="Path 2782" d="M392.143,2094.981s-1.3,2.79-.844,4.412a37.579,37.579,0,0,0,2.016,4.453,15.255,15.255,0,0,1,.542,1.435s-1.92-3.545-2.712-5.171.37-4.081.37-4.081a8.587,8.587,0,0,0-1.238,2.747,4.008,4.008,0,0,0,.162,1.506,3.31,3.31,0,0,1-.353-2.308C390.294,2096.426,392.143,2094.981,392.143,2094.981Z" transform="translate(-383.615 -2080.589)" fill="#774624"/>
    <path id="Path_2783" data-name="Path 2783" d="M418.085,2065.25s.828-.186,1.422,2.188a21.116,21.116,0,0,1,.163,6.044,40.892,40.892,0,0,0-.542-5.71A5.418,5.418,0,0,0,418.085,2065.25Z" transform="translate(-409.334 -2053.32)" fill="#774624"/>
    <path id="Path_2784" data-name="Path 2784" d="M436.278,2076.078s2.582,2.625,5.311,2.793,5.547-2.623,5.547-2.623-3.269,2.5-6.124,1.916A12.231,12.231,0,0,1,436.278,2076.078Z" transform="translate(-426.019 -2063.254)" fill="#774624"/>
    <path id="Path_2785" data-name="Path 2785" d="M412.538,2024.442a4.6,4.6,0,0,1,4.925-.583c2.7,1.363,4.358,3.2,7.936,1.55s4.273-2.515,6.187-2.354a2.938,2.938,0,0,1,2.492,1.356,3.6,3.6,0,0,0-3.1-2.184c-2.161.037-5.662,2.8-7.574,2.982a6.146,6.146,0,0,1-3.451-.758,9.125,9.125,0,0,0,3.949.17,14.632,14.632,0,0,0,2.944-1.517,11.353,11.353,0,0,1-3.762,1.343c-1.5.07-4.446-2.163-6.99-1.878A4.9,4.9,0,0,0,412.538,2024.442Z" transform="translate(-404.247 -2013.869)" fill="#774624"/>
    <path id="Path_2786" data-name="Path 2786" d="M548.8,1970.829s-3.085-2.966-6.31-2.966-4.959.185-4.959.185a13.181,13.181,0,0,1,6.975-.71C547.95,1968.1,548.8,1970.347,548.8,1970.829Z" transform="translate(-518.871 -1963.332)" fill="#774624"/>
    <path id="Path_2787" data-name="Path 2787" d="M436.277,1924.765s4.7-1.18,2.469,4.663a15.927,15.927,0,0,1-7.272,8.232s2.788.313,3.248.407.441-1.217.6-1.422,1.587.184,2-.267-.026-.6-.011-1.026,2.418-.433,2.816-.725-1.626-1.506-1.381-1.4a8.174,8.174,0,0,0,2.635-.521c.357-.218-1.386-.909-1.139-.981s3.308-.65,2.688-.953-2.507-.489-2.232-.609,3.585-1.167,2.954-1.508-1.779-.434-1.757-.653,2.175-.619,1.481-.962a11.934,11.934,0,0,0-2.489-.589s.106-1.145.121-1.143S438.291,1924.191,436.277,1924.765Z" transform="translate(-421.612 -1924.34)" fill="#fffa89" opacity="0.17" style="mix-blend-mode: color-dodge;isolation: isolate"/>
    <path id="Path_2788" data-name="Path 2788" d="M324.185,2121.557s-.976,1.272-3.713,1.505-3.055-1.635-3.055-1.635a11.622,11.622,0,0,0,.9,3.3c.692,1.4,1.093,2.292,1.069,1.644s-.168-2.009-.028-1.835,1.352,1.9,1.437,1.626-.017-1.792.267-1.627,1.113,1.508,1.012.809-.242-1.806-.019-1.528,1.071,1.352,1.055,1.036-.145-1.4,0-1.174,1.425,1.92,1.425,1.92S323.65,2123.1,324.185,2121.557Z" transform="translate(-317.016 -2104.843)" fill="#fffa89" opacity="0.17" style="mix-blend-mode: color-dodge;isolation: isolate"/>
  </g>
  <g id="Group_1528" data-name="Group 1528" transform="translate(56.163)">
    <g id="Group_1526" data-name="Group 1526">
      <path id="Path_2789" data-name="Path 2789" d="M800.8,1885.9l1.737,4.1,8.383-5-9.611.622Z" transform="translate(-797.838 -1884.045)" fill="#efdbc9"/>
      <path id="Path_2790" data-name="Path 2790" d="M778.76,1890.163l-13.513,8.591,10.939,17.6,12.3-9.76Z" transform="translate(-765.235 -1888.777)" fill="#fd422d"/>
      <path id="Path_2791" data-name="Path 2791" d="M928.181,1874.841l.479-1.386,9.508,16.521-.262,1.291Z" transform="translate(-914.656 -1873.455)" fill="#e4301e"/>
      <path id="Path_2792" data-name="Path 2792" d="M779.107,1873.455l-11.021,1.124-.289.3,10.759-1.018-.17.746-13.282,8.427.012.4,13.513-8.591Z" transform="translate(-765.103 -1873.455)" fill="#e4301e"/>
      <path id="Path_2793" data-name="Path 2793" d="M770.841,1887.222l.874-1.87,10.991-6.321-9.381.774-.016-.458,10.508-.995-.17.746Z" transform="translate(-770.365 -1877.945)" fill="#f6ebe2"/>
    </g>
    <g id="Group_1527" data-name="Group 1527" transform="translate(2.343 3.46)">
      <path id="Path_2794" data-name="Path 2794" d="M802.425,1936.067l-9.068-13.61,10.805-7.28,7.68,13.254Zm-8.417-13.481,8.522,12.79,8.7-7.057-7.226-12.47Z" transform="translate(-793.357 -1915.177)" fill="#f3bf06"/>
    </g>
    <path id="Path_2795" data-name="Path 2795" d="M850.1,1973.474c-.067.1-7.812,5.931-7.812,5.931l1.134,1.459,7.465-5.981Z" transform="translate(-835.889 -1965.179)" fill="#f3bf06"/>
    <path id="Path_2796" data-name="Path 2796" d="M894.692,2024.815l-3.723,3.052.425.535,3.665-3.085Z" transform="translate(-880.53 -2012.262)" fill="#f3bf06"/>
  </g>
  <path id="Path_2797" data-name="Path 2797" d="M601.732,2279.094a21.6,21.6,0,0,0,5.065-.672c1.735-.609.45-2.067.45-2.067a12.03,12.03,0,0,1,2.166-1.521,30.1,30.1,0,0,1,9.379-1.416,106.883,106.883,0,0,1,11.809,1.136,29.544,29.544,0,0,0-2.681,7.57c-.637,3.725.92,8.465.92,8.465s-16.576.5-20.49.227-7.5-3.064-7.292-6.67A23.408,23.408,0,0,1,601.732,2279.094Z" transform="translate(-558.493 -2240.246)" fill="#2b3835"/>
  <path id="Path_2798" data-name="Path 2798" d="M828.357,2097.252a10.878,10.878,0,0,1-.055-4.071,11.887,11.887,0,0,1,2.093-3.845c.4-.209.835,0,.658.734a14.522,14.522,0,0,1-.966,2.2c-.236.538-.327,1.256-.153,1.205s.114-.662.733-1.755,1.344-1.879,1.612-1.815.6.342.351,1.214-1.27,3.252-1.27,3.252,1.08-1.878,1.312-2.371.729-.305.867.34a2.849,2.849,0,0,1-.175,1.785,11.07,11.07,0,0,1-.626,1.425,9.641,9.641,0,0,0,.8-1.123c.248-.455.334-1.127.553-1.109s.489.454.45,1.3a5.592,5.592,0,0,1-.907,2.552,3.425,3.425,0,0,1-1.307,1.073S829.487,2099.345,828.357,2097.252Z" transform="translate(-766.723 -2071.361)" fill="#f4c092"/>
  <path id="Path_2799" data-name="Path 2799" d="M624.439,2179.508s-1.327,9-4.912,11.371-8.484,1.544-11.757,3.312-2.569,7.659,3.58,7.862,12.21-4.334,14.665-9.277,3.214-12.321,3.214-12.321Z" transform="translate(-562.889 -2154.125)" fill="#f4c092"/>
  <g id="Group_1529" data-name="Group 1529" transform="translate(69.674 31.658)">
    <path id="Path_2800" data-name="Path 2800" d="M928.135,2271.748l-.122-.6c.046,0,4.63-.362,5.572-3.422.642-2.087,4.2-12.5,11.209-12.557h.036c2.733,0,5.81,2.512,9.149,7.468a59.458,59.458,0,0,1,4.207,7.453l-.589.173c-.067-.146-6.7-14.485-12.767-14.485H944.8c-6.583.053-10.011,10.111-10.631,12.127C933.1,2271.369,928.339,2271.734,928.135,2271.748Z" transform="translate(-928.012 -2255.171)" fill="#bed9f4"/>
  </g>
  <path id="Path_2801" data-name="Path 2801" d="M925.144,2371.9a4.921,4.921,0,0,1,2.757,2.424,13.766,13.766,0,0,1,1.219,2.929l-.5.229a22.149,22.149,0,0,0-1.185-2.929,4.37,4.37,0,0,0-1.71-1.811c-.466-.2-.683-.3-.683-.3Z" transform="translate(-855.615 -2330.559)" fill="#bed9f4"/>
  <path id="Path_2802" data-name="Path 2802" d="M140.507,2290.852a3.763,3.763,0,0,0,.779,2.341,4.479,4.479,0,0,0,2.946,1.35,4.866,4.866,0,0,0-1.016-2.5A3.288,3.288,0,0,0,140.507,2290.852Z" transform="translate(-136.143 -2256.231)" fill="#6dc6a0"/>
  <path id="Path_2803" data-name="Path 2803" d="M197.255,2340.251a3.763,3.763,0,0,0,.779,2.341,4.479,4.479,0,0,0,2.946,1.35,4.866,4.866,0,0,0-1.016-2.5A3.288,3.288,0,0,0,197.255,2340.251Z" transform="translate(-188.184 -2301.533)" fill="#6dc6a0"/>
  <path id="Path_2804" data-name="Path 2804" d="M254.41,2387.609a3.763,3.763,0,0,0,.779,2.341,4.478,4.478,0,0,0,2.946,1.35,4.865,4.865,0,0,0-1.016-2.5A3.288,3.288,0,0,0,254.41,2387.609Z" transform="translate(-240.6 -2344.963)" fill="#6dc6a0"/>
  <path id="Path_2805" data-name="Path 2805" d="M312.576,2432.4a3.763,3.763,0,0,0,1.511,1.95,4.479,4.479,0,0,0,3.227.3,4.865,4.865,0,0,0-1.786-2.019A3.288,3.288,0,0,0,312.576,2432.4Z" transform="translate(-293.945 -2385.815)" fill="#6dc6a0"/>
  <path id="Path_2806" data-name="Path 2806" d="M386.636,2448.678a3.763,3.763,0,0,0,2.078,1.329,4.479,4.479,0,0,0,3.139-.8,4.864,4.864,0,0,0-2.361-1.3A3.288,3.288,0,0,0,386.636,2448.678Z" transform="translate(-361.862 -2400.177)" fill="#6dc6a0"/>
  <path id="Path_2807" data-name="Path 2807" d="M468.947,2445.3a3.763,3.763,0,0,0,2.211,1.1,4.479,4.479,0,0,0,3.033-1.142,4.864,4.864,0,0,0-2.488-1.037A3.288,3.288,0,0,0,468.947,2445.3Z" transform="translate(-437.347 -2396.852)" fill="#6dc6a0"/>
  <g id="Group_1530" data-name="Group 1530" transform="translate(95.319 42.492)">
    <path id="Path_2808" data-name="Path 2808" d="M1245.945,2395.465s.226,4.361.662,4.524a6.661,6.661,0,0,0,2.71.238c1.066-.147,1.621-.168,1.621-.168a13.145,13.145,0,0,0,4.217-.028c2.576-.376,3.115-.886,3.155-1.169a3.052,3.052,0,0,0-3.178-4.024c-1.1-.2-1.632-.264-1.632-.264l.228-.578a.858.858,0,0,0-.538-1.134,4.136,4.136,0,0,0-2.805.279c-2.308.926-2.022,1.991-2.022,1.991A1.854,1.854,0,0,0,1245.945,2395.465Z" transform="translate(-1245.222 -2392.154)" fill="#ed412f"/>
    <path id="Path_2809" data-name="Path 2809" d="M1250.646,2456.351s.308.273,1.7.231,2.266-.212,2.647-.2a17.173,17.173,0,0,0,4.263,0,10.559,10.559,0,0,0,3.314-.813,4.025,4.025,0,0,1-.065,1c-.091.127-1.131.761-3.678,1a22.258,22.258,0,0,1-3.891.013,9.424,9.424,0,0,1-2.5.207,1.253,1.253,0,0,1-1.79-1.433Z" transform="translate(-1249.533 -2449.777)" fill="#fff8ee"/>
    <path id="Path_2810" data-name="Path 2810" d="M1237.981,2389.636a1.9,1.9,0,0,1,1.14-.317c.708.017,1.4.026,1.421-.167s-.108-1.645,2.424-2.316,2.682.359,2.666.726a2.226,2.226,0,0,1-.128.65,1.716,1.716,0,0,0,.382-1.461c-.183-.87-1.286-1.29-3.677-.646s-2.14,2.161-2.14,2.161-.619-.785-2.08,0S1237.532,2389.933,1237.981,2389.636Z" transform="translate(-1237.226 -2385.793)" fill="#fff8ee"/>
    <path id="Path_2811" data-name="Path 2811" d="M1303.218,2414.293s-.46-.248-1.556.26a2.523,2.523,0,0,0-1.5,1.779c.049.217.466.2.66-.069a2.425,2.425,0,0,1,1.036-1.338,2.753,2.753,0,0,1,1.756-.574Z" transform="translate(-1294.94 -2411.874)" fill="#fff8ee"/>
    <path id="Path_2812" data-name="Path 2812" d="M1327.11,2417.125a2.652,2.652,0,0,0-1.289.6,2.469,2.469,0,0,0-.86,1.516c.012.234.342.4.594.055s.259-.981.965-1.514a2.327,2.327,0,0,1,1.319-.521Z" transform="translate(-1317.684 -2414.526)" fill="#fff8ee"/>
    <path id="Path_2813" data-name="Path 2813" d="M1246.77,2438.383a1.936,1.936,0,0,1,1.389.757,4.292,4.292,0,0,1,.9,1.932l-.2-.044a4.448,4.448,0,0,0-.815-1.784,1.976,1.976,0,0,0-1.257-.7Z" transform="translate(-1245.979 -2434.021)" fill="#fff8ee"/>
  </g>
</svg>
