<svg id="Group_1605" data-name="Group 1605" xmlns="http://www.w3.org/2000/svg" width="95.477" height="78.761" viewBox="0 0 95.477 78.761">
  <ellipse id="Ellipse_111" data-name="Ellipse 111" cx="40.979" cy="3.113" rx="40.979" ry="3.113" transform="translate(12.033 72.534)" fill="#7f6e65" opacity="0.11"/>
  <path id="Path_3104" data-name="Path 3104" d="M2899.533,3597.472l2.964,12.576h3.578l-.614-12.533Z" transform="translate(-2877.016 -3537.3)" fill="#f4c092"/>
  <path id="Path_3105" data-name="Path 3105" d="M2984.826,3615.693l.317,11.644h3.969l2.34-11.3Z" transform="translate(-2955.767 -3554.124)" fill="#f4c092"/>
  <path id="Path_3106" data-name="Path 3106" d="M2678.454,3205.788a5.05,5.05,0,0,0-3.028,1.452c-1.355,1.364-3.67,7.308-7.452,8.542a9.743,9.743,0,0,1-6.549,0l-5.53-4.458a10.491,10.491,0,0,0,.28,5.029c.847,2.357,3.9,2.414,4.46,2.7s5.928,2.71,10.9.734a9.115,9.115,0,0,0,5.666-6.613Z" transform="translate(-2651.894 -3175.658)" fill="#f4c092"/>
  <path id="Path_3107" data-name="Path 3107" d="M2892.669,3164.145s-.631,2.324.028,3.024,3.183,3.008,3.893,5.957.027,7.373-.411,9.435-.266,5.829-5.348,7.069-11.166-1.919-12.7-5.6,1.752-8.041,2.209-9.021.556-3.2,1.55-5.141,4.177-3.463,4.807-4.282a9.889,9.889,0,0,0,1.124-2.165Z" transform="translate(-2856.878 -3136.536)" fill="#f4c092"/>
  <path id="Path_3108" data-name="Path 3108" d="M3005.013,3173.144s-.823.966-2.876.488a3.039,3.039,0,0,1-2.428-1.783l.507-1.011a13.049,13.049,0,0,0,2.134.907,3.721,3.721,0,0,0,2.865-.346Z" transform="translate(-2969.509 -3143.388)" fill="#e28140" opacity="0.63"/>
  <path id="Path_3109" data-name="Path 3109" d="M2893.536,2845a9.722,9.722,0,0,1-.451,2.084c-.323.82-1.783,2.461-.577,5.079s4.646,4.906,9.385,5.127a10.194,10.194,0,0,0,8.294-3.237,15.222,15.222,0,0,0,1.455-1.744,1.776,1.776,0,0,0,1.462.915,4.03,4.03,0,0,0,3.456-2.866c.7-2.138-.679-2.593-1.078-2.851a1.278,1.278,0,0,0-.688-.243,10.357,10.357,0,0,0,2.518-10.321c-1.983-6.083-10.532-8.9-17.323-5.835s-6.781,8.3-6.62,9.778A22.374,22.374,0,0,1,2893.536,2845Z" transform="translate(-2870.096 -2828.563)" fill="#f4c092"/>
  <path id="Path_3110" data-name="Path 3110" d="M3079.587,2993.117s-.262-1.506-.877-1.893a6.871,6.871,0,0,0-1.5-.514.4.4,0,0,1,.211-.582,2.781,2.781,0,0,1,1.984,1.22C3079.85,2992.138,3079.668,2993.484,3079.587,2993.117Z" transform="translate(-3041.014 -2976.533)" fill="#e28140" opacity="0.63"/>
  <path id="Path_3111" data-name="Path 3111" d="M2925.368,2970.536a1.72,1.72,0,0,1,1.06-1.14,2.461,2.461,0,0,1,1.379.072c.224-.027.347-.457.205-.554a2.327,2.327,0,0,0-2.107.316C2925.174,2969.878,2925.3,2970.711,2925.368,2970.536Z" transform="translate(-2900.822 -2956.839)" fill="#e28140" opacity="0.63"/>
  <path id="Path_3112" data-name="Path 3112" d="M3044.139,3080.813s1.951.224,2.167.924-1.112.712-2,.549-1.728-.414-1.738-1.045S3043.768,3080.756,3044.139,3080.813Z" transform="translate(-3009.084 -3060.216)" fill="#ed3737" opacity="0.23"/>
  <path id="Path_3113" data-name="Path 3113" d="M2910.162,3051.271s1.6.236,1.781.937-.906.705-1.631.537-1.418-.424-1.43-1.056S2909.857,3051.211,2910.162,3051.271Z" transform="translate(-2885.647 -3032.936)" fill="#ed3737" opacity="0.23"/>
  <path id="Path_3114" data-name="Path 3114" d="M3042.469,3047.813a3.27,3.27,0,0,1,2.076-.042,9.362,9.362,0,0,1,2,1.466l-.477-.628.6.2-.735-.4.326-.011-.469-.2a3.073,3.073,0,0,0-1.579-1.251C3043.111,3046.55,3042.469,3047.813,3042.469,3047.813Z" transform="translate(-3008.989 -3028.928)" fill="#3f2f29"/>
  <path id="Path_3115" data-name="Path 3115" d="M2924.973,3025.791a2.663,2.663,0,0,0-1.555-.741,5.085,5.085,0,0,0-1.7.643l.44-.4-.479-.026.6-.111-.244-.12.378-.021a1.721,1.721,0,0,1,1.349-.593C2924.654,3024.435,2924.973,3025.791,2924.973,3025.791Z" transform="translate(-2897.467 -3008.199)" fill="#3f2f29"/>
  <path id="Path_3116" data-name="Path 3116" d="M3165.412,3081.871a1.1,1.1,0,0,0-.158-1.43c-.691-.707-2.246.7-2.484,1.507s.294,1.635,1.147.834.862-1.265.8-1.617a.892.892,0,0,0-.154-.448.565.565,0,0,1,.682.286A1.278,1.278,0,0,1,3165.412,3081.871Z" transform="translate(-3120.011 -3059.748)" fill="#e28140" opacity="0.63"/>
  <path id="Path_3117" data-name="Path 3117" d="M2904.668,2818.795a6.641,6.641,0,0,0,4.1,5.4c4.007,1.907,6.3,1.412,6.3,1.412a12.658,12.658,0,0,1-4.39-2.044,7.835,7.835,0,0,1-1.865-2.1,8.075,8.075,0,0,0,3.629,2.85c2.556,1.079,4.027,1.537,4.027,1.537s-1.143-1.133-2.082-1.949a4.707,4.707,0,0,1-1.285-1.945,41.388,41.388,0,0,0,3.6,3.6,8.533,8.533,0,0,1,2.4,3.687,3.206,3.206,0,0,0,.674-2.751,16.017,16.017,0,0,0-.825-2.853,10.626,10.626,0,0,1,1.354,4.729c-.04,2.336-.6,2.962-.613,4.373a10.87,10.87,0,0,0,.047,1.718,20.086,20.086,0,0,0,2.273-2.129,10.632,10.632,0,0,0,1.083-1.77,10.221,10.221,0,0,1-.944,1.849c-.39.468-.7.766-.745.814s2.72-1.325,2.72-1.325,4.3-2.067,4.091-7.931-3.9-7.031-3.9-7.031a2.872,2.872,0,0,1,1.139.016,3,3,0,0,1,.75.3,2.439,2.439,0,0,0-1.139-.61,1.852,1.852,0,0,0-1.044,0s.165-.278-.082-1.216-1.885-1.708-1.885-1.708a5.586,5.586,0,0,1,1.154,1.279,2.279,2.279,0,0,1,.1,1.094s-3.631-3.517-10.965-3.1-10.653,6.1-10.9,8.374a13.707,13.707,0,0,0,.795,5.123,13.659,13.659,0,0,1,.281-4.32,9.944,9.944,0,0,1,1.122-2.364,10.583,10.583,0,0,0-1.117,3.013,8,8,0,0,0,0,2.378,14.319,14.319,0,0,1,.883-3.742C2904.067,2820.055,2904.668,2818.795,2904.668,2818.795Z" transform="translate(-2878.748 -2812.958)" fill="#bc7646"/>
  <path id="Path_3118" data-name="Path 3118" d="M3092.506,2904.261s3.84,3.847,4.143,7.152-.352,3.175-.483,5.157.02,2.194.02,2.194a25.914,25.914,0,0,1,.723-4,10.158,10.158,0,0,0-.069-5.413,9.332,9.332,0,0,0-2.173-3.258,8.3,8.3,0,0,1,2.512,2.766,10.812,10.812,0,0,1,.993,3.579,6.984,6.984,0,0,0-1.946-5.514C3093.779,2904.205,3092.506,2904.261,3092.506,2904.261Z" transform="translate(-3055.188 -2897.258)" fill="#995120"/>
  <path id="Path_3119" data-name="Path 3119" d="M3035.269,2908.133s2.043,2.6,3.277,3.815,2.336,2.223,3.105,3.157a5.881,5.881,0,0,1,1.05,2.018s.607-1.248-.6-4.191a7.542,7.542,0,0,0-3.18-3.9,11.541,11.541,0,0,1,2.487,3.195,9.446,9.446,0,0,1,.916,2.976s-1.164-1.714-1.841-2.8a5.627,5.627,0,0,0-1.535-1.638s1.382,1.833,1.656,2.322.389.739.389.739S3036.556,2908.758,3035.269,2908.133Z" transform="translate(-3002.341 -2900.833)" fill="#995120"/>
  <path id="Path_3120" data-name="Path 3120" d="M2975.029,2881.682a12.967,12.967,0,0,0,3.023,4.63,17.851,17.851,0,0,0,5.142,2.558,18.2,18.2,0,0,1-4.612-2.6A17.373,17.373,0,0,1,2975.029,2881.682Z" transform="translate(-2946.722 -2876.411)" fill="#995120"/>
  <path id="Path_3121" data-name="Path 3121" d="M2944.11,2869.342a2.675,2.675,0,0,0-.328,3.232,7.339,7.339,0,0,0,4.363,4.08,11.745,11.745,0,0,0,3.435.935,9.21,9.21,0,0,1-4.573-2.455,8.268,8.268,0,0,1-2.269-3.218,4.756,4.756,0,0,0,1.422,2.757,9.358,9.358,0,0,0,1.993,1.792,9.748,9.748,0,0,1-3.63-3.139A4.016,4.016,0,0,1,2944.11,2869.342Z" transform="translate(-2917.543 -2865.018)" fill="#995120"/>
  <path id="Path_3122" data-name="Path 3122" d="M2908.164,2887.047a16.168,16.168,0,0,0-1.865,3.682,29.232,29.232,0,0,0-.278,3.365,7.415,7.415,0,0,1-.328-3.863,6.424,6.424,0,0,1,1.219-2.656,10.993,10.993,0,0,0-1.033,2.611,5.221,5.221,0,0,0-.007,2.106,5.116,5.116,0,0,1,.521-2.683A9.166,9.166,0,0,1,2908.164,2887.047Z" transform="translate(-2882.573 -2881.365)" fill="#995120"/>
  <path id="Path_3123" data-name="Path 3123" d="M3160.362,2916.055s1.9,1.966.39,6.38-3.964,6.137-3.964,6.137a15.911,15.911,0,0,0,1.822-3.878,10.8,10.8,0,0,0,.307-4.76,7,7,0,0,1,.423,3.494,7.754,7.754,0,0,1-.8,2.6,12.176,12.176,0,0,0,2.019-4.976A11.984,11.984,0,0,0,3160.362,2916.055Z" transform="translate(-3114.54 -2908.148)" fill="#995120"/>
  <path id="Path_3124" data-name="Path 3124" d="M3147.093,2835.541a5.065,5.065,0,0,0-1.787-1.779,6,6,0,0,0-1.527-.583,7.218,7.218,0,0,1,2.006,1.152,4.249,4.249,0,0,1,.954,1.16,6.262,6.262,0,0,0-1.149-.666,4.019,4.019,0,0,0-.779-.235s1.679.884,1.838,1.032l.159.148a10.593,10.593,0,0,1,1.466.98,5.441,5.441,0,0,1,1.166,2.091,2.156,2.156,0,0,0-.491-1.636,6.905,6.905,0,0,0-1.064-1.017s.539-.119,1.4.668a6.271,6.271,0,0,1,1.3,1.677,4.177,4.177,0,0,0-1.21-1.9,5.277,5.277,0,0,0-1.887-.931,2.6,2.6,0,0,0,.127-.649,4.277,4.277,0,0,0-.153-1.174A3.511,3.511,0,0,1,3147.093,2835.541Z" transform="translate(-3102.529 -2831.628)" fill="#995120"/>
  <path id="Path_3125" data-name="Path 3125" d="M2951.289,2868.007a29.588,29.588,0,0,0,13.116,3.3c7.031-.083,5.514-2.95,5.514-2.95a4.157,4.157,0,0,1,1.891,2.258,11.978,11.978,0,0,1,.571,4.319l-1.077-3.453a7.685,7.685,0,0,0,.352,1.43c.108.045-1.318-1.385-1.318-1.385a4.67,4.67,0,0,1,.4,1.425c-.052.377-1.126-1.046-1.126-1.046a24.471,24.471,0,0,1,.07,3.271c-.127.731-1.3-2.892-1.3-2.579s.127,2.516-.1,1.716a6.226,6.226,0,0,0-.936-1.716s-.178,1.272-.263,1.02a3.6,3.6,0,0,0-.729-.967c-.071-.01-.787-.207-.79-.015s1.051,1.925,1.041,2-2.084-2.093-2.084-2.093.007,1.54-.019,1.5-2.026-1.476-2.026-1.476l.555,1.351-1.757-1.855s.679,2.177.581,2.023a13.333,13.333,0,0,0-2.178-1.767c-.087.108.205.99.1,1s-.413-.162-.941-.677-1.388-1.4-1.4-1.285.243,1.691.243,1.691l-2.619-2.217s.522,1.754.485,1.677-1.725-2.043-1.685-1.749.061,1.293-.064.837-.524-1.544-.594-1.386-.264.852-.354.815-.508-1.176-.537-.964.041,1.422-.247.9a19.011,19.011,0,0,0-.948-1.757c.036.212-.221.849-.293.5s-.085-1.189-.232-1.125a5.46,5.46,0,0,0-.576.381l.346-1.266Z" transform="translate(-2923.631 -2863.494)" fill="#fffa89" opacity="0.2" style="mix-blend-mode: color-dodge;isolation: isolate"/>
  <g id="Group_1590" data-name="Group 1590" transform="translate(26.123 20.519)">
    <path id="Path_3126" data-name="Path 3126" d="M2946.858,3080.519a4.047,4.047,0,0,0,2.621,1.551,11.588,11.588,0,0,0,3.024-.2c0,.185-1.478,2.364-1.853,3.126a1.28,1.28,0,0,1-1.667.7c-.429-.277-.22-1.614-.939-2.708S2945.912,3080.212,2946.858,3080.519Z" transform="translate(-2946.542 -3080.482)" fill="#ad1717"/>
    <path id="Path_3127" data-name="Path 3127" d="M2977.061,3128.769a2.722,2.722,0,0,0-1.217.039,1.979,1.979,0,0,0-1.054.494s.04.718.3.879a1.2,1.2,0,0,0,1.31-.285,3.144,3.144,0,0,0,.556-.916A2.043,2.043,0,0,1,2977.061,3128.769Z" transform="translate(-2972.624 -3125.022)" fill="#ef3f3f"/>
  </g>
  <path id="Path_3128" data-name="Path 3128" d="M2970.55,3055.361s.4-.508-.75-.787c-1.094-.266-1.375-.067-1.4.144s-.226.25-.267.2c-.08-.1-.147-.1.11-.574s1.526-.458,2.167-.025.642.865.409,1.03S2970.55,3055.361,2970.55,3055.361Z" transform="translate(-2940.291 -3035.502)" fill="#e28140" opacity="0.63"/>
  <g id="Group_1593" data-name="Group 1593" transform="translate(0 18.733)">
    <g id="Group_1591" data-name="Group 1591">
      <path id="Path_3129" data-name="Path 3129" d="M2626.9,3062.593l1.849,3.375-7.883,3,5.571-6.182Z" transform="translate(-2619.727 -3062.18)" fill="#efdbc9"/>
      <path id="Path_3130" data-name="Path 3130" d="M2621.55,3097.8l13.064-4.557,6.066,16.844-13.206,3.108Z" transform="translate(-2620.354 -3090.478)" fill="#fd422d"/>
      <path id="Path_3131" data-name="Path 3131" d="M2607.155,3147.624l-1.2-.418,6.1,15.3,1.015.514Z" transform="translate(-2605.959 -3140.302)" fill="#e4301e"/>
      <path id="Path_3132" data-name="Path 3132" d="M2605.959,3064.1l6.667-6.868.358-.035-6.455,6.747.6.284,12.829-4.488.263.221-13.064,4.557Z" transform="translate(-2605.959 -3057.201)" fill="#e4301e"/>
      <path id="Path_3133" data-name="Path 3133" d="M2626.366,3061.8l-1.736-.41-10.174,4.063,5.551-5.944-.3-.257-6.3,6.59.6.284Z" transform="translate(-2612.829 -3059.091)" fill="#f6ebe2"/>
    </g>
    <g id="Group_1592" data-name="Group 1592" transform="translate(2.804 4.754)">
      <path id="Path_3134" data-name="Path 3134" d="M2647.387,3134.917l-4.869-12.308,10.725-3.423,4.367,13.439Zm-4.331-12.053,4.582,11.58,9.447-2.119-4.1-12.63Z" transform="translate(-2642.518 -3119.185)" fill="#f3bf06"/>
    </g>
    <path id="Path_3135" data-name="Path 3135" d="M2677.809,3181.521c.1.006,8.206-2.117,8.206-2.117l.381,1.551-8.054,1.855Z" transform="translate(-2672.298 -3170.031)" fill="#f3bf06"/>
    <path id="Path_3136" data-name="Path 3136" d="M2715.8,3225.608l4.063-.888.135.575-4.055.831Z" transform="translate(-2707.378 -3211.872)" fill="#f3bf06"/>
  </g>
  <path id="Path_3137" data-name="Path 3137" d="M2870.124,3435.408a19.883,19.883,0,0,0,.3,5,90.562,90.562,0,0,0,1.807,8.884s-.057.169,2.145.621a5.61,5.61,0,0,0,3.782-.508s.4.9,3.557,1.073,4.46-.565,4.46-.565l1.511-11.291Z" transform="translate(-2849.822 -3387.666)" fill="#68ada3"/>
  <path id="Path_3138" data-name="Path 3138" d="M2877.483,3205.419s-2.053,4.524,1.893,4.862,5.872-4.2,5.872-4.2,2.534,1.093,3.1,2.053,1.244,6.379.848,10.3a64.911,64.911,0,0,1-1.625,8.539s-4.319,2.2-11.813-.084-6.309-4.954-6.309-4.954a48.192,48.192,0,0,1,1.669-6.626c1-2.774,2.692-7.474,3.391-8.469a9.368,9.368,0,0,1,1.228-1.524A7.55,7.55,0,0,1,2877.483,3205.419Z" transform="translate(-2849.176 -3175.191)" fill="#3f3934"/>
  <path id="Path_3139" data-name="Path 3139" d="M2884.627,3482.645a18.073,18.073,0,0,0,6.9,4.841l.169,4.008v1.67l-.113-.146-.646.291-.313-5.062s-4.065-1.016-3.98-.988,3.359.4,3.359.4-2.018-.678-1.842-.678,1.023.085,1.023.085S2885.742,3485.481,2884.627,3482.645Z" transform="translate(-2863.253 -3431.28)" fill="#46877c"/>
  <path id="Path_3140" data-name="Path 3140" d="M2976.82,3605.985a5.8,5.8,0,0,0,3.768,1.059,10.737,10.737,0,0,0,4.215-.7l.07-.525a8.44,8.44,0,0,1-4.243.737c-2.936-.058-3.811-1.08-3.811-1.08Z" transform="translate(-2948.375 -3544.691)" fill="#fff"/>
  <path id="Path_3141" data-name="Path 3141" d="M2895.022,3604.212a8.05,8.05,0,0,0,3.054.782,7.5,7.5,0,0,0,3.112-.614v-.508a6.08,6.08,0,0,1-3.083.657,6.483,6.483,0,0,1-3.2-.79Z" transform="translate(-2872.744 -3543.086)" fill="#fff"/>
  <path id="Path_3142" data-name="Path 3142" d="M3067.213,3494.688l-1.155,9.281-.541.2,1.25-9.372Z" transform="translate(-3030.27 -3442.4)" fill="#fff"/>
  <g id="Group_1594" data-name="Group 1594" transform="translate(21.374 70.96)">
    <path id="Path_3143" data-name="Path 3143" d="M2892.472,3744.424s.15,2.821-.12,2.955a4.3,4.3,0,0,1-1.727.337c-.7-.022-1.054,0-1.054,0a8.508,8.508,0,0,1-2.715.268c-1.682-.067-2.064-.359-2.108-.539a1.974,1.974,0,0,1,1.772-2.8c.7-.2,1.032-.28,1.032-.28l-.186-.356a.554.554,0,0,1,.269-.766,2.676,2.676,0,0,1,1.824-.011c1.547.439,1.436,1.144,1.436,1.144A1.2,1.2,0,0,1,2892.472,3744.424Z" transform="translate(-2884.627 -3742.699)" fill="#ed412f"/>
    <path id="Path_3144" data-name="Path 3144" d="M2893.52,3788.318s-.179.2-1.08.263-1.472.017-1.716.051a11.1,11.1,0,0,1-2.742.286,6.84,6.84,0,0,1-2.187-.3,2.607,2.607,0,0,0,.109.639,4.631,4.631,0,0,0,2.434.394,14.4,14.4,0,0,0,2.5-.255,6.09,6.09,0,0,0,1.624-.036,2.794,2.794,0,0,0,.97-.3A2.825,2.825,0,0,0,2893.52,3788.318Z" transform="translate(-2885.704 -3784.469)" fill="#fff8ee"/>
    <path id="Path_3145" data-name="Path 3145" d="M2923.47,3740.193a1.229,1.229,0,0,0-.754-.126c-.455.059-.9.111-.926-.012s-.042-1.065-1.716-1.326-1.7.413-1.666.648a1.448,1.448,0,0,0,.126.41,1.11,1.11,0,0,1-.345-.914c.059-.572.74-.917,2.322-.665s1.523,1.245,1.523,1.245.345-.546,1.338-.143S2923.779,3740.353,2923.47,3740.193Z" transform="translate(-2915.61 -3738.123)" fill="#fff8ee"/>
    <path id="Path_3146" data-name="Path 3146" d="M2919.725,3758.969s.279-.191,1.019.062a1.633,1.633,0,0,1,1.085,1.043c-.017.143-.286.16-.429,0s-.138-.481-.757-.791a1.782,1.782,0,0,0-1.169-.25Z" transform="translate(-2916.801 -3757.306)" fill="#fff8ee"/>
    <path id="Path_3147" data-name="Path 3147" d="M2907.742,3762.318a1.718,1.718,0,0,1,.87.3,1.6,1.6,0,0,1,.656.917c.008.151-.193.277-.378.076s-.233-.614-.724-.909a1.5,1.5,0,0,0-.884-.246Z" transform="translate(-2905.544 -3760.463)" fill="#fff8ee"/>
    <path id="Path_3148" data-name="Path 3148" d="M2971.756,3769.485a1.253,1.253,0,0,0-.842.581,2.777,2.777,0,0,0-.446,1.3l.126-.042a2.883,2.883,0,0,1,.4-1.2,1.279,1.279,0,0,1,.761-.538Z" transform="translate(-2963.884 -3767.08)" fill="#fff8ee"/>
  </g>
  <g id="Group_1595" data-name="Group 1595" transform="translate(27.694 71.581)">
    <path id="Path_3149" data-name="Path 3149" d="M2968.716,3754.938l.381-.258s-.321-1.037,1.615-1.1,1.771,1.1,1.771,1.1.494-.2.606,0a5.307,5.307,0,0,1,.2,1.458c0,.381.449.9.112,1.75s-2.131,1.256-4.42,1.1-2.041-1.391-1.794-2.086S2968.78,3755.385,2968.716,3754.938Z" transform="translate(-2967.036 -3753.008)" fill="#ed412f"/>
    <path id="Path_3150" data-name="Path 3150" d="M2974.517,3799.455s-.3.785-3.155.707-3.115-.583-3.115-.583a1.577,1.577,0,0,0,0,.729,1.2,1.2,0,0,0,.561.7,8.532,8.532,0,0,0,3.006.247c1.468-.146,2.311-.432,2.563-.926A1.256,1.256,0,0,0,2974.517,3799.455Z" transform="translate(-2968.115 -3795.372)" fill="#fff8ee"/>
    <path id="Path_3151" data-name="Path 3151" d="M2986.567,3748.245l.41-.153s-.247-1.245,1.525-1.222,1.761,1.144,1.761,1.144a1.034,1.034,0,0,1,.516-.112.265.265,0,0,1,.254.281s.5-.319.15-.625a.549.549,0,0,0-.673-.082s-.078-1.279-2.075-1.256-1.671,1.548-1.671,1.548-.168-.09-.337.124S2986.567,3748.245,2986.567,3748.245Z" transform="translate(-2984.893 -3746.219)" fill="#fff8ee"/>
    <path id="Path_3152" data-name="Path 3152" d="M2994.616,3766.127c0-.025-.343-.57-1.611-.686-1.385-.126-1.9.613-1.949.747s.028.287.215.189a2.071,2.071,0,0,1,1.661-.626,3.205,3.205,0,0,1,1.6.627C2994.761,3766.483,2994.616,3766.127,2994.616,3766.127Z" transform="translate(-2989.202 -3763.954)" fill="#fff8ee"/>
    <path id="Path_3153" data-name="Path 3153" d="M2990.794,3777.533c0-.025-.378-.571-1.77-.689-1.52-.129-2.089.61-2.138.743s.032.287.237.189a2.375,2.375,0,0,1,1.822-.623,3.717,3.717,0,0,1,1.762.629C2990.954,3777.889,2990.794,3777.533,2990.794,3777.533Z" transform="translate(-2985.351 -3774.481)" fill="#fff8ee"/>
  </g>
  <g id="Group_1603" data-name="Group 1603" transform="translate(34.016 43.599)">
    <g id="Group_1597" data-name="Group 1597" transform="translate(2.682)">
      <rect id="Rectangle_417" data-name="Rectangle 417" width="23.394" height="1.982" rx="0.991" transform="translate(43.725 13.662) rotate(180)" fill="#c62424"/>
      <rect id="Rectangle_418" data-name="Rectangle 418" width="23.394" height="1.965" rx="0.982" transform="translate(43.644 1.982) rotate(180)" fill="#c62424"/>
      <path id="Path_3154" data-name="Path 3154" d="M3086.8,3381.4h17.989c.4,0,.717.431.717.962v1.02l-18.623,4.849,18.623,4.849v1.02c0,.531-.321.962-.717.962H3086.8c-1.314,0-2.379-1.43-2.379-3.193v-7.275C3084.423,3382.829,3085.488,3381.4,3086.8,3381.4Z" transform="translate(-3084.423 -3381.399)" fill="#f93232"/>
      <path id="Path_3155" data-name="Path 3155" d="M3329.09,3407.239a8.667,8.667,0,0,0-1.606,5.477c.251,3.081,1.606,4.221,1.606,4.221h-23.645a1.888,1.888,0,0,1-1.757-2v-5.7a1.888,1.888,0,0,1,1.757-2Z" transform="translate(-3286.87 -3405.257)" fill="#e2dfd5"/>
      <path id="Path_3156" data-name="Path 3156" d="M3110.342,3407.239a8.666,8.666,0,0,0-1.607,5.477c.251,3.081,1.607,4.221,1.607,4.221h-18.926a1.888,1.888,0,0,1-1.757-2v-5.7a1.889,1.889,0,0,1,1.757-2Z" transform="translate(-3089.257 -3405.257)" fill="#f4f2ed"/>
      <path id="Path_3157" data-name="Path 3157" d="M3214.617,3467.483l-10.743.228h10.994Z" transform="translate(-3194.712 -3460.88)" fill="#e2dfd5"/>
      <path id="Path_3158" data-name="Path 3158" d="M3232.29,3432.526c-.176,0-10.417.2-10.417.2l10.417.171Z" transform="translate(-3211.331 -3428.604)" fill="#e2dfd5"/>
      <path id="Path_3159" data-name="Path 3159" d="M3180.422,3474.921h-13.856l14.182.229Z" transform="translate(-3160.266 -3467.748)" fill="#e2dfd5"/>
      <path id="Path_3160" data-name="Path 3160" d="M3175.911,3517.686h-15.562l15.688-.371Z" transform="translate(-3154.525 -3506.89)" fill="#e2dfd5"/>
      <path id="Path_3161" data-name="Path 3161" d="M3344.055,3432.526l15.15.371h-15.286Z" transform="translate(-3324.015 -3428.605)" fill="#c9c5b9"/>
      <path id="Path_3162" data-name="Path 3162" d="M3338.083,3467.483l9.38.114-9.386.114Z" transform="translate(-3318.622 -3460.88)" fill="#c9c5b9"/>
      <path id="Path_3163" data-name="Path 3163" d="M3338.077,3474.921l19.024.114-19.007.1Z" transform="translate(-3318.622 -3467.748)" fill="#c9c5b9"/>
      <path id="Path_3164" data-name="Path 3164" d="M3348.33,3517.686h11.583l-11.843-.371Z" transform="translate(-3327.848 -3506.89)" fill="#c9c5b9"/>
      <path id="Path_3165" data-name="Path 3165" d="M3491.753,3447.583h-10.362l10.306.251Z" transform="translate(-3450.944 -3442.507)" fill="#c9c5b9"/>
      <path id="Path_3166" data-name="Path 3166" d="M3467.4,3481.338H3455.21l12.224.274Z" transform="translate(-3426.771 -3473.673)" fill="#c9c5b9"/>
      <path id="Path_3167" data-name="Path 3167" d="M3528.7,3510.61h-7.713l7.647-.168Z" transform="translate(-3487.505 -3500.545)" fill="#c9c5b9"/>
      <path id="Path_3168" data-name="Path 3168" d="M3119.231,3447.667h-10.918v-.428Z" transform="translate(-3106.481 -3442.19)" fill="#e2dfd5"/>
      <path id="Path_3169" data-name="Path 3169" d="M3124.314,3511.642h-16v-.256Z" transform="translate(-3106.481 -3501.416)" fill="#e2dfd5"/>
      <g id="Group_1596" data-name="Group 1596" transform="translate(0.77 2.324)">
        <path id="Path_3170" data-name="Path 3170" d="M3095.43,3411.7a1.869,1.869,0,0,1,.534.465,3.666,3.666,0,0,0-.442,2.007v4.963a2.356,2.356,0,0,0,.366.931,5.114,5.114,0,0,1-.391.647l-.469-.418a2.141,2.141,0,0,1-.569-1.16v-4.963C3094.459,3411.948,3095.43,3411.7,3095.43,3411.7Z" transform="translate(-3094.459 -3411.701)" fill="#e2dfd5"/>
        <path id="Path_3171" data-name="Path 3171" d="M3108.313,3419.77a3.664,3.664,0,0,1,.442-2.007,5.189,5.189,0,0,1,.972,3.471,9.688,9.688,0,0,1-1.048,4.43,2.357,2.357,0,0,1-.366-.931Z" transform="translate(-3107.25 -3417.298)" fill="#b7b3a9"/>
      </g>
    </g>
    <g id="Group_1599" data-name="Group 1599" transform="translate(4.609 20.08)">
      <rect id="Rectangle_419" data-name="Rectangle 419" width="28.673" height="1.694" rx="0.847" transform="translate(0 9.985)" fill="#8fa316"/>
      <rect id="Rectangle_420" data-name="Rectangle 420" width="28.673" height="1.68" rx="0.84" transform="translate(0.1 0.015)" fill="#8fa316"/>
      <path id="Path_3172" data-name="Path 3172" d="M3494.279,3643.2h-22.049a.852.852,0,0,0-.879.822v.872l22.825,4.145-22.825,4.146v.872a.852.852,0,0,0,.879.823h22.049a2.828,2.828,0,0,0,2.916-2.73v-6.219A2.827,2.827,0,0,0,3494.279,3643.2Z" transform="translate(-3443.602 -3643.197)" fill="#bbd841"/>
      <path id="Path_3173" data-name="Path 3173" d="M3133.612,3665.289s2.276,2.048,1.969,4.682a4.815,4.815,0,0,1-1.969,3.609h28.981a1.969,1.969,0,0,0,2.153-1.707V3667a1.969,1.969,0,0,0-2.153-1.707Z" transform="translate(-3131.766 -3663.595)" fill="#e2dfd5"/>
      <path id="Path_3174" data-name="Path 3174" d="M3471.352,3665.289s2.277,2.048,1.969,4.682a4.816,4.816,0,0,1-1.969,3.609h23.2a1.97,1.97,0,0,0,2.154-1.707V3667a1.97,1.97,0,0,0-2.154-1.707Z" transform="translate(-3443.602 -3663.595)" fill="#f4f2ed"/>
      <path id="Path_3175" data-name="Path 3175" d="M3486.5,3716.793l13.168.2h-13.475Z" transform="translate(-3457.305 -3711.149)" fill="#e2dfd5"/>
      <path id="Path_3176" data-name="Path 3176" d="M3473.358,3686.908c.216,0,12.768.171,12.768.171l-12.768.146Z" transform="translate(-3445.454 -3683.555)" fill="#e2dfd5"/>
      <path id="Path_3177" data-name="Path 3177" d="M3481.379,3723.152h16.983l-17.383.2Z" transform="translate(-3452.49 -3717.02)" fill="#e2dfd5"/>
      <path id="Path_3178" data-name="Path 3178" d="M3464.687,3759.713h19.074l-19.229-.317Z" transform="translate(-3437.306 -3750.483)" fill="#e2dfd5"/>
      <path id="Path_3179" data-name="Path 3179" d="M3264.521,3686.908l-18.569.317h18.736Z" transform="translate(-3235.49 -3683.555)" fill="#c9c5b9"/>
      <path id="Path_3180" data-name="Path 3180" d="M3358.9,3716.793l-11.5.1,11.5.1Z" transform="translate(-3329.163 -3711.149)" fill="#c9c5b9"/>
      <path id="Path_3181" data-name="Path 3181" d="M3216.7,3723.152l-23.318.1,23.3.083Z" transform="translate(-3186.948 -3717.019)" fill="#c9c5b9"/>
      <path id="Path_3182" data-name="Path 3182" d="M3310.085,3759.713h-14.2l14.516-.317Z" transform="translate(-3281.596 -3750.483)" fill="#c9c5b9"/>
      <path id="Path_3183" data-name="Path 3183" d="M3156.144,3699.78h12.7l-12.632.215Z" transform="translate(-3152.57 -3695.44)" fill="#c9c5b9"/>
      <path id="Path_3184" data-name="Path 3184" d="M3158.522,3728.638h14.945l-14.983.234Z" transform="translate(-3154.731 -3722.085)" fill="#c9c5b9"/>
      <path id="Path_3185" data-name="Path 3185" d="M3149.944,3753.664h9.454l-9.373-.143Z" transform="translate(-3146.845 -3745.059)" fill="#c9c5b9"/>
      <path id="Path_3186" data-name="Path 3186" d="M3604.533,3699.853h13.382v-.366Z" transform="translate(-3566.567 -3695.169)" fill="#e2dfd5"/>
      <path id="Path_3187" data-name="Path 3187" d="M3523.311,3754.546h19.612v-.219Z" transform="translate(-3491.575 -3745.803)" fill="#e2dfd5"/>
      <g id="Group_1598" data-name="Group 1598" transform="translate(49.614 1.987)">
        <path id="Path_3188" data-name="Path 3188" d="M3772.6,3669.1a2.319,2.319,0,0,0-.655.4,2.418,2.418,0,0,1,.542,1.716v4.243a1.681,1.681,0,0,1-.448.8,4.457,4.457,0,0,0,.479.553l.574-.358a1.646,1.646,0,0,0,.7-.991v-4.243C3773.786,3669.315,3772.6,3669.1,3772.6,3669.1Z" transform="translate(-3770.75 -3669.104)" fill="#e2dfd5"/>
        <path id="Path_3189" data-name="Path 3189" d="M3758.145,3676a2.417,2.417,0,0,0-.542-1.716,3.608,3.608,0,0,0-1.191,2.968,6.4,6.4,0,0,0,1.285,3.787,1.685,1.685,0,0,0,.448-.8Z" transform="translate(-3756.411 -3673.89)" fill="#b7b3a9"/>
      </g>
    </g>
    <g id="Group_1602" data-name="Group 1602" transform="translate(0 13.393)">
      <rect id="Rectangle_421" data-name="Rectangle 421" width="25.728" height="0.852" rx="0.426" transform="translate(0 5.947)" fill="#25bfa9"/>
      <rect id="Rectangle_422" data-name="Rectangle 422" width="25.728" height="0.843" rx="0.422" transform="translate(0.093 0.008)" fill="#25bfa9"/>
      <path id="Path_3190" data-name="Path 3190" d="M3407.616,3556.014h-33.071c-.45,0-.814.214-.814.479l.169.373,33.622,2.547-33.642,2.547-.149.373c0,.264.365.479.814.479h33.071c1.493,0,2.7-.711,2.7-1.589v-3.62C3410.32,3556.726,3409.109,3556.014,3407.616,3556.014Z" transform="translate(-3348.859 -3556.014)" fill="#3eddca"/>
      <path id="Path_3191" data-name="Path 3191" d="M3071.767,3567.117a3.6,3.6,0,0,1,.97,2.877,3.928,3.928,0,0,1-.97,2.218h26.013c1.1,0,14.626-.469,14.626-1.049v-3c0-.58-13.523-1.049-14.626-1.049Z" transform="translate(-3070.056 -3566.266)" fill="#f4f2ed"/>
      <path id="Path_3192" data-name="Path 3192" d="M3373.731,3563.172a5.125,5.125,0,0,1,.685,3.291,6.738,6.738,0,0,1-.685,2.409h34.136c1.1,0,2-.526,2-1.174v-3.353c0-.648-.894-1.174-2-1.174Z" transform="translate(-3348.859 -3562.623)" fill="#3eddca"/>
      <path id="Path_3193" data-name="Path 3193" d="M3178.51,3580.4l-16.311.2h16.457Z" transform="translate(-3153.551 -3578.532)" fill="#e2dfd5"/>
      <path id="Path_3194" data-name="Path 3194" d="M3261.412,3598.768l-10.1.06,10.1.06Z" transform="translate(-3235.83 -3595.489)" fill="#e2dfd5"/>
      <path id="Path_3195" data-name="Path 3195" d="M3136.5,3602.676l-20.481.06,20.462.051Z" transform="translate(-3110.915 -3599.097)" fill="#e2dfd5"/>
      <path id="Path_3196" data-name="Path 3196" d="M3218.53,3625.144h-12.469l12.75-.195Z" transform="translate(-3194.049 -3619.661)" fill="#e2dfd5"/>
      <path id="Path_3197" data-name="Path 3197" d="M3083.67,3588.313h11.608l-11.58.131Z" transform="translate(-3081.046 -3585.836)" fill="#e2dfd5"/>
      <path id="Path_3198" data-name="Path 3198" d="M3083.705,3606.047h13.855l-13.891.144Z" transform="translate(-3081.046 -3602.21)" fill="#e2dfd5"/>
      <path id="Path_3199" data-name="Path 3199" d="M3078.851,3621.484l8.527-.031-8.474-.086Z" transform="translate(-3076.596 -3616.354)" fill="#e2dfd5"/>
      <g id="Group_1600" data-name="Group 1600" transform="translate(23.14 1.031)">
        <path id="Path_3200" data-name="Path 3200" d="M3361.326,3569.462a1.462,1.462,0,0,0-.412.244,1.465,1.465,0,0,1,.341,1.055v2.607a1.025,1.025,0,0,1-.282.489,2.773,2.773,0,0,0,.3.34l.361-.22a1.011,1.011,0,0,0,.438-.609v-2.607C3362.074,3569.592,3361.326,3569.462,3361.326,3569.462Z" transform="translate(-3360.165 -3569.462)" fill="#b7b3a9"/>
        <path id="Path_3201" data-name="Path 3201" d="M3352.24,3573.7a1.465,1.465,0,0,0-.341-1.055,2.194,2.194,0,0,0-.749,1.824,3.877,3.877,0,0,0,.808,2.327,1.025,1.025,0,0,0,.282-.489Z" transform="translate(-3351.151 -3572.403)" fill="#969187"/>
      </g>
      <path id="Path_3202" data-name="Path 3202" d="M3393.273,3560.719a5.24,5.24,0,0,1,.086,6.076h1.35a5.954,5.954,0,0,0,.885-3.086,6.145,6.145,0,0,0-.977-2.99Z" transform="translate(-3366.902 -3560.358)" fill="#f4ed73"/>
      <path id="Path_3203" data-name="Path 3203" d="M3420.458,3560.719a5.241,5.241,0,0,1,.086,6.076h1.35a5.95,5.95,0,0,0,.885-3.086,6.145,6.145,0,0,0-.977-2.99Z" transform="translate(-3392.002 -3560.358)" fill="#f4ed73"/>
      <path id="Path_3204" data-name="Path 3204" d="M3773.938,3560.719a5.242,5.242,0,0,1,.086,6.076h1.35a5.951,5.951,0,0,0,.885-3.086,6.142,6.142,0,0,0-.977-2.99Z" transform="translate(-3718.371 -3560.358)" fill="#f4ed73"/>
      <path id="Path_3205" data-name="Path 3205" d="M3801.123,3560.719a5.241,5.241,0,0,1,.086,6.076h1.35a5.95,5.95,0,0,0,.885-3.086,6.145,6.145,0,0,0-.977-2.99Z" transform="translate(-3743.47 -3560.358)" fill="#f4ed73"/>
      <g id="Group_1601" data-name="Group 1601" transform="translate(38.803 1.918)">
        <path id="Path_3206" data-name="Path 3206" d="M3672.371,3582.877a.572.572,0,0,1-.122-.358.613.613,0,0,1,.155-.413.829.829,0,0,1,.449-.25,2.276,2.276,0,0,1,.516-.047h1.149v.073h-.1a.289.289,0,0,0-.228.086.54.54,0,0,0-.057.312V3584a.615.615,0,0,0,.045.292.27.27,0,0,0,.24.106h.1v.073h-1.255a1.993,1.993,0,0,1-.668-.083.716.716,0,0,1-.344-.265.658.658,0,0,1-.126-.379.585.585,0,0,1,.19-.441.855.855,0,0,1,.414-.188A.712.712,0,0,1,3672.371,3582.877Zm1.387-.893a1.331,1.331,0,0,0-.353-.043.825.825,0,0,0-.555.165.508.508,0,0,0-.19.4.531.531,0,0,0,.076.278.459.459,0,0,0,.221.189,1.144,1.144,0,0,0,.43.062q.112,0,.205-.007a1.429,1.429,0,0,0,.166-.021Zm0,1.2a1.025,1.025,0,0,0-.139-.014c-.058,0-.127,0-.208,0a1.185,1.185,0,0,0-.471.082.566.566,0,0,0-.275.226.578.578,0,0,0-.084.3.5.5,0,0,0,.186.4.81.81,0,0,0,.541.16,1.987,1.987,0,0,0,.449-.053Z" transform="translate(-3663.171 -3581.748)" fill="#f4ed73"/>
        <path id="Path_3207" data-name="Path 3207" d="M3635.635,3581.365a1.345,1.345,0,0,1,.431,1.033,1.4,1.4,0,0,1-.374,1.01,1.278,1.278,0,0,1-1.849-.01,1.4,1.4,0,0,1-.383-1.006,1.357,1.357,0,0,1,.38-.982,1.206,1.206,0,0,1,.9-.393A1.272,1.272,0,0,1,3635.635,3581.365Zm-1.455.063a1.61,1.61,0,0,0-.269,1.018,1.424,1.424,0,0,0,.244.922.771.771,0,0,0,.619.292.689.689,0,0,0,.565-.267,1.58,1.58,0,0,0,.279-1,1.5,1.5,0,0,0-.269-.965.7.7,0,0,0-.573-.265A.725.725,0,0,0,3634.18,3581.427Z" transform="translate(-3627.472 -3581.017)" fill="#f4ed73"/>
        <path id="Path_3208" data-name="Path 3208" d="M3597.814,3581.365a1.345,1.345,0,0,1,.431,1.033,1.4,1.4,0,0,1-.374,1.01,1.278,1.278,0,0,1-1.849-.01,1.4,1.4,0,0,1-.382-1.006,1.358,1.358,0,0,1,.379-.982,1.207,1.207,0,0,1,.9-.393A1.272,1.272,0,0,1,3597.814,3581.365Zm-1.456.063a1.61,1.61,0,0,0-.269,1.018,1.425,1.425,0,0,0,.244.922.772.772,0,0,0,.619.292.688.688,0,0,0,.565-.267,1.577,1.577,0,0,0,.279-1,1.5,1.5,0,0,0-.269-.965.7.7,0,0,0-.573-.265A.725.725,0,0,0,3596.359,3581.427Z" transform="translate(-3592.552 -3581.017)" fill="#f4ed73"/>
        <path id="Path_3209" data-name="Path 3209" d="M3556.695,3582.59q-.355-.363-.4-.4a1.706,1.706,0,0,0-.251-.2.807.807,0,0,0-.173-.083.566.566,0,0,0-.157-.024v-.073h.977v.073h-.061a.219.219,0,0,0-.139.034.1.1,0,0,0-.041.08.256.256,0,0,0,.053.137,5.924,5.924,0,0,0,.7.712l.269.249v-.814a.9.9,0,0,0-.023-.259.171.171,0,0,0-.084-.094.381.381,0,0,0-.178-.045h-.09v-.073h1.134v.073h-.094a.371.371,0,0,0-.18.047.179.179,0,0,0-.081.082.909.909,0,0,0-.025.269V3584a.6.6,0,0,0,.047.3.283.283,0,0,0,.239.1h.094v.073H3557.1v-.073h.09a.362.362,0,0,0,.178-.047.175.175,0,0,0,.082-.084.881.881,0,0,0,.025-.267v-.857l-.918.908a.773.773,0,0,0-.123.139.189.189,0,0,0-.018.084.108.108,0,0,0,.05.085.272.272,0,0,0,.164.038v.073h-1.265v-.073a.879.879,0,0,0,.341-.1,1.793,1.793,0,0,0,.412-.328l.98-.975Z" transform="translate(-3555.367 -3581.748)" fill="#f4ed73"/>
      </g>
      <rect id="Rectangle_423" data-name="Rectangle 423" width="23.712" height="0.379" transform="translate(55.287 5.339) rotate(180)" fill="#f4ed73"/>
      <rect id="Rectangle_424" data-name="Rectangle 424" width="23.712" height="0.379" transform="translate(55.287 1.655) rotate(180)" fill="#f4ed73"/>
    </g>
  </g>
  <path id="Path_3210" data-name="Path 3210" d="M3072.778,3312.162s-7.7,2.08-8.783,2.924,1.546,2.708,2.563,2.708,7.2-.127,9.612-.762,3.176-2.667,2.414-3.684S3075.919,3311.539,3072.778,3312.162Z" transform="translate(-3028.628 -3273.669)" fill="#f4c092"/>
  <path id="Path_3211" data-name="Path 3211" d="M3100.352,3235.009a13.585,13.585,0,0,1,5.882,2.48,36.022,36.022,0,0,1,5.432,4.827l-5.432,1.016a40.735,40.735,0,0,0-4.412-1.4c-.573,0-1.674-.846-2.139-3.09A5.194,5.194,0,0,1,3100.352,3235.009Z" transform="translate(-3061.711 -3202.638)" fill="#f4c092"/>
  <path id="Path_3212" data-name="Path 3212" d="M3128.471,3314.208a16.7,16.7,0,0,1,3.709-.953,5.448,5.448,0,0,1,2.5.3s-.8-.683-3.472-.32a12.1,12.1,0,0,0-3.524.82Z" transform="translate(-3087.666 -3274.763)" fill="#e28140"/>
  <path id="Path_3213" data-name="Path 3213" d="M3042.638,3353.093a6.969,6.969,0,0,0-1.587,2.252,8.5,8.5,0,0,0-.283,3.056c.144.288.474.36.654-.125a10.2,10.2,0,0,0,.294-1.65c.072-.4.294-.844.374-.74s-.188.419-.254,1.3.044,1.633.22,1.713.47.067.663-.526.522-2.369.522-2.369-.105,1.518-.161,1.894.3.486.621.186a1.869,1.869,0,0,0,.583-1.074,7.763,7.763,0,0,0,.189-1.068,7.02,7.02,0,0,1,.022.973c-.033.362-.241.774-.11.859s.451-.042.753-.534a3.861,3.861,0,0,0,.461-1.82,2.619,2.619,0,0,0-.331-1.166S3044.077,3352.413,3042.638,3353.093Z" transform="translate(-3007.366 -3311.526)" fill="#f4c092"/>
  <path id="Path_3214" data-name="Path 3214" d="M2870.273,3412.527s1.765,2.993,7.015,4.489a19.891,19.891,0,0,0,9.411.452l-.058-.8s-3.086,1.424-9.127-.27-7.085-4.693-7.085-4.693Z" transform="translate(-2850 -3365.778)" fill="#fff"/>
  <g id="Group_1604" data-name="Group 1604" transform="translate(27.03 30.153)">
    <path id="Path_3215" data-name="Path 3215" d="M2961.665,3211.938a4.267,4.267,0,0,1-1.881-.393,2.3,2.3,0,0,1-1.317-1.737,5.351,5.351,0,0,1,.574-3.724l.361.042a5.445,5.445,0,0,0-.6,3.627,1.95,1.95,0,0,0,1.134,1.488,5.312,5.312,0,0,0,4.453-.321,10.145,10.145,0,0,0,3.5-3.878l.3.151a10.3,10.3,0,0,1-3.649,4.027A6.28,6.28,0,0,1,2961.665,3211.938Z" transform="translate(-2958.377 -3206.084)" fill="#fff"/>
  </g>
</svg>
