<svg id="microphone" xmlns="http://www.w3.org/2000/svg" width="24.046" height="37.571" viewBox="0 0 24.046 37.571">
  <g id="Group_4" data-name="Group 4" transform="translate(0 18.078)">
    <g id="Group_3" data-name="Group 3">
      <path id="Path_5" data-name="Path 5" d="M102.382,210.734a1.326,1.326,0,1,0-2.652,0,9.371,9.371,0,1,1-18.742,0,1.326,1.326,0,1,0-2.652,0,12.021,12.021,0,0,0,10.7,11.979v3.536H84.215a1.326,1.326,0,1,0,0,2.652H96.5a1.326,1.326,0,0,0,0-2.652H91.685v-3.536A12.021,12.021,0,0,0,102.382,210.734Z" transform="translate(-78.336 -209.408)" fill="#016be3"/>
    </g>
  </g>
  <g id="Group_6" data-name="Group 6" transform="translate(4.641)">
    <g id="Group_5" data-name="Group 5" transform="translate(0)">
      <path id="Path_6" data-name="Path 6" d="M139.478,0A7.4,7.4,0,0,0,132.1,7.382V19.36a7.382,7.382,0,1,0,14.763.044V7.382A7.4,7.4,0,0,0,139.478,0Z" transform="translate(-132.096)" fill="#016be3"/>
    </g>
  </g>
</svg>
