<svg xmlns="http://www.w3.org/2000/svg" width="30.404" height="27.435" viewBox="0 0 30.404 27.435">
  <g id="monitor" transform="translate(0 -25)">
    <path id="Path_743" data-name="Path 743" d="M28.623,25H1.782A1.784,1.784,0,0,0,0,26.782v17.7a1.784,1.784,0,0,0,1.782,1.782h8.729v4.394H5.7a.891.891,0,0,0,0,1.782h19a.891.891,0,0,0,0-1.782h-4.81V46.259h8.729A1.784,1.784,0,0,0,30.4,44.478v-17.7A1.784,1.784,0,0,0,28.623,25ZM18.112,50.654h-5.82V46.259h5.82Zm10.511-6.176H1.782v-17.7H28.623C28.624,44.862,28.629,44.478,28.623,44.478Z" transform="translate(0)" fill="#016be3"/>
  </g>
</svg>
