<svg xmlns="http://www.w3.org/2000/svg" width="39.6" height="26.4" viewBox="0 0 39.6 26.4">
  <g id="server" transform="translate(0 -1)">
    <path id="Path_741" data-name="Path 741" d="M18.05,30.8H13.1a1.652,1.652,0,0,1-1.65-1.65V20.9H7.325a.826.826,0,0,1-.584-1.409l8.25-8.25a.826.826,0,0,1,1.167,0l8.25,8.25a.826.826,0,0,1-.582,1.409H19.7v8.25A1.652,1.652,0,0,1,18.05,30.8ZM9.316,19.25h2.958a.825.825,0,0,1,.825.825V29.15h4.95V20.075a.825.825,0,0,1,.825-.825h2.958l-6.258-6.258Z" transform="translate(4.225 -3.4)" fill="#016be3"/>
    <path id="Path_742" data-name="Path 742" d="M7.427,27.351a.922.922,0,0,1-.094,0,8.248,8.248,0,0,1,.35-16.426,12.363,12.363,0,0,1,23.1-3.247A9.881,9.881,0,0,1,32.4,27.007a.825.825,0,0,1-.441-1.591A8.229,8.229,0,0,0,30.2,9.281a.824.824,0,0,1-.7-.475A10.712,10.712,0,0,0,9.2,11.841a.826.826,0,0,1-.817.71,6.6,6.6,0,0,0-.865,13.156.825.825,0,0,1-.091,1.645Z" transform="translate(0 0)" fill="#016be3"/>
  </g>
</svg>
