<svg xmlns="http://www.w3.org/2000/svg" width="22" height="23" viewBox="0 0 22 23">
  <g id="smile" transform="translate(-0.207 0.371)">
    <ellipse id="Ellipse_77" data-name="Ellipse 77" cx="11" cy="11.5" rx="11" ry="11.5" transform="translate(0.207 -0.371)" fill="#ffd93b"/>
    <path id="Path_732" data-name="Path 732" d="M104.194,290.089a7.363,7.363,0,0,1-7.137-5.547.48.48,0,1,1,.929-.238,6.4,6.4,0,0,0,12.413,0,.48.48,0,1,1,.93.238A7.362,7.362,0,0,1,104.194,290.089Z" transform="translate(-92.772 -272.377)" fill="#3e4347"/>
    <ellipse id="Ellipse_78" data-name="Ellipse 78" cx="1.765" cy="2.098" rx="1.765" ry="2.098" transform="translate(5.938 6.605)" fill="#3e4347"/>
    <path id="Path_734" data-name="Path 734" d="M177.834,195.426a.38.38,0,0,1-.508-.121.329.329,0,1,1,.493-.4A.382.382,0,0,1,177.834,195.426Z" transform="translate(-169.335 -187.174)" fill="#5a5f63"/>
    <ellipse id="Ellipse_79" data-name="Ellipse 79" cx="1.765" cy="2.098" rx="1.765" ry="2.098" transform="translate(13.379 6.605)" fill="#3e4347"/>
    <path id="Path_735" data-name="Path 735" d="M343.194,195.426a.381.381,0,0,1-.508-.121.329.329,0,1,1,.493-.4A.382.382,0,0,1,343.194,195.426Z" transform="translate(-327.255 -187.174)" fill="#5a5f63"/>
  </g>
</svg>
