<svg id="trash" xmlns="http://www.w3.org/2000/svg" width="10.05" height="12.305" viewBox="0 0 10.05 12.305">
  <path id="Path_12484" data-name="Path 12484" d="M10.018,2.75l-.272-.814a.758.758,0,0,0-.72-.519H6.744V.674A.675.675,0,0,0,6.07,0H3.979a.675.675,0,0,0-.674.674v.743H1.022a.758.758,0,0,0-.72.519L.031,2.75a.61.61,0,0,0,.578.8H.893l.625,7.729A1.118,1.118,0,0,0,2.626,12.3H7.55a1.118,1.118,0,0,0,1.108-1.023l.625-7.729H9.44a.61.61,0,0,0,.578-.8ZM4.026.721h2v.7h-2Zm3.913,10.5a.393.393,0,0,1-.389.36H2.626a.393.393,0,0,1-.389-.36l-.62-7.671H8.559ZM.764,2.832l.223-.668a.037.037,0,0,1,.036-.026h8a.038.038,0,0,1,.036.026l.223.668Zm0,0" transform="translate(0 0)" fill="#fff"/>
  <path id="Path_12485" data-name="Path 12485" d="M268.638,172.8h.019a.36.36,0,0,0,.36-.342l.339-6.5a.361.361,0,1,0-.72-.038l-.338,6.5A.361.361,0,0,0,268.638,172.8Zm0,0" transform="translate(-261.848 -161.597)" fill="#fff"/>
  <path id="Path_12486" data-name="Path 12486" d="M106.148,172.458a.36.36,0,0,0,.36.341h.02a.36.36,0,0,0,.34-.38l-.355-6.5a.36.36,0,0,0-.72.039Zm0,0" transform="translate(-103.251 -161.6)" fill="#fff"/>
  <path id="Path_12487" data-name="Path 12487" d="M194.615,172.8a.36.36,0,0,0,.36-.36v-6.5a.36.36,0,1,0-.721,0v6.5A.36.36,0,0,0,194.615,172.8Zm0,0" transform="translate(-189.586 -161.6)" fill="#fff"/>
</svg>
