<svg id="video-camera" xmlns="http://www.w3.org/2000/svg" width="34.263" height="22.026" viewBox="0 0 34.263 22.026">
  <g id="Group_8" data-name="Group 8">
    <g id="Group_7" data-name="Group 7">
      <path id="Path_7" data-name="Path 7" d="M33.683,87.963a1.224,1.224,0,0,0-1.191-.054l-8.019,4.01V89A3.671,3.671,0,0,0,20.8,85.333H3.671A3.671,3.671,0,0,0,0,89v14.684a3.671,3.671,0,0,0,3.671,3.671H20.8a3.671,3.671,0,0,0,3.671-3.671v-2.915l8.019,4.016a1.224,1.224,0,0,0,1.771-1.1V89A1.224,1.224,0,0,0,33.683,87.963ZM22.026,103.688a1.224,1.224,0,0,1-1.224,1.224H3.671a1.224,1.224,0,0,1-1.224-1.224V89A1.224,1.224,0,0,1,3.671,87.78H20.8A1.224,1.224,0,0,1,22.026,89v14.684Zm9.789-1.98-7.342-3.671V94.655l7.342-3.671Z" transform="translate(0 -85.333)" fill="#016be3"/>
    </g>
  </g>
</svg>
